<?xml version="1.0" encoding="UTF-8" standalone="no"?>
<svg
   xmlns:dc="http://purl.org/dc/elements/1.1/"
   xmlns:cc="http://creativecommons.org/ns#"
   xmlns:rdf="http://www.w3.org/1999/02/22-rdf-syntax-ns#"
   xmlns:svg="http://www.w3.org/2000/svg"
   xmlns="http://www.w3.org/2000/svg"
   xmlns:sodipodi="http://sodipodi.sourceforge.net/DTD/sodipodi-0.dtd"
   xmlns:inkscape="http://www.inkscape.org/namespaces/inkscape"
   viewBox="0 0 559 229"
   height="229"
   width="559"
   id="svg2"
   version="1.1"
   sodipodi:docname="2opt.svg"
   inkscape:version="0.92.2 5c3e80d, 2017-08-06">
  <sodipodi:namedview
     pagecolor="#ffffff"
     bordercolor="#666666"
     borderopacity="1"
     objecttolerance="10"
     gridtolerance="10"
     guidetolerance="10"
     inkscape:pageopacity="0"
     inkscape:pageshadow="2"
     inkscape:window-width="1281"
     inkscape:window-height="761"
     id="namedview13"
     showgrid="false"
     inkscape:zoom="2.32"
     inkscape:cx="393.65177"
     inkscape:cy="-1.0810983"
     inkscape:window-x="0"
     inkscape:window-y="673"
     inkscape:window-maximized="0"
     inkscape:current-layer="svg2" />
  <metadata
     id="metadata8">
    <rdf:RDF>
      <cc:Work
         rdf:about="">
        <dc:format>image/svg+xml</dc:format>
        <dc:type
           rdf:resource="http://purl.org/dc/dcmitype/StillImage" />
        <dc:title />
      </cc:Work>
    </rdf:RDF>
  </metadata>
  <defs
     id="defs6" />
  <path
     id="path817"
     d="m 54.848007,214.48035 c -0.406536,-1.5546 -1.364016,-2 -4.299392,-2 -2.342697,0 -3.983596,0.54 -4.322197,1.42238 -0.334055,0.87053 -1.345494,1.21325 -2.606988,0.88337 -2.476421,-0.6476 -2.474721,-0.4445 -0.06117,-7.30575 1.06409,-3.025 1.949399,-7.2188 1.967354,-9.31955 0.02888,-3.37887 0.291604,-3.78268 2.277125,-3.5 1.711374,0.24365 3.485561,2.69473 7.469679,10.31955 2.873861,5.5 5.238845,10.3375 5.255522,10.75 0.01668,0.4125 -1.136809,0.75 -2.5633,0.75 -1.752615,0 -2.76321,-0.64852 -3.116631,-2 z m -2.762676,-5.0438 c 0.937156,-1.51635 -1.602945,-4.28033 -2.817474,-3.0658 -1.121509,1.12151 -0.248989,4.1096 1.199999,4.1096 0.534803,0 1.262666,-0.46971 1.617475,-1.0438 z m 37.472927,6.37899 c -4.142408,-1.64637 -5,-3.52166 -5,-10.93347 0,-6.39792 0.271518,-7.47849 2.222506,-8.84502 2.834643,-1.98546 6.066174,-1.9759 9.944024,0.0294 2.72637,1.40987 3.00634,1.96117 2.51951,4.96119 -0.49135,3.02779 -0.18938,3.59653 2.934622,5.52727 4.1122,2.54148 4.07435,4.61541 -0.12903,7.07031 -3.300192,1.92742 -10.136902,3.12618 -12.491632,2.19031 z m 8.79568,-4.93697 c 2.318812,-1.51934 2.335812,-1.61782 0.50121,-2.90282 -1.04447,-0.73158 -3.50965,-1.63229 -5.47818,-2.00159 -3.51957,-0.66027 -3.586194,-0.61119 -4.001702,2.94793 -0.232399,1.99067 -0.176923,3.86501 0.12328,4.16521 0.858516,0.85852 6.212112,-0.47679 8.855392,-2.20873 z m -5.37747,-9.00521 c 2.30772,-0.88555 2.02093,-4.39301 -0.35919,-4.39301 -2.356184,0 -3.274395,1.27517 -2.455276,3.40976 0.693851,1.80814 0.678661,1.80284 2.814466,0.98325 z M 378.59005,214.2999 c 0.0175,-0.72575 0.6925,-2.19306 1.5,-3.26068 0.80751,-1.06762 1.46821,-2.83219 1.46821,-3.92126 0,-1.08907 0.73307,-2.79018 1.62907,-3.78024 0.89599,-0.99006 1.90849,-4.40049 2.25,-7.57874 0.52557,-4.89122 0.92609,-5.77863 2.6081,-5.77863 1.33196,0 2.65084,1.35075 4,4.09668 7.15556,14.56363 9.72579,20.52369 9.11436,21.13511 -1.4488,1.44881 -4.21138,-1.59698 -7.35411,-8.10803 -1.78892,-3.70624 -3.70142,-6.46121 -4.25,-6.12217 -1.53358,0.9478 -1.18405,3.29459 0.64297,4.31704 2.05647,1.15086 0.96612,3.14831 -1.3914,2.54895 -1.23156,-0.3131 -2.34069,0.67617 -3.749,3.34388 -1.98778,3.76539 -6.53672,5.95124 -6.4682,3.10809 z m 44.96821,-1.13549 -5.5,-1.18406 -0.71118,-9.5 c -0.39116,-5.225 -0.51778,-10.0625 -0.28139,-10.75 0.64592,-1.87858 10.54035,-1.60526 13.35902,0.36902 1.92285,1.34681 2.20411,2.19129 1.67291,5.02282 -0.55528,2.9599 -0.2379,3.74095 2.43358,5.98885 4.55678,3.83427 5.33248,5.79004 3.26254,8.2257 -2.25218,2.65007 -7.36581,3.30661 -14.23548,1.82767 z m 10.78427,-4.78181 c 0.38387,-2.01934 -5.70629,-6.73665 -9.73826,-7.54305 -2.93619,-0.58724 -3.04601,-0.48145 -3.04601,2.93401 0,6.25866 0.60638,6.83307 6.86498,6.50297 4.19432,-0.22122 5.69244,-0.70056 5.91929,-1.89393 z m -8.36606,-11.50924 c 2.78653,-1.06929 1.81526,-3.39301 -1.41821,-3.39301 -2.33334,0 -3,0.44444 -3,2 0,2.02195 1.52568,2.50298 4.41821,1.39301 z m -262.46583,15.15642 c -0.0262,-0.85218 -0.0617,-5.26193 -0.0789,-9.79943 l -0.0313,-8.25 5.63839,0.11989 c 4.71979,0.10036 6.11369,0.57526 8.55579,2.91495 3.78791,3.62905 5.49448,8.60477 3.94454,11.50085 -1.50537,2.8128 -6.25674,4.63008 -12.7309,4.86924 -4.14065,0.15296 -5.26006,-0.13346 -5.29762,-1.3555 z m 11.09728,-3.07511 c 2.02253,-1.04589 2.95034,-2.27966 2.95034,-3.92327 0,-3.28648 -4.61543,-8.55105 -7.49667,-8.55105 -2.21461,0 -2.31404,0.31478 -2.21103,7 0.12025,7.80365 0.95118,8.47681 6.75736,5.47432 z m -48.99713,1.0816 c -1.83949,-1.95806 -2.16856,-3.12391 -1.65475,-5.86271 0.35273,-1.88025 1.42003,-4.09365 2.37178,-4.91866 2.09659,-1.81742 7.14623,-2.87084 10.08175,-2.10318 3.16272,0.82707 2.61377,2.32863 -0.85131,2.32863 -1.69606,0 -3.89562,0.89562 -5.06058,2.06058 -1.30299,1.30299 -1.94639,3.04936 -1.75,4.75 0.33884,2.93411 0.7358,2.99833 10.06058,1.62757 6.2307,-0.91592 6.27357,0.85471 0.0719,2.96785 -6.73734,2.29564 -10.54313,2.05183 -13.26933,-0.85008 z m 332.48667,-2.82001 c -0.21297,-0.67975 -0.58597,-4.49347 -0.8289,-8.47493 -0.51945,-8.51354 0.13575,-9.42765 6.7575,-9.42765 7.99293,0 14.61404,5.72013 13.18976,11.39492 -0.44444,1.77079 -1.99505,3.21683 -4.90376,4.57308 -5.43171,2.53265 -13.6757,3.65464 -14.2146,1.93458 z m 10.50064,-4.75623 c 2.92747,-1.49349 3.96016,-2.63696 3.96016,-4.38499 0,-2.77818 -3.758,-5.59469 -7.46483,-5.59469 -2.43188,0 -2.53517,0.24446 -2.53517,6 0,3.48658 0.43558,6 1.03984,6 0.57191,0 2.82191,-0.90915 5,-2.02032 z m 30.03689,3.43143 c -3.68911,-3.10417 -4.03616,-6.92169 -0.98221,-10.80415 4.0474,-5.14543 13.75115,-8.25756 17.78359,-5.70345 2.07141,1.31201 0.33475,3.18802 -2.33169,2.51878 -2.3624,-0.59292 -7.53305,1.49197 -10.79642,4.35329 -2.37928,2.08614 -2.27152,6.87494 0.18426,8.18924 2.90142,1.55279 5.02901,1.2655 10.91286,-1.47358 5.88789,-2.74097 8.30927,-2.42652 5.47038,0.71042 -2.93556,3.24375 -6.8853,4.79834 -12.19111,4.79834 -3.89106,0 -5.6423,-0.56323 -8.04966,-2.58889 z M 388.05826,155.78999 c -5.2681,-1.35948 -6.83573,-5.82594 -3.98181,-11.34481 1.54543,-2.98854 4.25753,-4.18438 9.90143,-4.36581 4.45173,-0.1431 4.74669,1.75875 0.38278,2.46808 -6.56411,1.06697 -9.28062,5.45468 -5.63449,9.10082 2.14725,2.14724 5.57282,2.03044 12.58144,-0.42898 2.41924,-0.84895 3.5386,-0.85099 4.38159,-0.008 2.26298,2.26298 -12.12514,5.99953 -17.63094,4.5787 z M 52.930899,153.43815 c -4.419125,-1.34442 -6.109561,-5.63207 -3.902877,-9.89933 0.895033,-1.7308 3.067986,-4.02533 4.828785,-5.09895 3.928445,-2.39532 10.701451,-2.67409 10.701451,-0.44047 0,1.11989 -0.655166,1.35462 -2.493279,0.89328 -1.980534,-0.49708 -3.229467,0.11042 -6.073079,2.95403 -3.856472,3.85647 -4.280895,7.08485 -1.186436,9.02464 1.32723,0.83198 2.889634,0.65365 6.5,-0.74192 6.533702,-2.52556 10.252794,-3.14452 10.252794,-1.70635 0,1.44498 -7.980205,5.06573 -12.307401,5.58407 -1.755929,0.21034 -4.599911,-0.0457 -6.319958,-0.569 z M 493.99298,150.3832 c 0.41137,-1.32157 1.04434,-5.55285 1.4066,-9.40285 l 0.65868,-7 4.62824,0.0552 c 7.22821,0.0862 13.86883,5.7279 12.35529,10.49665 -0.80574,2.53866 -8.93561,6.52912 -15.39014,7.55408 -4.31051,0.6845 -4.39029,0.64736 -3.65867,-1.70309 z m 14.56528,-7.76819 c 0,-2.0998 -2.54233,-4.607 -5.62026,-5.54259 -1.93499,-0.58817 -2.16556,-0.18349 -2.63874,4.63172 -0.28517,2.90192 -0.31907,5.61036 -0.0753,6.01877 0.82834,1.38797 8.33432,-3.21226 8.33432,-5.1079 z m -339.17682,5.13027 c -4.4894,-0.64344 -5.15567,-2.34301 -3.9138,-9.98357 0.60622,-3.72975 1.21211,-7.90636 1.34642,-9.28136 0.20979,-2.14768 0.66591,-2.45021 3.23658,-2.14667 10.19517,1.2038 18.47774,12.3194 13.14968,17.64747 -2.63834,2.63834 -9.20108,4.42597 -13.81888,3.76413 z m 9.93633,-5.9486 c 1.84369,-2.51847 0.73397,-6.29508 -2.81098,-9.56633 -4.79743,-4.42703 -5.38441,-3.85834 -6.53752,6.33377 l -0.70358,6.21881 4.3612,-0.58496 c 2.52138,-0.33819 4.92214,-1.3512 5.69088,-2.40129 z m -94.730552,2.7107 c -0.809071,-0.50506 -1.109185,-1.28025 -0.666918,-1.72266 0.964316,-0.96462 55.32502,-2.6396 57.57092,-1.7739 3.98445,1.53584 -2.86495,2.39326 -23.49499,2.94113 -12.06588,0.32043 -24.187972,0.7831 -26.937972,1.02815 -2.75,0.24506 -5.661968,0.0323 -6.47104,-0.47272 z m 337.401972,-0.13879 c -0.36118,-0.58438 -0.18917,-1.53 0.38221,-2.10139 1.50901,-1.50901 45.67961,-2.41662 46.5816,-0.95715 1.02396,1.65681 -2.00924,2.01498 -21.89474,2.58538 -9.9,0.28398 -19.4428,0.74567 -21.20621,1.02599 -1.76342,0.28032 -3.50171,0.0316 -3.86286,-0.55283 z M 81.558258,126.13257 c 0,-1.55957 8.408389,-9.5973 18.789742,-17.96146 3.96564,-3.19508 7.21026,-6.38679 7.21026,-7.09269 0,-0.7059 -4.3875,-3.690364 -9.750002,-6.632134 -5.3625,-2.94177 -12.45,-7.17367 -15.75,-9.40423 -5.209506,-3.52125 -5.690785,-4.09975 -3.652997,-4.3909 1.392604,-0.19898 4.645772,1.07341 8,3.12897 3.109148,1.90537 8.577997,4.92439 12.152997,6.70892 3.575002,1.78454 7.694472,4.08762 9.154372,5.11796 1.4599,1.03033 3.1904,1.87334 3.84554,1.87334 0.65514,0 5.53568,-3.50874 10.84563,-7.79719 19.17586,-15.48692 27.15446,-20.10076 27.15446,-15.70281 0,0.825 -0.5625,1.51661 -1.25,1.53692 -0.6875,0.0203 -5.3,3.16933 -10.25,6.99782 -4.95,3.82849 -11.8033,9.09937 -15.22956,11.71307 -3.42626,2.6137 -6.23876,5.20268 -6.25,5.75327 -0.0112,0.550594 1.72248,1.900594 3.85271,3.000004 20.35019,10.50266 30.12685,15.9103 30.12685,16.66368 0,3.11003 -6.29187,0.44944 -32.52448,-13.75339 l -5.02448,-2.72035 -9.97552,8.06069 c -5.486542,4.43338 -11.754348,9.9029 -13.92847,12.15449 -3.902449,4.0415 -7.547052,5.3676 -7.547052,2.74602 z M 389.48245,115.73035 c -0.0417,-0.4125 -0.22903,-6.825 -0.41634,-14.25 -0.18729,-7.425004 -1.04291,-17.047104 -1.90136,-21.382454 -0.85845,-4.33535 -1.31954,-8.27285 -1.02463,-8.75 0.91007,-1.47252 3.29833,-0.95991 4.30679,0.9244 1.98534,3.70966 3.7692,24.4792 3.30308,38.458054 -0.16737,5.01942 -0.44584,5.75 -2.19173,5.75 -1.10001,0 -2.03412,-0.3375 -2.07581,-0.75 z m -98.39788,-5.20741 c -0.32544,-0.52658 0.7186,-1.63501 2.32009,-2.46317 6.29172,-3.25357 16.88407,-14.579424 13.63522,-14.579424 -0.28511,0 -3.99761,-0.92266 -8.25,-2.05036 -4.25239,-1.12769 -9.41913,-2.49504 -11.48163,-3.03854 -4.6523,-1.22596 -5.0509,-3.32755 -0.5,-2.63616 4.01651,0.61021 21.43593,5.37881 24.5,6.70692 1.2375,0.53639 2.25,1.43361 2.25,1.99382 0,1.96297 -7.55554,9.399524 -13.40503,13.193904 -6.05073,3.92492 -8.03083,4.55223 -9.06865,2.87301 z m -39.52632,-1.40986 c 0,-1.04998 2.95887,-1.52217 12.75,-2.03472 7.0125,-0.3671 15.16567,-0.92384 18.11816,-1.23721 4.16537,-0.4421 5.27033,-0.27624 4.93148,0.74026 -1.05421,3.16264 -35.79964,5.61975 -35.79964,2.53167 z m 241.52072,-0.80882 c -0.26028,-0.72815 -1.36356,-9.250344 -2.45173,-18.938204 -1.08819,-9.68786 -2.05215,-18.01286 -2.14216,-18.5 -0.63696,-3.44711 1.80058,-4.62402 4.02522,-1.9435 0.6583,0.79321 1.89657,8.78071 2.75172,17.75 2.11834,22.218644 2.1183,22.193664 0.0432,22.606694 -0.96418,0.1919 -1.96599,-0.24685 -2.22626,-0.97499 z M 251.75122,98.387626 c 0.52594,-1.5935 7.948,-2.62917 20.05703,-2.79875 6.27047,-0.0878 7.75,0.17783 7.75,1.39147 0,1.19475 -1.47537,1.50144 -7.25,1.50711 -3.9875,0.004 -10.34859,0.29968 -14.13576,0.65728 -5.67104,0.53547 -6.80381,0.40191 -6.42127,-0.75711 z M 50.558258,69.999766 c 0,-0.26432 1.504309,-2.85183 3.342909,-5.75 3.376718,-5.32272 6.657091,-13.64477 6.657091,-16.88854 0,-0.96957 0.4407,-2.03522 0.979333,-2.36811 2.463702,-1.52265 4.722335,1.78778 7.949342,11.6512 1.859895,5.68482 3.584955,10.89853 3.833465,11.58603 0.269598,0.74583 -0.392563,1.25 -1.641731,1.25 -1.447432,0 -2.544906,-1.0802 -3.555962,-3.5 -0.804317,-1.925 -1.868205,-3.5 -2.364197,-3.5 -2.7385,0 -7.163994,2.45968 -9.074269,5.04347 -1.202221,1.62609 -3.072384,2.95653 -4.155918,2.95653 -1.083535,0 -1.970063,-0.21626 -1.970063,-0.48058 z m 14.984687,-10.26942 c -0.03455,-1.69232 -1.835933,-3.45997 -2.872884,-2.8191 -1.85024,1.14351 -1.246615,3.5691 0.888197,3.5691 1.1,0 1.993109,-0.3375 1.984687,-0.75 z m 96.515315,1.25852 c -0.55,-0.18347 -2.15822,-0.58662 -3.57381,-0.89588 -2.53827,-0.55454 -2.57402,-0.69041 -2.58895,-9.83747 -0.008,-5.10135 -0.2001,-9.95017 -0.42618,-10.77517 -0.32018,-1.16835 0.73854,-1.56644 4.78843,-1.80051 4.18307,-0.24176 5.60482,0.10481 7.27292,1.77292 1.66216,1.66216 1.86115,2.47006 1.00324,4.07308 -0.90405,1.68923 -0.51951,2.51901 2.47708,5.34516 4.03984,3.81005 4.85477,8.89633 1.79727,11.2173 -1.57428,1.19505 -8.20262,1.75033 -10.75,0.90057 z m 7.46017,-3.96053 c 2.3614,-2.84532 -1.20391,-8.05259 -5.96017,-8.70504 -2.36204,-0.32403 -2.51668,-0.0533 -2.80226,4.90705 l -0.30226,5.25 h 3.92982 c 2.21549,0 4.4555,-0.63342 5.13487,-1.45201 z m -5.925,-14.09037 c 0.92413,-1.11351 0.97687,-1.84558 0.18967,-2.63279 -1.71337,-1.71336 -4.14994,-0.25443 -3.53059,2.114 0.64276,2.4579 1.6073,2.60768 3.34092,0.51879 z m -79.053307,13.53117 c -0.783169,-0.48403 -1.12519,-1.1788 -0.760047,-1.54394 1.513435,-1.51344 46.353734,-5.03173 49.876994,-3.91349 4.01913,1.27562 0.53743,2.2969 -9.84833,2.88878 -10.73393,0.61173 -30.479282,2.32318 -35.297577,3.05947 -1.400903,0.21408 -3.18787,-0.0068 -3.97104,-0.49082 z m 307.018137,-7.48879 c -1.52202,-4.61176 -4.97001,-4.75115 -8.97801,-0.36294 -1.75356,1.9199 -3.45223,2.91182 -4.37808,2.55654 -1.26544,-0.4856 -1.04921,-1.4482 1.32244,-5.88706 1.55938,-2.9186 3.15679,-7.33154 3.54979,-9.80654 0.90422,-5.69446 1.05786,-5.92416 3.53005,-5.27767 2.33006,0.60933 4.88554,5.16966 7.883,14.06751 2.54723,7.56132 2.55896,8.21016 0.14835,8.21016 -1.31038,0 -2.2902,-1.1143 -3.07754,-3.5 z m -3,-7.44098 c 0,-0.51755 -0.45001,-1.2191 -1,-1.55902 -0.55001,-0.33992 -1,0.0835 -1,0.94098 0,0.85746 0.44999,1.55902 1,1.55902 0.54999,0 1,-0.42344 1,-0.94098 z m 96.70985,3.67194 c -2.77604,-1.1395 -2.78693,-1.18084 -2.15512,-8.18812 0.34927,-3.87356 0.7539,-8.39284 0.89917,-10.04284 0.24332,-2.76337 0.59883,-3.02465 4.50733,-3.31249 5.70579,-0.42021 8.26143,1.84678 7.88946,6.99842 -0.21394,2.96316 0.31209,4.37455 2.46983,6.62674 1.61591,1.68665 2.501,3.48883 2.15556,4.38906 -1.28538,3.34964 -10.93913,5.51062 -15.76623,3.52923 z m 10.15567,-4.23265 c 1.14485,-1.09058 0.95078,-1.57256 -1.20083,-2.98235 -3.78284,-2.47861 -6.10295,-1.64247 -6.48514,2.33715 -0.31624,3.29308 -0.27699,3.32764 3,2.64137 1.82624,-0.38245 3.93493,-1.28073 4.68597,-1.99617 z m -3.36836,-10.48936 c 0.75582,-2.38141 -0.0789,-4.00895 -2.05619,-4.00895 -0.93442,0 -1.44097,1.05461 -1.44097,3 0,3.45627 2.4922,4.17529 3.49716,1.00895 z m -71.92735,9.66576 c -3.04586,-2.22719 -0.59151,-2.81265 15.75064,-3.75713 8.34875,-0.4825 16.75454,-1.09709 18.67954,-1.36573 3.881,-0.54162 7.10298,0.79457 5.49164,2.27744 -0.54539,0.50192 -8.71991,1.42165 -18.16557,2.04384 -9.44568,0.6222 -17.78359,1.3652 -18.52869,1.65113 -0.74513,0.28593 -2.19753,-0.0964 -3.22756,-0.84955 z"
     style="fill:#000000;" />
  <path
     id="path1011"
     d="m 87.708126,120.55755 c 2.754198,-2.82055 8.495122,-8.00147 12.757614,-11.51315 4.26248,-3.51169 7.75421,-7.06874 7.7594,-7.90457 0.005,-0.83582 -4.75415,-4.312377 -10.576302,-7.72567 -5.822152,-3.413292 -10.29935,-6.492367 -9.949329,-6.84239 0.350021,-0.350021 5.959748,2.208061 12.466061,5.684625 l 11.82966,6.321027 14.89598,-11.283413 c 8.19279,-6.205879 16.27894,-11.996564 17.96921,-12.86819 5.32872,-2.747877 4.45382,-0.597515 -1.30837,3.215716 -10.28278,6.804824 -27.42275,20.801583 -27.42275,22.393835 0,0.87046 7.11997,5.36473 15.82215,9.98725 8.70218,4.62253 15.22076,8.60505 14.48574,8.85006 -0.73502,0.24501 -8.62998,-3.42375 -17.54434,-8.1528 l -16.20795,-8.59826 -14.029869,11.78211 c -14.864475,12.48299 -19.229989,15.13647 -10.946905,6.65382 z"
     style="opacity:1;fill:#e76f51;fill-opacity:1;fill-rule:evenodd;stroke:#e76f51;stroke-width:2.48653126;stroke-miterlimit:4;stroke-dasharray:none;stroke-dashoffset:0;stroke-opacity:1" />
  <path
     id="path1022"
     d="m 82.149042,84.534517 c -4.171025,-2.852396 -4.864101,-4.066918 -1.823125,-3.194778 2.792109,0.800766 7.363833,3.470726 6.695323,3.910175 -0.309684,0.203572 -0.681466,0.707956 -0.826183,1.120852 -0.158008,0.45082 -1.774323,-0.28273 -4.046015,-1.836249 z"
     style="opacity:1;fill:#e76f51;fill-opacity:1;fill-rule:evenodd;stroke:#e76f51;stroke-width:1.24326563;stroke-miterlimit:4;stroke-dasharray:none;stroke-dashoffset:0;stroke-opacity:1" />
  <path
     id="path1024"
     d=""
     style="opacity:1;fill:#e76f51;fill-opacity:1;fill-rule:evenodd;stroke:#e76f51;stroke-width:1.24326563;stroke-miterlimit:4;stroke-dasharray:none;stroke-dashoffset:0;stroke-opacity:1" />
  <path
     id="path1026"
     d="m 389.91378,115.38978 c -0.13925,-0.4523 -0.42331,-6.44737 -0.63124,-13.32237 -0.21561,-7.128651 -0.94624,-16.272499 -1.70029,-21.27923 -0.72722,-4.828579 -1.15653,-9.047329 -0.95402,-9.375 0.6632,-1.073088 2.21432,-0.625656 3.23586,0.933413 1.53775,2.346904 2.93751,13.88959 3.4074,28.098117 0.30997,9.37276 0.21377,13.24566 -0.35543,14.30921 -0.84817,1.58483 -2.59615,1.95504 -3.00228,0.63586 z"
     style="opacity:1;fill:#e76f51;fill-opacity:1;fill-rule:evenodd;stroke:#e76f51;stroke-width:1.24326563;stroke-miterlimit:4;stroke-dasharray:none;stroke-dashoffset:0;stroke-opacity:1" />
  <path
     id="path1028"
     d="m 493.50337,107.49505 c -0.59963,-1.42235 -4.61091,-34.150236 -4.61091,-37.62022 0,-1.240317 0.34339,-1.688995 1.29264,-1.688995 1.67526,0 2.32513,1.336865 3.23375,6.65226 1.13248,6.624914 3.32,31.219455 2.91464,32.769565 -0.47256,1.80708 -2.04724,1.74442 -2.83012,-0.11261 z"
     style="opacity:1;fill:#e76f51;fill-opacity:1;fill-rule:evenodd;stroke:#e76f51;stroke-width:1.24326563;stroke-miterlimit:4;stroke-dasharray:none;stroke-dashoffset:0;stroke-opacity:1" />
  <path
     id="path1030"
     d="m 422.58964,212.66063 c -1.91064,-0.48087 -3.65168,-1.0521 -3.86898,-1.2694 -0.2173,-0.2173 -0.68621,-4.57585 -1.04202,-9.68566 -0.4833,-6.94066 -0.45317,-9.48428 0.11912,-10.05646 1.17809,-1.17787 8.54125,-0.84784 11.39076,0.51055 2.42279,1.15497 2.4671,1.24314 2.4671,4.90876 0,3.6086 0.10933,3.84036 3.28947,6.97268 3.71868,3.66276 4.06467,5.29238 1.6127,7.59589 -1.3738,1.29061 -2.47339,1.6044 -6.08552,1.7366 -2.42482,0.0887 -5.972,-0.23209 -7.88263,-0.71296 z m 11.20414,-3.14064 c 1.59211,-0.81724 1.45719,-1.46631 -0.85128,-4.09552 -2.44024,-2.77928 -7.1621,-5.16903 -9.64922,-4.88351 -1.67476,0.19227 -1.8521,0.47274 -2.03047,3.21138 -0.25381,3.8967 0.71043,6.36327 2.6271,6.72029 2.07864,0.38719 8.49628,-0.23011 9.90387,-0.95264 z m -7.12657,-12.59475 c 0.65127,-0.47621 1.07386,-1.43839 0.9391,-2.13815 -0.19868,-1.03165 -0.80161,-1.27231 -3.18753,-1.27231 -3.02693,0 -3.93288,0.99279 -3.03682,3.32791 0.45515,1.18609 3.70662,1.23688 5.28525,0.0825 z"
     style="opacity:1;fill:#000001;fill-opacity:1;fill-rule:evenodd;stroke:#000002;stroke-width:1.24326563;stroke-miterlimit:4;stroke-dasharray:none;stroke-dashoffset:0;stroke-opacity:1" />
  <path
     id="path1032"
     d="m 458.30962,206.26749 c -0.21398,-0.86268 -0.45162,-4.40548 -0.5281,-7.8729 -0.17553,-7.95795 0.18897,-8.49823 5.73338,-8.49823 9.62211,0 17.00869,8.02816 11.81515,12.84137 -2.28283,2.11565 -8.24213,4.31128 -12.88317,4.74664 -3.53449,0.33156 -3.7704,0.26217 -4.13726,-1.21688 z m 9.26539,-2.94313 c 4.63749,-2.19388 5.99886,-4.12394 4.85563,-6.88396 -1.19298,-2.8801 -6.93077,-5.39046 -9.1126,-3.98688 -1.46195,0.94048 -1.16122,12.57442 0.32504,12.57442 0.18198,0 1.95134,-0.76661 3.93193,-1.70358 z"
     style="opacity:1;fill:#e76f51;fill-opacity:1;fill-rule:evenodd;stroke:#e76f51;stroke-width:1.24326563;stroke-miterlimit:4;stroke-dasharray:none;stroke-dashoffset:0;stroke-opacity:1" />
  <path
     style="opacity:1;fill:#f4a261;fill-opacity:1;fill-rule:evenodd;stroke:#f4a261;stroke-width:3.26042581;stroke-miterlimit:4;stroke-dasharray:none;stroke-dashoffset:0;stroke-opacity:1"
     d=""
     id="path820"
     inkscape:connector-curvature="0" />
  <path
     style="opacity:1;fill:#e76f51;fill-opacity:1;fill-rule:evenodd;stroke:#e76f51;stroke-width:1.74978137;stroke-miterlimit:4;stroke-dasharray:none;stroke-dashoffset:0;stroke-opacity:1"
     d="m 499.02754,205.12678 c -3.22634,-3.22634 -3.44433,-6.29096 -0.696,-9.7849 3.57319,-4.54258 15.16309,-8.02628 16.97093,-5.10114 0.32874,0.53192 -0.53453,0.93458 -2.02869,0.94626 -3.29815,0.0258 -9.49637,2.84594 -11.69812,5.32257 -2.40421,2.70436 -1.71295,6.7502 1.45513,8.51678 2.63444,1.46901 3.31341,1.32171 15.04946,-3.26479 1.85125,-0.72348 1.85125,-0.72304 0.002,1.37993 -2.86103,3.25385 -6.41675,4.69184 -11.60154,4.69184 -4.01194,0 -5.16586,-0.41902 -7.45339,-2.70655 z"
     id="path822"
     inkscape:connector-curvature="0" />
</svg>
