<?xml version="1.0" encoding="UTF-8" standalone="no"?>
<svg
   xmlns:dc="http://purl.org/dc/elements/1.1/"
   xmlns:cc="http://creativecommons.org/ns#"
   xmlns:rdf="http://www.w3.org/1999/02/22-rdf-syntax-ns#"
   xmlns:svg="http://www.w3.org/2000/svg"
   xmlns="http://www.w3.org/2000/svg"
   viewBox="0 0 156 112"
   height="112"
   width="156"
   id="svg2"
   version="1.1">
  <metadata
     id="metadata8">
    <rdf:RDF>
      <cc:Work
         rdf:about="">
        <dc:format>image/svg+xml</dc:format>
        <dc:type
           rdf:resource="http://purl.org/dc/dcmitype/StillImage" />
        <dc:title></dc:title>
      </cc:Work>
    </rdf:RDF>
  </metadata>
  <defs
     id="defs6" />
  <path
     id="path819"
     d="m 73.267648,99.469519 c -3.889951,-1.97102 -5.838835,-3.8594 -8.5,-8.23612 -5.970249,-9.81905 -7.153701,-10.66893 -13.764852,-9.88499 -3.128389,0.37096 -7.449086,1.13149 -9.601548,1.69007 -6.856407,1.77927 -15.496356,0.75834 -20.842363,-2.46282 -5.96119,-3.59183 -7.744069,-6.110812 -7.744069,-10.941394 0,-4.715196 2.046951,-9.754244 5.979131,-14.719025 2.481137,-3.132691 3.839958,-3.914777 7.764175,-4.468763 7.494537,-1.058012 8.026786,-1.388716 9.828664,-6.106867 1.495141,-3.914971 1.553208,-5.375725 0.478516,-12.0377 -1.758535,-10.901094 0.739005,-15.41302 8.53175,-15.41302 1.368472,0 3.607617,-0.733516 4.975879,-1.630036 4.36345,-2.859042 15.400906,-1.455553 24.441885,3.107953 4.125,2.082127 9.381079,5.076375 11.680175,6.653884 2.299097,1.57751 4.880541,2.868199 5.736542,2.868199 0.856002,0 3.024923,-1.595238 4.819825,-3.544974 2.895853,-3.145659 4.200262,-3.707668 11.580092,-4.989304 9.51672,-1.652746 15.39835,-0.845318 20.31353,2.788632 6.86343,5.074355 8.2621,11.493754 5.39162,24.745646 l -1.40796,6.5 5.40473,5.5 c 5.44621,5.542203 8.48145,11.626431 8.48145,17.001296 0,3.927723 -4.29687,13.027203 -7.64776,16.195653 -6.25536,5.91479 -14.14825,7.20985 -23.13168,3.79544 -6.4722,-2.45996 -10.90769,-1.96744 -20.720564,2.3008 -9.674944,4.208251 -15.599909,4.554241 -22.047168,1.28744 z m 20.047168,-4.3182 c 9.878034,-4.31296 15.749554,-4.91954 22.560804,-2.33075 8.75851,3.3289 14.4363,2.56648 20.08772,-2.69741 6.0631,-5.64734 8.54861,-16.307097 5.48325,-23.516388 -0.75252,-1.769834 -3.72644,-5.432442 -6.6087,-8.139128 -5.83006,-5.474927 -5.60314,-4.01561 -2.96682,-19.078753 1.05437,-6.024329 1.00483,-7.519629 -0.35539,-10.728103 -3.01138,-7.103231 -9.19558,-8.963284 -22.2452,-6.690792 -5.19585,0.904818 -6.83215,1.720125 -10.034861,5 -2.143449,2.195091 -4.787744,3.918895 -6.011539,3.918895 -1.201662,0 -4.554442,-1.629999 -7.450623,-3.622221 -2.896181,-1.992221 -8.536948,-5.17569 -12.535039,-7.074375 -5.898024,-2.800959 -8.484462,-3.459165 -13.71138,-3.489319 -4.330033,-0.02498 -7.259847,0.498626 -8.936269,1.59706 -1.371779,0.898825 -3.236025,1.349539 -4.142768,1.001589 -0.906744,-0.34795 -2.825042,0.138181 -4.262884,1.080291 l -2.614259,1.712928 0.658067,10.647024 c 0.563248,9.112937 0.400716,11.149319 -1.128021,14.133112 -2.099043,4.096914 -5.376148,5.97875 -10.447194,5.999169 -2.864967,0.01154 -4.234478,0.696155 -6.297798,3.148272 -6.481538,7.70287 -8.084748,14.634317 -4.4528,19.251591 4.608524,5.858788 12.042537,6.991208 26.401436,4.021728 12.264048,-2.536258 15.361481,-1.16522 22.742137,10.06653 1.797472,2.73536 4.843131,6.03797 6.768131,7.33912 4.521883,3.05645 9.935145,2.62615 19.5,-1.55007 z m 31.733324,-10.95665 c -2.82845,-4.00342 -9.23332,-16.983861 -9.23332,-18.712721 0,-1.516749 5.0133,-5.593058 6.87869,-5.593058 0.58847,0 1.85875,1.4625 2.82284,3.25 3.17049,5.878334 9.08872,21.236629 8.43697,21.894649 -0.35117,0.35455 -2.05249,0.94215 -3.78069,1.30577 -2.68592,0.56513 -3.43003,0.25372 -5.12449,-2.14464 z m -46.42218,-3.04482 c -0.599336,-0.71552 -0.750373,-2.77136 -0.357471,-4.865708 l 0.680368,-3.626673 11.68298,0.754505 c 6.425638,0.414978 15.057443,0.833734 19.181783,0.930569 8.04243,0.188828 8.8939,0.853394 7.61617,5.944297 -0.5578,2.22245 -0.70598,2.23923 -19.164071,2.17091 -13.496586,-0.05 -18.886758,-0.40892 -19.639759,-1.3079 z m 35.18886,-2.76096 c 0,-0.825 -0.64844,-1.5 -1.44098,-1.5 -1.67065,0 -2.79841,1.42728 -1.86517,2.36052 1.19516,1.19516 3.30615,0.64571 3.30615,-0.86052 z m -29.000004,-1 c 0,-0.824999 -0.675,-1.499999 -1.5,-1.499999 -0.825,0 -1.5,0.675 -1.5,1.499999 0,0.825 0.675,1.5 1.5,1.5 0.825,0 1.5,-0.675 1.5,-1.5 z m 6,-0.618033 c 0,-0.55 -0.45,-0.721885 -1,-0.381966 -0.55,0.339919 -1,1.068029 -1,1.618029 0,0.55 0.45,0.72189 1,0.38197 0.55,-0.33992 1,-1.06803 1,-1.618033 z M 100.61923,65.35997 C 100.32832,65.069063 94.105228,64.595777 86.790129,64.308222 71.359429,63.701644 69.56881,63.089706 70.006413,58.57245 l 0.308403,-3.18356 18.5,0.344155 c 10.175,0.189286 18.913064,0.737343 19.417904,1.217904 0.55541,0.528692 0.44083,2.466085 -0.29014,4.905845 -1.03627,3.458768 -1.60521,4.032096 -4.00124,4.032096 -1.53625,0 -3.03121,-0.238014 -3.32211,-0.52892 z m 0.19559,-5.17108 c 0,-2.010992 -0.28908,-2.410928 -1.132787,-1.567217 -0.62303,0.62303 -0.862153,1.83803 -0.531384,2.7 0.915431,2.385576 1.664171,1.875919 1.664171,-1.132783 z M 75.814816,59.266445 c 0,-2.169587 -0.248763,-2.415989 -1.440559,-1.426887 -0.792308,0.657557 -1.194163,1.837657 -0.893011,2.622445 0.901325,2.348815 2.33357,1.615033 2.33357,-1.195558 z m 6,0.422445 c 0,-1.615417 -0.295711,-1.904289 -1.112868,-1.087132 -0.612077,0.612077 -0.810519,1.602077 -0.440983,2.2 1.034392,1.67368 1.553851,1.301643 1.553851,-1.112868 z m 6,0.140983 c 0,-1.132459 -0.45,-1.780902 -1,-1.440983 -0.55,0.339919 -1,1.266476 -1,2.059017 0,0.792541 0.45,1.440983 1,1.440983 0.55,0 1,-0.926558 1,-2.059017 z M 38.831343,62.901356 C 35.650516,60.502054 36.080624,59.661312 47.777324,45.414451 56.260666,35.081537 59.814816,31.966213 59.814816,34.86321 c 0,0.535876 1.35,1.672432 3,2.52568 1.65,0.853248 3,2.155208 3,2.893244 0,1.586998 -12.356383,14.433895 -19.537115,20.312685 -5.000476,4.093837 -5.054639,4.110614 -7.446358,2.306537 z m 2.983473,-3.012466 c 0,-0.55 -0.45,-1 -1,-1 -0.55,0 -1,0.45 -1,1 0,0.55 0.45,1 1,1 0.55,0 1,-0.45 1,-1 z m 8.553851,-7.087132 c 1.030521,-1.667419 -1.287209,-3.57951 -2.666719,-2.2 -1.153924,1.153924 -0.431721,3.287132 1.112868,3.287132 0.485081,0 1.184314,-0.48921 1.553851,-1.087132 z m 3.946149,-4.982506 c 0,-0.771635 -0.7875,-1.554631 -1.75,-1.739991 -1.723738,-0.331962 -2.436342,1.789953 -1.0625,3.163796 1.048207,1.048207 2.8125,0.155048 2.8125,-1.423805 z m 34.5,-2.212907 c -2.475,-0.430399 -5.671875,-0.567274 -7.104167,-0.304166 -3.411227,0.626632 -4.895768,-0.999559 -4.896116,-5.363289 l -2.82e-4,-3.55 10.250282,0.19387 c 5.637656,0.106629 14.525287,0.22602 19.750287,0.265313 11.87042,0.08927 12.50929,0.435748 11.01766,5.975232 l -1.13661,4.221037 -11.69052,-0.327726 C 98.575553,46.536367 91.289816,46.036745 88.814816,45.606345 Z m 6.6,-5.317455 c -0.484047,-1.261407 -0.965565,-1.434435 -1.765565,-0.634435 -0.605,0.605 -0.800496,1.880496 -0.434435,2.834435 0.484047,1.261407 0.965565,1.434435 1.765565,0.634435 0.605,-0.605 0.800496,-1.880496 0.434435,-2.834435 z m 6.400004,1.659017 c 0,-1.067541 -0.41157,-2.195344 -0.91459,-2.506231 -1.096028,-0.67738 -1.977439,1.439688 -1.331118,3.197214 0.714388,1.942609 2.245708,1.471436 2.245708,-0.690983 z M 113.4771,40.63889 c -0.27741,-0.6875 -0.50439,-0.125 -0.50439,1.25 0,1.375 0.22698,1.9375 0.50439,1.25 0.27741,-0.6875 0.27741,-1.8125 0,-2.5 z M 82.734446,39.839219 c -1.432975,-0.885627 -2.91963,-0.358427 -2.91963,1.035364 0,1.195758 3.412169,1.799032 3.871885,0.684552 0.204536,-0.495854 -0.223978,-1.269817 -0.952255,-1.719916 z m 7.08037,2.049671 c 0,-0.55 -0.476558,-1 -1.059017,-1 -0.582459,0 -0.780902,0.45 -0.440983,1 0.339919,0.55 0.816476,1 1.059017,1 0.242541,0 0.440983,-0.45 0.440983,-1 z"
     style="fill:#000000" />
</svg>
