<?xml version="1.0" encoding="UTF-8" standalone="no"?>
<!-- Created with Inkscape (http://www.inkscape.org/) -->

<svg
   xmlns:dc="http://purl.org/dc/elements/1.1/"
   xmlns:cc="http://creativecommons.org/ns#"
   xmlns:rdf="http://www.w3.org/1999/02/22-rdf-syntax-ns#"
   xmlns:svg="http://www.w3.org/2000/svg"
   xmlns="http://www.w3.org/2000/svg"
   xmlns:sodipodi="http://sodipodi.sourceforge.net/DTD/sodipodi-0.dtd"
   xmlns:inkscape="http://www.inkscape.org/namespaces/inkscape"
   version="1.1"
   id="svg2"
   width="147"
   height="159"
   viewBox="0 0 147 159"
   sodipodi:docname="logo.svg"
   inkscape:version="0.92.2 5c3e80d, 2017-08-06">
  <metadata
     id="metadata8">
    <rdf:RDF>
      <cc:Work
         rdf:about="">
        <dc:format>image/svg+xml</dc:format>
        <dc:type
           rdf:resource="http://purl.org/dc/dcmitype/StillImage" />
        <dc:title></dc:title>
      </cc:Work>
    </rdf:RDF>
  </metadata>
  <defs
     id="defs6" />
  <sodipodi:namedview
     pagecolor="#ffffff"
     bordercolor="#666666"
     borderopacity="1"
     objecttolerance="10"
     gridtolerance="10"
     guidetolerance="10"
     inkscape:pageopacity="0"
     inkscape:pageshadow="2"
     inkscape:window-width="1189"
     inkscape:window-height="627"
     id="namedview4"
     showgrid="false"
     inkscape:zoom="1.4842767"
     inkscape:cx="78.594086"
     inkscape:cy="52.550847"
     inkscape:window-x="0"
     inkscape:window-y="0"
     inkscape:window-maximized="0"
     inkscape:current-layer="svg2" />
  <path
     style="fill:#000000"
     d="m 31.745072,126.40895 c -11.23155,-3.07928 -15.093922,-6.20457 -18.061069,-14.61436 -2.960583,-8.39118 -0.859967,-22.370031 4.949895,-32.939781 4.583675,-8.338973 14.858533,-20.33574 22.860064,-26.691063 6.567719,-5.216497 29.92492,-20.736962 35.529892,-23.609013 4.691773,-2.404117 20.789479,-2.526453 28.573156,-0.217144 7.02191,2.083303 14.02956,8.150362 17.69011,15.315689 4.80199,9.399634 2.68998,27.767301 -4.64501,40.396445 -2.04694,3.524347 -4.88695,7.798986 -6.31115,9.499189 -1.42419,1.70021 -4.36723,5.21938 -6.54009,7.820378 -2.17286,2.601 -7.868907,7.34997 -12.657877,10.55326 -7.140963,4.77652 -11.488315,6.74254 -24.168032,10.92963 -13.880711,4.58367 -16.317384,5.09631 -23.842123,5.01603 -4.609722,-0.0492 -10.629716,-0.70584 -13.377766,-1.45926 z m 34.186639,-7.30183 C 83.559924,113.10334 89.592223,109.60014 99.766913,99.457632 112.88266,86.383375 117.33688,78.694313 120.19494,64.193934 122.85381,50.704138 121.36582,44.281923 113.83704,36.753148 109.08871,32.004816 103.79455,30.692104 91.090293,31.112976 81.273548,31.43819 80.378189,31.649878 75.214177,34.866529 47.20856,52.311165 35.790694,62.285455 24.74179,78.957627 c -5.303655,8.002915 -7.506981,15.201155 -7.478302,24.431503 0.04858,15.63401 5.949567,20.19159 26.478038,20.45012 7.085314,0.0892 9.622446,-0.45183 22.190185,-4.73213 z m -20.447329,-6.94223 c -3.656788,-1.14583 -8.816093,-5.78815 -10.59204,-9.53068 -2.488097,-5.243278 -2.023331,-9.261988 2.035677,-17.601989 4.211974,-8.654293 15.46685,-20.711882 26.021651,-27.877551 7.949117,-5.396667 9.947847,-6.115404 18.596868,-6.687376 8.694265,-0.574965 13.758145,0.680754 17.984145,4.45963 3.159777,2.82546 3.210457,3.011531 3.186887,11.70091 -0.021,7.747095 -0.37543,9.504196 -2.890387,14.329793 -5.72879,10.992142 -15.358273,19.510413 -30.085657,26.613843 -9.210243,4.44237 -18.889619,6.27529 -24.257144,4.59342 z m 12.825643,-4.81878 c 7.104728,-2.10797 14.046332,-5.67148 20.875776,-10.716678 12.194772,-9.008816 18.323342,-18.319429 19.540642,-29.686424 0.61294,-5.723559 0.44361,-6.806529 -1.43843,-9.199143 -2.77868,-3.532522 -7.72803,-4.426528 -14.912773,-2.69371 -3.098543,0.747308 -6.452695,1.256933 -7.453671,1.132501 -2.56827,-0.319263 -13.254204,7.565447 -22.49924,16.601262 -12.752533,12.463936 -17.375021,24.744774 -11.965277,31.788852 1.218539,1.58667 2.681039,3.21547 3.25,3.61955 1.766189,1.25435 8.920495,0.83977 14.602973,-0.84621 z M 56.491526,94.423292 c -4.968214,-3.486733 -1.095461,-13.155245 8.598428,-21.466387 5.342032,-4.580039 9.716855,-5.796052 13.804284,-3.836998 3.165741,1.5173 3.828775,3.457636 2.89052,8.458965 -0.797762,4.252438 -4.932362,9.0485 -11.784808,13.670167 -6.492755,4.379073 -10.462505,5.311903 -13.508424,3.174253 z m 8.360453,-5.065073 c 6.008983,-4.015836 10.485756,-8.568597 12.077193,-12.282188 4.228302,-9.86667 -8.626724,-3.520574 -15.855595,7.827377 -4.718789,7.407601 -3.243177,9.147374 3.778402,4.454811 z"
     id="path817"
     inkscape:connector-curvature="0" />
</svg>
