<?xml version="1.0" encoding="UTF-8" standalone="no"?>
<svg
   xmlns:dc="http://purl.org/dc/elements/1.1/"
   xmlns:cc="http://creativecommons.org/ns#"
   xmlns:rdf="http://www.w3.org/1999/02/22-rdf-syntax-ns#"
   xmlns:svg="http://www.w3.org/2000/svg"
   xmlns="http://www.w3.org/2000/svg"
   xmlns:sodipodi="http://sodipodi.sourceforge.net/DTD/sodipodi-0.dtd"
   xmlns:inkscape="http://www.inkscape.org/namespaces/inkscape"
   viewBox="0 0 191 183"
   height="183"
   width="191"
   id="svg2"
   version="1.1"
   sodipodi:docname="logo.svg"
   inkscape:version="0.92.2 5c3e80d, 2017-08-06">
  <sodipodi:namedview
     pagecolor="#ffffff"
     bordercolor="#666666"
     borderopacity="1"
     objecttolerance="10"
     gridtolerance="10"
     guidetolerance="10"
     inkscape:pageopacity="0"
     inkscape:pageshadow="2"
     inkscape:window-width="1239"
     inkscape:window-height="521"
     id="namedview9"
     showgrid="false"
     inkscape:zoom="1.2896175"
     inkscape:cx="-5.3050847"
     inkscape:cy="91.5"
     inkscape:window-x="0"
     inkscape:window-y="0"
     inkscape:window-maximized="0"
     inkscape:current-layer="svg2" />
  <metadata
     id="metadata8">
    <rdf:RDF>
      <cc:Work
         rdf:about="">
        <dc:format>image/svg+xml</dc:format>
        <dc:type
           rdf:resource="http://purl.org/dc/dcmitype/StillImage" />
        <dc:title />
      </cc:Work>
    </rdf:RDF>
  </metadata>
  <defs
     id="defs6" />
  <path
     id="path817"
     d="m 58.937252,164.09521 -7.160205,-0.95049 -0.270092,-11.16544 c -0.445083,-18.39943 -0.01324,-85.89503 0.553185,-86.46146 0.289211,-0.28921 3.79092,-0.61297 7.781578,-0.71947 3.990657,-0.10649 12.65574,-0.70006 19.25574,-1.31904 24.869942,-2.33239 76.801022,-5.2414 77.660452,-4.350275 0.36324,0.376643 0.19547,3.159805 -0.37283,6.184805 -0.58989,3.13992 -1.1055,23.82612 -1.2016,48.20782 -0.0926,23.4893 -0.49481,43.0343 -0.89384,43.43333 -2.58361,2.58361 -2.88031,-3.01997 -2.47762,-46.79247 0.22946,-24.94177 0.61255,-46.02368 0.85132,-46.84868 0.36139,-1.24871 -0.73858,-1.45592 -6.56588,-1.23687 -11.33509,0.42609 -38.51357,2.22419 -60.000002,3.96953 -11,0.89353 -22.530704,1.59704 -25.623788,1.56336 l -5.623787,-0.0612 0.123787,45.83273 c 0.08776,32.4933 0.45154,46.16043 1.249906,46.95873 0.667945,0.66786 5.34684,1.18806 11.5,1.27855 10.718608,0.15762 59.938884,-1.70125 77.123884,-2.91267 8.25521,-0.58195 9.75,-0.4602 9.75,0.79418 0,1.91529 -17.59252,3.36903 -45,3.71849 -10.725002,0.13677 -23.100002,0.66071 -27.500002,1.16434 -9.304559,1.06501 -13.348019,1.01477 -23.160206,-0.28776 z M 35.328057,151.56384 c -1.954521,-3.1625 -5.823779,-8.34117 -8.598359,-11.50816 -5.41268,-6.17821 -7.11488,-11.03725 -5.15161,-14.70564 0.64004,-1.19592 3.38123,-4.62307 6.09153,-7.61589 3.78747,-4.18225 4.9243,-6.19113 4.91253,-8.6809 -0.0215,-4.54865 -0.99067,-5.63599 -6.50178,-7.29459 -2.66074,-0.80077 -5.65788,-2.19818 -6.66031,-3.10537 -3.9808,-3.60257 -0.90747,-14.2072 6.68956,-23.08263 3.79633,-4.43515 11.169355,-7.65474 16.205309,-7.07638 l 2.782531,0.31956 -0.115854,42.27303 c -0.107195,39.11354 -0.249574,42.42079 -1.904987,44.25 -2.736753,3.02408 -3.896867,2.45918 -7.74856,-3.77303 z m 6.142825,-48.5 C 41.588123,68.04146 41.961633,69.88136 35.299716,72.66488 27.646258,75.8627 18.794468,91.07641 21.569948,96.26244 c 0.58908,1.1007 3.32897,2.57853 6.47757,3.49386 3.18205,0.92504 6.101391,2.50676 7.003307,3.79442 3.030199,4.32622 1.431986,10.74476 -3.920757,15.74606 -6.98954,6.53063 -7.97333,12.4014 -2.87247,17.14148 1.40602,1.30657 4.645176,5.29506 7.198129,8.8633 l 4.641731,6.48773 0.633569,-8.48773 c 0.348463,-4.66824 0.681398,-22.77522 0.739855,-40.23772 z m 82.205038,40.66257 c -1.91528,-1.6116 -5.55073,-3.10542 -9.63948,-3.9609 -4.45862,-0.93287 -8.11114,-2.50881 -11.38572,-4.91257 -4.278665,-3.14083 -5.509477,-3.5391 -10.937239,-3.5391 -7.854487,0 -10.116023,-1.92976 -10.116023,-8.63197 0,-2.97283 -0.758756,-5.85966 -2.118302,-8.05945 -1.581541,-2.55898 -1.969662,-4.36264 -1.531701,-7.11803 0.703648,-4.42695 0.555805,-4.66203 -6.051469,-9.62248 -2.860809,-2.14776 -6.528786,-5.75328 -8.15106,-8.01225 -2.93604,-4.08837 -5.804564,-12.23206 -4.69828,-13.33834 0.319351,-0.31935 3.161427,-0.46985 6.315725,-0.33443 7.658905,0.32879 14.648069,3.64198 22.063327,10.45905 3.318358,3.05066 7.838445,6.46753 10.044637,7.59305 4.440065,2.26515 8.613935,7.13215 9.638735,11.23937 0.36702,1.47099 2.10006,4.39599 3.85119,6.5 1.75113,2.10401 4.43739,5.51773 5.96948,7.58603 1.53208,2.06831 6.06165,7.03661 10.06571,11.04067 7.66424,7.66424 9.71835,11.7253 7.203,14.24065 -2.27772,2.27772 -7.0869,1.76159 -10.52253,-1.1293 z m 8.92154,-0.27302 c 0,-1.87477 -5.45414,-8.95026 -11.31815,-14.68268 -7.8549,-7.67863 -15.31772,-17.44148 -17.8518,-23.35368 -2.45598,-5.73 -4.377894,-7.88743 -8.596659,-9.65014 C 93.011885,95.00688 88.937688,91.91847 85.77708,88.90376 79.467336,82.88528 70.903224,78.33881 65.847458,78.32361 c -3.855895,-0.0116 -4.127528,1.37979 -1.323646,6.78007 2.511674,4.83749 6.447349,9.00238 12.323646,13.04138 4.703503,3.2329 4.75,3.31917 4.75,8.81245 0,3.98983 0.575655,6.35602 2.050063,8.42664 1.505713,2.11458 1.889192,3.74874 1.444207,6.15437 -0.979457,5.29504 1.151155,7.1798 8.294406,7.33729 5.225626,0.11522 6.777706,0.65076 12.007786,4.14327 4.23555,2.82839 7.56426,4.2176 11.29018,4.71187 3.7672,0.49973 6.24515,1.54503 8.63335,3.6419 3.16759,2.78118 7.28001,3.95646 7.28001,2.08054 z M 52.92102,57.714646 C 51.725706,54.599708 53.475288,35.833617 55.597583,29.005703 59.222751,17.342705 69.803257,9.5608868 78.494971,12.164988 c 5.666004,1.697576 8.28868,4.211252 12.139506,11.63498 4.361853,8.408901 8.944913,13.832937 14.379043,17.017548 5.61667,3.291589 20.29379,6.290879 34.86887,7.125503 6.48172,0.371168 11.97251,0.97835 12.20177,1.349294 0.22925,0.370944 0.16105,1.652538 -0.15157,2.847986 -0.5433,2.077588 -1.10403,2.175452 -12.70176,2.216835 -6.67335,0.02381 -18.20837,0.503715 -25.63337,1.066452 -7.425,0.562736 -22.597202,1.194233 -33.716003,1.403326 -11.462997,0.215566 -21.068205,0.836255 -22.184258,1.433548 -2.742415,1.467696 -4.061362,1.316969 -4.776179,-0.545814 z m 39.676438,-4.984439 c 26.099532,-0.728447 39.706492,-1.72767 36.000002,-2.64365 -1.375,-0.339802 -6.325,-1.36233 -11,-2.272285 C 101.66547,44.713228 95.61786,40.30984 87.848314,26.153326 80.919792,13.529202 76.125952,11.675992 67.173762,18.160925 60.364659,23.093413 56.64276,33.282124 56.613079,47.070822 l -0.01562,7.256982 6.75,-0.484807 c 3.7125,-0.266644 16.875,-0.7674 29.25,-1.11279 z"
     style="fill:#000000" />
  <path
     id="path847"
     d="m 56.706748,49.877131 c 0,-10.140321 2.002197,-19.754609 5.278027,-25.34439 2.898553,-4.946008 9.478549,-9.526921 13.68441,-9.526921 4.114057,0 6.930783,2.853508 12.989748,13.159377 7.903582,13.44343 13.105867,16.782282 32.053637,20.572184 4.29238,0.858554 7.73887,1.626451 7.65888,1.706438 -0.46692,0.466925 -17.50639,1.404496 -38.492106,2.11797 -13.269039,0.451122 -26.161116,0.978721 -28.64906,1.172441 l -4.523536,0.35222 z"
     style="opacity:1;fill:#f4a261;fill-opacity:1;fill-rule:evenodd;stroke:#f4a261;stroke-width:1.03617144;stroke-miterlimit:4;stroke-dasharray:none;stroke-dashoffset:0;stroke-opacity:1" />
  <path
     id="path857"
     d="m 38.27362,148.62196 c -1.018653,-1.54096 -5.661301,-7.49487 -11.038394,-14.15606 -3.234895,-4.00741 -2.17687,-8.14087 3.701075,-14.45922 5.377869,-5.78081 6.968689,-10.27272 5.240611,-14.79762 -0.839996,-2.1995 -1.300385,-2.61443 -4.594917,-4.14116 -2.013762,-0.93321 -5.018445,-2.358622 -6.677075,-3.167587 l -3.015691,-1.470848 0.002,-3.34412 c 0.0039,-6.751097 6.75423,-16.577642 13.755671,-20.02444 2.46543,-1.213727 3.73555,-1.577257 4.130568,-1.182239 1.077021,1.077022 1.540844,8.12455 1.543603,23.454185 0.0036,19.942799 -0.887414,53.242699 -1.451585,54.250819 -0.341713,0.6106 -0.698628,0.39551 -1.595819,-0.96171 z"
     style="opacity:0.9;fill:#2a9d8f;fill-opacity:1;fill-rule:evenodd;stroke:#2a9d8f;stroke-width:1.03617144;stroke-miterlimit:4;stroke-dasharray:none;stroke-dashoffset:0;stroke-opacity:1" />
  <path
     id="path859"
     d="m 126.23937,141.51724 c -4.29882,-2.90698 -5.63642,-3.49983 -9.01028,-3.99346 -3.50586,-0.51296 -7.26238,-2.00677 -10.90311,-4.33571 -5.59822,-3.58114 -7.220728,-4.17399 -12.685312,-4.63505 -7.326776,-0.61819 -8.138874,-1.28654 -8.174698,-6.72767 -0.02288,-3.47557 -0.260756,-4.48692 -1.588022,-6.75173 -1.213416,-2.07054 -1.60987,-3.52751 -1.780048,-6.54169 -0.415815,-7.36488 -0.192131,-6.9529 -6.360456,-11.714667 -6.077158,-4.691389 -9.401058,-8.527643 -11.655609,-13.45223 -1.679244,-3.667952 -1.284366,-4.755557 1.726604,-4.755557 4.720059,0 12.731697,4.419353 20.781061,11.463181 2.412552,2.111174 6.08488,4.773187 8.160729,5.915585 4.30084,2.366874 5.192791,3.418234 8.842511,10.422838 3.46462,6.64938 8.34554,13.06863 16.12033,21.20102 7.45207,7.79483 12.6601,14.35038 12.6601,15.93575 0,1.02513 -3.16393,-0.0223 -6.1338,-2.03061 z"
     style="opacity:0.9;fill:#e76f51;fill-opacity:1;fill-rule:evenodd;stroke:#e76f51;stroke-width:1.03617144;stroke-miterlimit:4;stroke-dasharray:none;stroke-dashoffset:0;stroke-opacity:1" />
</svg>
