<?xml version="1.0" encoding="UTF-8" standalone="no"?>
<!-- Created with Inkscape (http://www.inkscape.org/) -->

<svg
   xmlns:dc="http://purl.org/dc/elements/1.1/"
   xmlns:cc="http://creativecommons.org/ns#"
   xmlns:rdf="http://www.w3.org/1999/02/22-rdf-syntax-ns#"
   xmlns:svg="http://www.w3.org/2000/svg"
   xmlns="http://www.w3.org/2000/svg"
   xmlns:sodipodi="http://sodipodi.sourceforge.net/DTD/sodipodi-0.dtd"
   xmlns:inkscape="http://www.inkscape.org/namespaces/inkscape"
   version="1.1"
   id="svg2"
   width="593"
   height="300"
   viewBox="0 0 593 300"
   sodipodi:docname="logo.svg"
   inkscape:version="0.92.2 5c3e80d, 2017-08-06">
  <metadata
     id="metadata8">
    <rdf:RDF>
      <cc:Work
         rdf:about="">
        <dc:format>image/svg+xml</dc:format>
        <dc:type
           rdf:resource="http://purl.org/dc/dcmitype/StillImage" />
        <dc:title></dc:title>
      </cc:Work>
    </rdf:RDF>
  </metadata>
  <defs
     id="defs6">
    <filter
       inkscape:collect="always"
       style="color-interpolation-filters:sRGB"
       id="filter889"
       x="-0.71179469"
       width="2.4235894"
       y="-0.83952165"
       height="2.6790433">
      <feGaussianBlur
         inkscape:collect="always"
         stdDeviation="5.3365195"
         id="feGaussianBlur891" />
    </filter>
  </defs>
  <sodipodi:namedview
     pagecolor="#ffffff"
     bordercolor="#666666"
     borderopacity="1"
     objecttolerance="10"
     gridtolerance="10"
     guidetolerance="10"
     inkscape:pageopacity="0"
     inkscape:pageshadow="2"
     inkscape:window-width="913"
     inkscape:window-height="515"
     id="namedview4"
     showgrid="false"
     inkscape:zoom="0.54637437"
     inkscape:cx="296.5"
     inkscape:cy="76.790123"
     inkscape:window-x="0"
     inkscape:window-y="673"
     inkscape:window-maximized="0"
     inkscape:current-layer="svg2" />
  <path
     style="fill:#000000"
     d="m 531.00926,266.7336 c -9.11425,-4.72891 -11.13879,-15.5539 -3.9364,-21.04744 3.48683,-2.65953 4.79673,-2.86537 12.24077,-1.92346 8.54177,1.0808 13.94253,5.86269 12.7506,11.28951 -2.27281,10.34804 -12.59127,16.07277 -21.05497,11.68139 z"
     id="path859" />
  <path
     style="fill:#e9c46a;fill-opacity:1"
     d="m 540.46238,262.82671 c 3.52388,-1.82227 7.30069,-7.72297 6.86853,-10.73105 -0.41107,-2.8613 -8.71674,-6.19478 -13.05874,-5.24112 -3.30798,0.72656 -6.75338,5.55653 -6.75917,9.47542 -0.005,3.32467 2.45593,6.72812 5.25506,7.26793 4.09014,0.78878 4.81894,0.71574 7.69432,-0.77118 z"
     id="path857" />
  <path
     style="fill:#000000"
     d="m 492.50926,247.3391 c -4.675,-2.08185 -15.925,-7.63349 -25,-12.33699 -17.90554,-9.28029 -26.25395,-12.36808 -53,-19.60284 -15.17079,-4.10368 -17.54103,-5.01265 -17.8083,-6.82937 -0.19828,-1.34787 0.36065,-2.30796 1.56643,-2.69066 1.94741,-0.61809 33.13892,7.55252 46.24187,12.11303 4.125,1.43572 14.025,5.93271 22,9.99332 7.975,4.0606 19.45,9.67328 25.5,12.47261 12.98332,6.00736 13.4473,6.32979 12.78013,8.88104 -0.69944,2.67467 -2.40689,2.39656 -12.28013,-2.00014 z"
     id="path855" />
  <path
     style="fill:#000000"
     d="m 169.92445,225.88106 c -1.69665,-0.73872 -4.10297,-2.63361 -5.34738,-4.21086 -1.86662,-2.36589 -2.15713,-3.64243 -1.66007,-7.29465 0.98466,-7.23492 2.83943,-8.34581 16.22598,-9.71834 6.26061,-0.6419 10.62368,1.30854 12.93785,5.78367 3.46663,6.70372 -0.26889,12.50635 -9.8906,15.36369 -6.10641,1.81341 -8.24589,1.82675 -12.26578,0.0765 z"
     id="path853" />
  <path
     style="fill:#2a9d8f;fill-opacity:1"
     d="m 182.49521,220.44967 c 1.91728,-0.90596 4.14051,-2.83285 4.94051,-4.28197 1.30371,-2.36151 1.26809,-2.91936 -0.3434,-5.37881 -1.66943,-2.54786 -2.16563,-2.70592 -6.94051,-2.21074 -7.03983,0.73006 -10.35008,2.44657 -11.59277,6.01138 -1.41299,4.05331 -1.36216,4.40056 0.98838,6.7511 2.31816,2.31816 6.81056,2.00903 12.94779,-0.89096 z"
     id="path851" />
  <path
     style="fill:#e76f51;fill-opacity:1"
     d="m 506.3305,223.55247 c -1.40412,-1.5125 -5.11051,-6.35 -8.23643,-10.75 -3.12591,-4.4 -8.02378,-11.23061 -10.88415,-15.17914 -6.48738,-8.95537 -20.82137,-31.22145 -26.41048,-41.02545 -2.31541,-4.06151 -6.70088,-10.177 -9.74551,-13.58998 -4.30011,-4.82037 -5.53668,-6.93083 -5.54018,-9.45543 -0.002,-1.7875 0.3921,-3.25 0.87682,-3.25 0.48472,0 2.03798,1.4625 3.45168,3.25 1.4137,1.7875 4.06708,4.92933 5.8964,6.98185 1.82932,2.05252 4.84194,6.32752 6.69472,9.5 6.82494,11.68623 27.45456,42.75478 36.69825,55.26815 9.98789,13.52082 12.47206,17.59037 11.80262,19.33491 -0.87711,2.28572 -1.64197,2.10547 -4.60374,-1.08491 z"
     id="path849" />
  <path
     style="fill:#e76f51;fill-opacity:1"
     d="m 207.17593,212.6358 c -1.34377,-1.34377 -0.60542,-3.04021 1.80028,-4.13632 2.60927,-1.18886 15.98627,-3.59783 26.03305,-4.68811 3.3,-0.35812 8.475,-1.24132 11.5,-1.96266 8.05277,-1.92028 21.78652,-4.21719 36,-6.02084 6.875,-0.87242 15.875,-2.02551 20,-2.56242 9.57896,-1.24679 40.09024,-1.25937 43.35563,-0.0179 1.85216,0.70419 2.34913,1.46788 1.94956,2.99586 -0.51652,1.97515 -1.18632,2.04677 -18.17074,1.94287 -9.69895,-0.0593 -22.13445,0.42619 -27.63445,1.0789 -13.71614,1.62777 -42.4999,5.86704 -51,7.51128 -3.85,0.74474 -10.825,1.87325 -15.5,2.5078 -4.675,0.63456 -12.1,1.79859 -16.5,2.58675 -8.9612,1.60519 -10.8696,1.72853 -11.83333,0.76479 z"
     id="path847" />
  <path
     style="fill:#000000"
     d="m 371.01364,207.56298 c -2.66809,-0.67084 -6.72058,-3.92237 -8.21894,-6.5945 -0.66802,-1.19131 -1.23052,-4.04647 -1.25,-6.34481 -0.0596,-7.02983 8.3694,-14.1531 11.82313,-9.99161 0.63835,0.76917 2.33081,1.14946 4.01528,0.90223 3.81478,-0.55989 9.77222,2.3216 10.51336,5.08508 0.32201,1.2007 0.59163,3.9156 0.59914,6.0331 0.0177,4.99985 -5.18389,10.65 -9.80456,10.65 -1.66002,0 -3.61752,0.17151 -4.35,0.38114 -0.73249,0.20962 -2.22982,0.15534 -3.32741,-0.12063 z"
     id="path845" />
  <path
     style="fill:#2a9d8f;fill-opacity:1"
     d="m 379.56894,201.04123 c 3.33178,-2.24528 4.95398,-5.71285 4.16438,-8.90165 -0.29978,-1.21065 -1.81405,-1.77257 -5.56791,-2.06616 -2.83588,-0.2218 -5.91323,-0.74747 -6.83856,-1.16816 -1.26094,-0.57328 -2.0751,-0.006 -3.25,2.2665 -4.82169,9.32413 2.70696,15.78978 11.49209,9.86947 z"
     id="path843" />
  <path
     style="fill:#e76f51;fill-opacity:1"
     d="m 147.07966,192.08709 c -4.28391,-3.45654 -9.86556,-7.78273 -12.40368,-9.61375 -2.53811,-1.83102 -6.47401,-5.04293 -8.74644,-7.13759 -2.27244,-2.09466 -5.11962,-4.33719 -6.32707,-4.98339 -2.64967,-1.41807 -20.538931,-14.38607 -31.593211,-22.90206 -4.4,-3.38967 -12.275,-9.40366 -17.5,-13.36443 -5.225,-3.96076 -9.840077,-7.66984 -10.255728,-8.24239 -1.026809,-1.41442 -0.492897,-4.80264 0.82505,-5.23579 0.588127,-0.19329 4.863127,2.57257 9.5,6.14636 16.945551,13.06047 31.797499,24.21001 41.358609,31.04842 12.66544,9.05872 32.44102,24.74891 40.07207,31.79368 5.48216,5.06097 5.86447,5.6787 4.42966,7.1573 -1.44042,1.48439 -2.21471,1.09834 -9.35926,-4.66636 z"
     id="path841" />
  <path
     style="fill:#000000"
     d="m 212.57356,188.36337 c -2.11803,-1.34023 0.0254,-3.49243 6.24352,-6.2691 2.82278,-1.26049 7.84579,-3.76539 11.16225,-5.56644 3.31646,-1.80104 10.07993,-5.23122 15.02993,-7.62261 4.95,-2.3914 13.62442,-6.63168 19.27649,-9.42286 11.29832,-5.57949 22.01491,-9.59321 44.72351,-16.75047 8.25,-2.60022 19.43474,-6.48202 24.85498,-8.62621 5.42024,-2.14419 14.87024,-5.62118 21,-7.72662 6.12976,-2.10545 14.74502,-5.1973 19.14502,-6.87077 10.59714,-4.03045 14.50997,-4.79818 15.60961,-3.06271 0.47287,0.74629 0.86666,1.61153 0.87508,1.92275 0.0283,1.04775 -7.75145,4.94237 -14.6444,7.33108 -24.56573,8.51311 -38.49107,13.55775 -42.84029,15.51946 -4.25856,1.92082 -17.38062,6.25203 -46,15.18326 -3.3,1.02983 -12.075,4.85051 -19.5,8.49041 -7.425,3.6399 -15.3,7.26438 -17.5,8.05441 -2.2,0.79003 -6.925,3.17864 -10.5,5.30803 -3.575,2.12939 -9.65,5.09248 -13.5,6.58464 -3.85,1.49217 -7.4275,3.10674 -7.95,3.58794 -1.21929,1.12292 -3.6547,1.09442 -5.4857,-0.0642 z"
     id="path839" />
  <path
     style="fill:#000000"
     d="m 186.00013,186.27371 c -0.64352,-2.02756 -0.23235,-8.41002 1.51208,-23.47124 0.50962,-4.4 1.40407,-14.3 1.98767,-22 2.066,-27.25869 4.66223,-44.500002 6.70092,-44.500002 2.36514,0 2.48707,2.42278 0.76191,15.140572 -0.9221,6.79769 -2.02389,17.30943 -2.44843,23.35943 -1.24294,17.713 -3.99895,48.80766 -4.54244,51.25 -0.62358,2.80226 -3.10859,2.94069 -3.97171,0.22124 z"
     id="path837" />
  <path
     style="fill:#e76f51;fill-opacity:1"
     d="m 397.19676,167.65664 c -1.69716,-1.69716 -0.28628,-7.04551 4.88155,-18.505 3.06298,-6.79204 6.52272,-14.50335 7.6883,-17.13623 1.40154,-3.16588 2.64813,-4.68639 3.68095,-4.48979 1.88321,0.35848 2.63451,4.38173 1.15185,6.16823 -0.58486,0.70471 -1.70455,3.09857 -2.48821,5.31969 -0.78366,2.22112 -2.56484,6.45727 -3.95818,9.41367 -1.39335,2.95639 -3.86716,8.51158 -5.49736,12.34486 -2.89482,6.8069 -4.06313,8.28034 -5.4589,6.88457 z"
     id="path835" />
  <path
     style="fill:#000000"
     d="m 32.95792,117.81362 c -10.14916,-5.21712 -6.572646,-18.208292 5.872672,-21.331642 4.244651,-1.06526 5.342556,-0.97943 9.179001,0.71761 9.029235,3.994062 10.006253,14.154542 1.846038,19.197832 -4.452379,2.75172 -12.91921,3.46133 -16.897711,1.4162 z"
     id="path833" />
  <path
     style="fill:#264653;filter:url(#filter889);fill-opacity:1"
     d="m 41.886984,114.21462 c 4.524036,-1.25614 8.622275,-4.96875 8.622275,-7.81093 0,-1.09433 -1.0125,-3.11998 -2.25,-4.50144 -2.165719,-2.417662 -2.430037,-2.464272 -7.056352,-1.24427 -5.284483,1.39356 -8.675387,5.17771 -8.687059,9.69449 -0.0123,4.76157 2.460903,5.78086 9.371136,3.86215 z"
     id="path831" />
  <path
     style="fill:#000000"
     d="m 417.29712,118.15281 c -5.36608,-1.96225 -8.76515,-11.8561 -5.53786,-16.11932 1.50918,-1.9936 8.79529,-4.037292 14.13905,-3.965872 8.42928,0.11266 12.12661,7.428372 7.52071,14.880862 -3.38395,5.47535 -9.75582,7.53226 -16.1219,5.20433 z"
     id="path829" />
  <path
     style="fill:#2a9d8f;fill-opacity:1"
     d="m 425.45452,113.03549 c 3.60245,-1.82314 6.61329,-7.35508 5.0369,-9.25451 -1.91173,-2.3035 -10.50225,-1.95841 -12.98216,0.52149 -1.9362,1.9362 -2.78549,7.88118 -1.33333,9.33333 1.09007,1.09007 6.64913,0.73041 9.27859,-0.60031 z"
     id="path827" />
  <path
     style="fill:#000000"
     d="m 68.731114,101.12433 c -3.597649,-3.597652 1.32708,-5.841942 20.622956,-9.398242 7.510359,-1.38418 17.03019,-3.37098 21.15519,-4.4151 9.25095,-2.34161 11.06136,-2.62617 28.5,-4.47971 7.7,-0.81842 15.57203,-1.94722 17.4934,-2.50843 4.89102,-1.42861 8.61861,-1.27238 12.05626,0.5053 4.93062,2.54973 3.75259,4.24616 -3.29966,4.7517 -15.055,1.07922 -43.06761,4.88638 -52.25,7.10125 -5.5,1.32664 -13.375001,2.94891 -17.500001,3.60504 -6.953714,1.10608 -21.062765,4.335712 -24.199538,5.539412 -0.746214,0.28635 -1.906587,-0.0292 -2.578607,-0.70122 z"
     id="path825" />
  <path
     style="fill:#000000"
     d="m 391.1751,97.634978 c -0.36712,-0.36712 -3.02962,-1.01906 -5.91666,-1.44876 -2.88705,-0.42971 -9.71026,-1.71038 -15.16269,-2.84596 -5.45243,-1.13557 -16.47743,-2.51648 -24.5,-3.06868 -8.02257,-0.5522 -23.0663,-1.89615 -33.43052,-2.98656 -10.36422,-1.0904 -21.38922,-1.99101 -24.5,-2.00134 -3.11078,-0.0103 -12.40597,-0.92547 -20.65597,-2.03361 -8.25,-1.10815 -21.18783,-2.29148 -28.75074,-2.62963 -14.20802,-0.63526 -16.68514,-1.43671 -15.33283,-4.96078 0.57491,-1.4982 2.24298,-1.6032 16.36187,-1.02993 8.64694,0.35109 19.5467,1.32823 24.2217,2.17142 4.675,0.84319 15.25,1.95597 23.5,2.47284 8.25,0.51687 21.09658,1.61975 28.54796,2.45084 7.45138,0.83108 20.27638,1.96461 28.5,2.51894 13.67888,0.92206 19.52685,1.72789 36.95204,5.09186 13.27178,2.56214 16.98402,4.47378 14.5,7.46684 -1.31382,1.58306 -3.21788,1.94879 -4.33416,0.83251 z"
     id="path823" />
  <path
     style="fill:#000000"
     d="m 192.00926,84.807518 c -4.248,-2.25346 -5.50222,-4.29923 -5.48469,-8.94618 0.0204,-5.41118 0.56269,-6.0549 7.18928,-8.53423 l 5.67888,-2.12474 4.02483,2.05332 c 4.85826,2.4785 6.47639,5.18269 5.67078,9.47692 -1.34608,7.17522 -10.56159,11.53227 -17.07908,8.07491 z"
     id="path821" />
  <path
     style="fill:#2a9d8f;fill-opacity:1"
     d="m 199.52928,80.792118 c 5.81884,-3.00904 6.6628,-10.48965 1.18343,-10.48965 -2.65477,0 -6.90843,2.23923 -8.43814,4.44204 -1.1316,1.62952 -0.89954,5.02373 0.43469,6.35796 1.59069,1.59069 3.29366,1.5132 6.82002,-0.31035 z"
     id="path817" />
</svg>
