<?xml version="1.0" encoding="UTF-8" standalone="no"?>
<!-- Created with Inkscape (http://www.inkscape.org/) -->

<svg
   xmlns:dc="http://purl.org/dc/elements/1.1/"
   xmlns:cc="http://creativecommons.org/ns#"
   xmlns:rdf="http://www.w3.org/1999/02/22-rdf-syntax-ns#"
   xmlns:svg="http://www.w3.org/2000/svg"
   xmlns="http://www.w3.org/2000/svg"
   xmlns:sodipodi="http://sodipodi.sourceforge.net/DTD/sodipodi-0.dtd"
   xmlns:inkscape="http://www.inkscape.org/namespaces/inkscape"
   version="1.1"
   id="svg2"
   width="472"
   height="290"
   viewBox="0 0 472 290"
   sodipodi:docname="paths3.svg"
   inkscape:version="0.92.2 5c3e80d, 2017-08-06">
  <metadata
     id="metadata8">
    <rdf:RDF>
      <cc:Work
         rdf:about="">
        <dc:format>image/svg+xml</dc:format>
        <dc:type
           rdf:resource="http://purl.org/dc/dcmitype/StillImage" />
        <dc:title />
      </cc:Work>
    </rdf:RDF>
  </metadata>
  <defs
     id="defs6" />
  <sodipodi:namedview
     pagecolor="#ffffff"
     bordercolor="#666666"
     borderopacity="1"
     objecttolerance="10"
     gridtolerance="10"
     guidetolerance="10"
     inkscape:pageopacity="0"
     inkscape:pageshadow="2"
     inkscape:window-width="1348"
     inkscape:window-height="673"
     id="namedview4"
     showgrid="false"
     inkscape:zoom="1.3"
     inkscape:cx="184.12916"
     inkscape:cy="145"
     inkscape:window-x="20"
     inkscape:window-y="60"
     inkscape:window-maximized="0"
     inkscape:current-layer="layer1" />
  <path
     style="fill:#000000"
     d="m 222.1501,238.73392 c -0.7004,-1.13328 3.13095,-6.99318 4.57231,-6.99318 0.51255,0 0.93191,-0.60377 0.93191,-1.34171 0,-0.73794 -1.8,-1.88101 -4,-2.54014 -2.48799,-0.74542 -4,-1.79972 -4,-2.78913 0,-1.88879 4.37267,-1.45363 10.30649,1.02568 4.81438,2.01158 4.85004,4.90679 0.12186,9.8953 -3.46803,3.65897 -6.68008,4.76974 -7.93257,2.74318 z m -44.99578,-1.9953 c -7.55639,-0.4407 -17.8155,-1.83354 -24.5,-3.32628 -6.325,-1.41246 -14.16392,-3.04024 -17.41981,-3.61729 -8.15382,-1.44513 -28.02905,-7.74442 -34.03992,-10.78867 -15.252845,-7.72491 -36.540269,-23.99427 -36.540269,-27.92666 0,-2.6685 4.228824,-0.39258 10.5,5.65101 15.557998,14.99339 36.460879,24.84397 63.653389,29.99695 5.69063,1.07838 13.49661,2.71909 17.34661,3.64602 9.21941,2.2197 41.45389,2.50348 52.81219,0.46494 6.95752,-1.2487 7.98243,-1.23185 9.36832,0.15404 2.16537,2.16537 0.8249,3.74806 -3.17443,3.74806 -1.85673,0 -4.41768,0.39147 -5.69098,0.86993 -3.79459,1.42587 -18.44108,1.9371 -32.3151,1.12795 z m 118.5,-8.91648 c -5.39648,-1.06171 -9.9632,-3.3901 -10.60305,-5.40607 -0.94301,-2.97117 0.3728,-3.17302 4.72795,-0.72529 9.53304,5.35787 38.03413,1.19781 58.86809,-8.59246 14.85791,-6.98202 33.27072,-19.60394 44.50701,-30.50942 6.41222,-6.22343 7.52733,-6.72508 9.54497,-4.29398 1.10232,1.32822 0.35684,2.50068 -5.12756,8.06429 -3.52957,3.58056 -9.34241,8.52787 -12.91741,10.99402 -3.575,2.46614 -9.425,6.52142 -13,9.01172 -9.43711,6.57377 -27.51284,14.96149 -37.38568,17.34815 -9.53764,2.30564 -27.49929,5.04305 -32.11432,4.89432 -1.65,-0.0532 -4.575,-0.40655 -6.5,-0.78528 z m -46.5,-4.42818 c -9.34092,-3.04526 -12.4442,-6.08347 -12.47776,-12.21613 -0.0173,-3.16071 0.58842,-4.63246 2.72776,-6.62781 4.23753,-3.95232 6.60712,-4.80928 13.2981,-4.80928 11.22073,0 17.19906,5.52688 15.33698,14.17882 -1.69076,7.85591 -10.41863,12.23457 -18.88508,9.4744 z m 10.61765,-7.53557 c 4.3808,-4.3808 4.76384,-6.23616 1.88235,-9.11765 -1.58032,-1.58032 -3.33333,-2 -8.35398,-2 -5.35857,0 -6.7685,0.38417 -9,2.45225 -4.44135,4.11611 -3.03698,8.8736 3.37454,11.43171 5.00749,1.99793 8.02225,1.30852 12.09709,-2.76631 z m 22.22743,-15.66078 c -0.32569,-0.84872 -0.42406,-1.69059 -0.21862,-1.87082 0.20545,-0.18024 5.32354,-2.46682 11.37354,-5.0813 6.05,-2.61447 17.11494,-7.8476 24.58876,-11.62917 7.47382,-3.78157 13.86612,-6.87558 14.2051,-6.87558 0.33899,0 3.44904,-1.32091 6.91124,-2.93534 14.29772,-6.66711 22.04075,-9.39935 23.68965,-8.35925 3.25773,2.05492 1.34317,3.65908 -9.89475,8.29055 -14.85024,6.12022 -21.3601,9.07041 -33,14.95523 -11.64302,5.8864 -33.21774,15.04881 -35.43541,15.04881 -0.89505,0 -1.89383,-0.69441 -2.21951,-1.54313 z m -73.09508,-4.11915 c -2.34718,-0.94711 -1.25298,-2.40752 3.25,-4.33772 2.475,-1.06091 4.5,-2.31648 4.5,-2.79015 0,-0.47367 -1.125,-1.9181 -2.5,-3.20985 -3.21261,-3.01809 -3.34603,-5.3926 -0.25,-4.44911 3.0164,0.91923 5.63528,3.32659 7.46226,6.85957 1.42565,2.7569 1.37937,3.01738 -0.85238,4.79753 -4.18892,3.34129 -8.32342,4.45585 -11.60988,3.12973 z m -13.75,-8.92964 c -14.81771,-3.4253 -33.666,-5.44854 -56.5,-6.06491 -21.97735,-0.59325 -24.12861,-0.49073 -33.20169,1.58232 -10.626092,2.42789 -15.11972,2.42751 -15.579539,-0.001 -0.233486,-1.2333 1.938234,-2.10273 9.99145,-4 9.477719,-2.23287 12.144369,-2.41361 33.789779,-2.29026 18.46501,0.10523 26.6067,0.599 38,2.30461 20.9228,3.13219 30.25812,5.11454 32.25,6.84826 3.97586,3.46056 1.32857,3.95108 -8.75,1.62129 z M 50.980904,180.18755 c -10.158284,-4.44961 -7.858869,-17.68172 3.802365,-21.88092 6.096435,-2.19532 7.855667,-2.12455 13.049086,0.52494 4.772991,2.43499 6.821966,5.455 6.821966,10.05495 0,9.11218 -13.719096,15.6613 -23.673417,11.30103 z M 65.78314,174.1674 c 4.663748,-2.39979 5.208838,-7.28246 1.225158,-10.97441 -2.935125,-2.72018 -6.501984,-3.18376 -8.253959,-1.07276 -0.629679,0.75871 -2.399665,1.63044 -3.933303,1.93717 -2.968662,0.59373 -5.166715,4.04306 -5.166715,8.10795 0,5.49615 7.523482,6.43004 16.128819,2.00205 z m 345.76986,5.32334 c -0.0557,-0.6875 -0.0158,-2.77597 0.0888,-4.64105 0.15688,-2.79862 -0.10234,-3.27884 -1.48376,-2.74874 -0.92062,0.35328 -4.01351,0.9173 -6.8731,1.25339 -4.11781,0.48396 -5.48174,0.27068 -6.55742,-1.02543 -1.88089,-2.26634 -0.90371,-2.89607 6.75883,-4.35561 8.41286,-1.60246 9.99048,-1.62478 11.7479,-0.16625 1.44265,1.19729 1.95656,8.37212 0.81311,11.3519 -0.71779,1.87054 -4.34788,2.13852 -4.49433,0.33179 z m -44.8814,-9.48044 c 0.009,-0.97326 1.1345,-2.82929 2.5,-4.12452 1.36549,-1.29523 2.48272,-2.70887 2.48272,-3.14142 0,-0.43255 -1.74147,-1.48326 -3.86993,-2.3349 -3.59931,-1.44016 -5.68917,-3.77629 -4.46938,-4.99607 0.7099,-0.70991 9.41459,3.086 11.58931,5.05382 2.43177,2.20042 2.18428,5.51692 -0.60742,8.13958 -3.18067,2.98809 -7.6488,3.81049 -7.6253,1.40351 z M 90.904321,163.13856 c -1.637785,-0.73961 -1.617261,-3.39782 0.02623,-3.39782 5.853398,0 19.842129,-2.65505 27.223769,-5.16705 9.66454,-3.28887 37.61354,-17.03304 48.89801,-24.04603 3.79391,-2.35781 14.57403,-9.35035 23.95584,-15.53898 11.51143,-7.59342 17.6412,-11.0669 18.85199,-10.68261 2.79787,0.88801 2.1315,3.00225 -1.95584,6.20539 -4.53376,3.55298 -25.79383,17.42491 -30.18759,19.69701 -1.73101,0.89514 -6.1657,3.57802 -9.85485,5.96196 -14.91722,9.63952 -42.44554,22.27712 -54.60715,25.06884 -6.94437,1.59409 -20.4793,2.74426 -22.350413,1.89929 z m 298.577939,-8.98088 c -3.89972,-1.66593 -6.82794,-6.24752 -6.82794,-10.68321 0,-2.51255 3.19303,-7.44554 5.96403,-9.21398 2.5755,-1.64367 8.39244,-3.48899 11.03597,-3.50096 3.20509,-0.0145 8.41701,3.16181 10.56349,6.43776 1.87914,2.86794 2.12486,9.38875 0.47027,12.48036 -2.54545,4.75623 -14.59853,7.30261 -21.20582,4.48003 z m 13.10054,-4.87995 c 3.14929,-1.62857 4.07152,-3.33784 4.07152,-7.5462 0,-5.18011 -7.64792,-8.95319 -11.6364,-5.74079 -6.75728,5.44245 -8.67248,9.64622 -5.82713,12.79029 2.17089,2.39882 9.20893,2.65985 13.39201,0.4967 z M 66.904321,144.07846 c -2.233134,-0.90109 -1.336221,-4.44455 3.325266,-13.13723 9.65162,-17.99822 17.755107,-27.53426 35.235363,-41.464379 24.19545,-19.2815 48.52933,-31.42595 73.55848,-36.71126 10.6265,-2.24396 13.63089,-2.00725 13.63089,1.07392 0,2.26487 -0.0467,2.28331 -10,3.9476 -20.79546,3.47721 -48.48472,16.46047 -67.50905,31.65444 -3.30498,2.63955 -7.80498,6.14066 -10,7.78024 -11.286915,8.430779 -23.19623,23.276109 -31.502591,39.268949 -2.356686,4.5375 -4.555665,8.21447 -4.886621,8.17105 -0.330955,-0.0434 -1.164237,-0.30592 -1.851737,-0.58333 z M 381.61618,122.39311 c -5.49562,-1.4963 -13.32283,-6.57267 -13.77791,-8.93572 -0.50803,-2.63798 2.71273,-2.10915 7.81605,1.28335 6.40017,4.2546 8.65188,4.00653 10.02822,-1.10481 0.60793,-2.25765 0.87702,-4.69975 0.59799,-5.42689 -0.83964,-2.18806 1.75986,-3.6377 3.82079,-2.13071 1.87606,1.37181 1.82969,5.89243 -0.14008,13.65637 -1.01969,4.01919 -2.09228,4.36087 -8.34506,2.65841 z M 369.65432,105.61982 C 356.5198,93.143371 340.52995,82.889461 327.57896,78.637871 c -13.41586,-4.40421 -33.01388,-9.03735 -42.37611,-10.01809 -13.4114,-1.40492 -14.54853,-1.67051 -14.54853,-3.39809 0,-3.2014 20.15545,-1.28308 37.56132,3.57495 20.56561,5.73992 25.55679,7.45817 33.93868,11.68361 11.78244,5.93972 20.2291,11.86876 31.65871,22.222469 9.73023,8.81431 11.81452,12.07633 7.66084,11.98957 -1.5146,-0.0316 -5.61634,-3.18006 -11.81955,-9.07247 z m -154.52034,2.08801 c -0.35111,-0.5681 0.29734,-2.61883 1.44098,-4.55716 1.14365,-1.93834 2.07936,-3.723529 2.07936,-3.967089 0,-0.24356 -1.4625,-0.44973 -3.25,-0.45815 -4.01807,-0.0189 -6.21965,-1.31842 -5.48355,-3.23667 0.74822,-1.94983 13.34374,-3.31642 15.33501,-1.66382 2.09162,1.73589 1.75808,3.04645 -2.35146,9.239439 -3.54002,5.33473 -6.31736,6.99443 -7.77034,4.64345 z m 15.5406,-29.718639 c -7.11148,-3.57328 -7.86664,-11.60207 -1.67373,-17.79498 2.56289,-2.56289 4.57688,-3.43686 10.26067,-4.45261 8.55454,-1.52878 11.92621,-0.38105 14.68933,5.00029 3.02549,5.89231 0.34646,15.47359 -5.00885,17.91364 -3.75847,1.71247 -14.29828,1.32801 -18.26742,-0.66634 z m 16.2325,-5.23263 c 4.53903,-3.57041 4.33001,-11.12484 -0.35578,-12.85823 -2.24102,-0.829 -8.88653,0.55251 -12.56689,2.6125 -2.91278,1.63036 -4.82618,7.43444 -3.3563,10.18094 1.56887,2.93145 12.5789,2.97527 16.27897,0.0648 z m -46.58609,-12.68249 c -1.19213,-1.19212 -0.70345,-3.33333 0.76075,-3.33333 0.78508,0 2.39159,-1.22575 3.57003,-2.72389 l 2.14261,-2.72388 -4.44517,-1.52612 c -9.38997,-3.22376 -9.9267,-7.37862 -0.58029,-4.49209 2.96197,0.91477 6.5104,1.99105 7.8854,2.39172 3.72309,1.08491 3.70734,4.80063 -0.0395,9.32426 -2.21782,2.67759 -3.89552,3.75 -5.86661,3.75 -1.51829,0 -3.06053,-0.3 -3.42719,-0.66667 z"
     id="path817"
     inkscape:connector-curvature="0" />
  <path
     style="opacity:1;fill:#264653;fill-opacity:1;fill-rule:evenodd;stroke:#264653;stroke-width:2.75298929;stroke-miterlimit:4;stroke-dasharray:none;stroke-dashoffset:0;stroke-opacity:1"
     d="m 51.547122,174.07522 c -1.554309,-4.05047 0.231354,-7.2598 5.617483,-10.09617 5.263998,-2.77206 5.52675,-2.77852 8.369571,-0.20581 4.483153,4.0572 3.700797,7.86038 -2.117015,10.29122 -6.427032,2.68538 -10.842153,2.68939 -11.870039,0.0108 z"
     id="path819"
     inkscape:connector-curvature="0" />
  <path
     style="opacity:1;fill:#e9c46a;fill-opacity:1;fill-rule:evenodd;stroke:#e9c46a;stroke-width:2.75298929;stroke-miterlimit:4;stroke-dasharray:none;stroke-dashoffset:0;stroke-opacity:1"
     d="m 390.78395,148.98828 c -3.05425,-1.23242 -2.04207,-5.56223 2.2649,-9.68857 4.88561,-4.6807 6.63518,-4.84777 10.48201,-1.00094 3.65135,3.65134 3.65135,5.08939 0,8.74074 -2.72818,2.72818 -8.59319,3.62484 -12.74691,1.94877 z"
     id="path821"
     inkscape:connector-curvature="0" />
  <path
     style="opacity:1;fill:#2a9d8f;fill-opacity:1;fill-rule:evenodd;stroke:#2a9d8f;stroke-width:2.75298929;stroke-miterlimit:4;stroke-dasharray:none;stroke-dashoffset:0;stroke-opacity:1"
     d="m 232.60082,73.228807 c -0.53415,-0.534157 -0.97119,-2.485711 -0.97119,-4.336787 0,-4.460996 5.79319,-8.126367 11.91542,-7.538923 4.00736,0.384517 4.91445,1.127606 5.28503,4.329499 0.31268,2.701525 -0.5525,4.565649 -2.87352,6.191358 -3.33537,2.336179 -11.54191,3.16868 -13.35574,1.354853 z"
     id="path823"
     inkscape:connector-curvature="0" />
  <path
     style="opacity:1;fill:#2a9d8f;fill-opacity:1;fill-rule:evenodd;stroke:#2a9d8f;stroke-width:2.75298929;stroke-miterlimit:4;stroke-dasharray:none;stroke-dashoffset:0;stroke-opacity:1"
     d="m 245.83333,216.84874 c -3.19593,-1.86146 -3.28259,-6.22593 -0.18513,-9.3234 3.11262,-3.11262 13.4874,-2.4509 15.64851,0.99808 1.22435,1.95397 0.81332,3.27489 -1.92656,6.19135 -3.64362,3.87846 -9.0724,4.73426 -13.53682,2.13397 z"
     id="path825"
     inkscape:connector-curvature="0" />
  <text
     xml:space="preserve"
     style="font-style:normal;font-variant:normal;font-weight:normal;font-stretch:normal;font-size:32px;line-height:125%;font-family:Helvetica;-inkscape-font-specification:'Helvetica, Normal';font-variant-ligatures:normal;font-variant-caps:normal;font-variant-numeric:normal;font-feature-settings:normal;text-align:center;letter-spacing:0px;word-spacing:0px;writing-mode:lr-tb;text-anchor:middle;fill:#000000;fill-opacity:1;stroke:none;stroke-width:1px;stroke-linecap:butt;stroke-linejoin:miter;stroke-opacity:1"
     x="29.135801"
     y="192.39507"
     id="text829"><tspan
       sodipodi:role="line"
       id="tspan827"
       x="29.135801"
       y="192.39507">A</tspan></text>
  <text
     xml:space="preserve"
     style="font-style:normal;font-variant:normal;font-weight:normal;font-stretch:normal;font-size:32px;line-height:125%;font-family:Helvetica;-inkscape-font-specification:'Helvetica, Normal';font-variant-ligatures:normal;font-variant-caps:normal;font-variant-numeric:normal;font-feature-settings:normal;text-align:center;letter-spacing:0px;word-spacing:0px;writing-mode:lr-tb;text-anchor:middle;fill:#000000;fill-opacity:1;stroke:none;stroke-width:1px;stroke-linecap:butt;stroke-linejoin:miter;stroke-opacity:1"
     x="422.46915"
     y="129.7531"
     id="text833"><tspan
       sodipodi:role="line"
       id="tspan831"
       x="422.46915"
       y="129.7531">B</tspan></text>
  <text
     xml:space="preserve"
     style="font-style:normal;font-variant:normal;font-weight:normal;font-stretch:normal;font-size:32px;line-height:125%;font-family:Helvetica;-inkscape-font-specification:'Helvetica, Normal';font-variant-ligatures:normal;font-variant-caps:normal;font-variant-numeric:normal;font-feature-settings:normal;text-align:center;letter-spacing:0px;word-spacing:0px;writing-mode:lr-tb;text-anchor:middle;fill:#000000;fill-opacity:1;stroke:none;stroke-width:1px;stroke-linecap:butt;stroke-linejoin:miter;stroke-opacity:1"
     x="236"
     y="43.802467"
     id="text837"><tspan
       sodipodi:role="line"
       id="tspan835"
       x="236"
       y="43.802467">C</tspan></text>
  <text
     xml:space="preserve"
     style="font-style:normal;font-variant:normal;font-weight:normal;font-stretch:normal;font-size:32px;line-height:125%;font-family:Helvetica;-inkscape-font-specification:'Helvetica, Normal';font-variant-ligatures:normal;font-variant-caps:normal;font-variant-numeric:normal;font-feature-settings:normal;text-align:center;letter-spacing:0px;word-spacing:0px;writing-mode:lr-tb;text-anchor:middle;fill:#000000;fill-opacity:1;stroke:none;stroke-width:1px;stroke-linecap:butt;stroke-linejoin:miter;stroke-opacity:1"
     x="254.93826"
     y="260.8642"
     id="text841"><tspan
       sodipodi:role="line"
       id="tspan839"
       x="254.93826"
       y="260.8642">D</tspan></text>
  <g
     inkscape:groupmode="layer"
     id="layer1"
     inkscape:label="weights">
    <text
       xml:space="preserve"
       style="font-style:normal;font-variant:normal;font-weight:normal;font-stretch:normal;font-size:32px;line-height:125%;font-family:Helvetica;-inkscape-font-specification:'Helvetica, Normal';font-variant-ligatures:normal;font-variant-caps:normal;font-variant-numeric:normal;font-feature-settings:normal;text-align:center;letter-spacing:0px;word-spacing:0px;writing-mode:lr-tb;text-anchor:middle;fill:#000000;fill-opacity:1;stroke:none;stroke-width:1px;stroke-linecap:butt;stroke-linejoin:miter;stroke-opacity:1"
       x="97.604935"
       y="71.481483"
       id="text846"><tspan
         sodipodi:role="line"
         id="tspan844"
         x="97.604935"
         y="71.481483">4</tspan></text>
    <text
       xml:space="preserve"
       style="font-style:normal;font-variant:normal;font-weight:normal;font-stretch:normal;font-size:32px;line-height:125%;font-family:Helvetica;-inkscape-font-specification:'Helvetica, Normal';font-variant-ligatures:normal;font-variant-caps:normal;font-variant-numeric:normal;font-feature-settings:normal;text-align:center;letter-spacing:0px;word-spacing:0px;writing-mode:lr-tb;text-anchor:middle;fill:#000000;fill-opacity:1;stroke:none;stroke-width:1px;stroke-linecap:butt;stroke-linejoin:miter;stroke-opacity:1"
       x="144.22221"
       y="121.01235"
       id="text850"><tspan
         sodipodi:role="line"
         id="tspan848"
         x="144.22221"
         y="121.01235">1</tspan></text>
    <text
       xml:space="preserve"
       style="font-style:normal;font-variant:normal;font-weight:normal;font-stretch:normal;font-size:32px;line-height:125%;font-family:Helvetica;-inkscape-font-specification:'Helvetica, Normal';font-variant-ligatures:normal;font-variant-caps:normal;font-variant-numeric:normal;font-feature-settings:normal;text-align:center;letter-spacing:0px;word-spacing:0px;writing-mode:lr-tb;text-anchor:middle;fill:#000000;fill-opacity:1;stroke:none;stroke-width:1px;stroke-linecap:butt;stroke-linejoin:miter;stroke-opacity:1"
       x="182.09877"
       y="169.08643"
       id="text854"><tspan
         sodipodi:role="line"
         id="tspan852"
         x="182.09877"
         y="169.08643">2</tspan></text>
    <text
       xml:space="preserve"
       style="font-style:normal;font-variant:normal;font-weight:normal;font-stretch:normal;font-size:32px;line-height:125%;font-family:Helvetica;-inkscape-font-specification:'Helvetica, Normal';font-variant-ligatures:normal;font-variant-caps:normal;font-variant-numeric:normal;font-feature-settings:normal;text-align:center;letter-spacing:0px;word-spacing:0px;writing-mode:lr-tb;text-anchor:middle;fill:#000000;fill-opacity:1;stroke:none;stroke-width:1px;stroke-linecap:butt;stroke-linejoin:miter;stroke-opacity:1"
       x="157.33333"
       y="260.66669"
       id="text858"><tspan
         sodipodi:role="line"
         id="tspan856"
         x="157.33333"
         y="260.66669">3</tspan></text>
    <text
       xml:space="preserve"
       style="font-style:normal;font-variant:normal;font-weight:normal;font-stretch:normal;font-size:32px;line-height:125%;font-family:Helvetica;-inkscape-font-specification:'Helvetica, Normal';font-variant-ligatures:normal;font-variant-caps:normal;font-variant-numeric:normal;font-feature-settings:normal;text-align:center;letter-spacing:0px;word-spacing:0px;writing-mode:lr-tb;text-anchor:middle;fill:#000000;fill-opacity:1;stroke:none;stroke-width:1px;stroke-linecap:butt;stroke-linejoin:miter;stroke-opacity:1"
       x="337.97531"
       y="56.913582"
       id="text862"><tspan
         sodipodi:role="line"
         id="tspan860"
         x="337.97531"
         y="56.913582">3</tspan></text>
    <text
       xml:space="preserve"
       style="font-style:normal;font-variant:normal;font-weight:normal;font-stretch:normal;font-size:32px;line-height:125%;font-family:Helvetica;-inkscape-font-specification:'Helvetica, Normal';font-variant-ligatures:normal;font-variant-caps:normal;font-variant-numeric:normal;font-feature-settings:normal;text-align:center;letter-spacing:0px;word-spacing:0px;writing-mode:lr-tb;text-anchor:middle;fill:#000000;fill-opacity:1;stroke:none;stroke-width:1px;stroke-linecap:butt;stroke-linejoin:miter;stroke-opacity:1"
       x="307.38272"
       y="166.17284"
       id="text866"><tspan
         sodipodi:role="line"
         id="tspan864"
         x="307.38272"
         y="166.17284">1</tspan></text>
    <text
       xml:space="preserve"
       style="font-style:normal;font-variant:normal;font-weight:normal;font-stretch:normal;font-size:32px;line-height:125%;font-family:Helvetica;-inkscape-font-specification:'Helvetica, Normal';font-variant-ligatures:normal;font-variant-caps:normal;font-variant-numeric:normal;font-feature-settings:normal;text-align:center;letter-spacing:0px;word-spacing:0px;writing-mode:lr-tb;text-anchor:middle;fill:#000000;fill-opacity:1;stroke:none;stroke-width:1px;stroke-linecap:butt;stroke-linejoin:miter;stroke-opacity:1"
       x="367.11111"
       y="241.92593"
       id="text870"><tspan
         sodipodi:role="line"
         id="tspan868"
         x="367.11111"
         y="241.92593">2</tspan></text>
  </g>
</svg>
