<?xml version="1.0" encoding="UTF-8" standalone="no"?>
<svg
   xmlns:dc="http://purl.org/dc/elements/1.1/"
   xmlns:cc="http://creativecommons.org/ns#"
   xmlns:rdf="http://www.w3.org/1999/02/22-rdf-syntax-ns#"
   xmlns:svg="http://www.w3.org/2000/svg"
   xmlns="http://www.w3.org/2000/svg"
   viewBox="0 0 493 236"
   height="236"
   width="493"
   id="svg2"
   version="1.1">
  <metadata
     id="metadata8">
    <rdf:RDF>
      <cc:Work
         rdf:about="">
        <dc:format>image/svg+xml</dc:format>
        <dc:type
           rdf:resource="http://purl.org/dc/dcmitype/StillImage" />
        <dc:title></dc:title>
      </cc:Work>
    </rdf:RDF>
  </metadata>
  <defs
     id="defs6" />
  <path
     id="path817"
     d="m 341.17283,186.94784 c -5.54897,-0.53923 -22.15867,-3.457 -26,-4.56734 -1.925,-0.55643 -7.24725,-2.82208 -11.82723,-5.03478 -6.75889,-3.26539 -10.37181,-5.98229 -19.18308,-14.42559 -12.10559,-11.60006 -15.98969,-17.71257 -15.98969,-25.16343 0,-4.3953 0.0284,-4.43293 2,-2.64867 1.1,0.99549 2.00988,2.75273 2.02196,3.90499 0.0471,4.49432 4.08665,10.59973 12.59863,19.04177 4.88368,4.84355 10.60143,9.90192 12.70613,11.24082 12.20533,7.76443 35.06343,12.91244 53.17328,11.97546 14.53529,-0.75204 21.62714,-2.69755 35.80001,-9.82102 13.37141,-6.72065 21.25805,-11.56034 26.55663,-16.29665 2.00385,-1.7912 4.73274,-3.82865 6.06419,-4.52766 2.08905,-1.09675 2.60301,-1.0218 3.75,0.54681 0.73105,0.99976 1.32917,2.09198 1.32917,2.42717 0,1.04897 -13.26789,11.47587 -18.29513,14.37769 -9.30277,5.36971 -25.56364,13.50336 -30.02251,15.01719 -5.71918,1.94171 -22.47968,4.66369 -27.42159,4.45339 -2.06843,-0.088 -5.33577,-0.31309 -7.26077,-0.50015 z M 143.77324,163.03067 c -4.89477,-0.761 -11.64477,-2.07546 -15,-2.92101 -10.04994,-2.5327 -33.70653,-11.72208 -38.537517,-14.96987 -5.140925,-3.45616 -9.062884,-8.72689 -9.062884,-12.17964 0,-3.42744 2.513836,-2.89641 4.321461,0.91288 3.029047,6.38324 6.055005,8.24636 24.69436,15.20464 23.13688,8.63727 50.22782,11.99386 64.05267,7.93618 11.02104,-3.23474 32.70673,-13.54312 39.17063,-18.61991 4.04165,-3.17435 7.02939,-3.34567 7.58989,-0.43522 0.56734,2.94598 -3.19123,5.982 -14.09648,11.38655 -29.78062,14.75903 -40.82607,17.1534 -63.13213,13.6854 z m 282.7952,-8.17264 c -0.29789,-0.9625 -1.19683,-3.25517 -1.99765,-5.09482 l -1.45603,-3.34481 -6.22097,0.81253 c -3.42153,0.44689 -8.24596,0.82706 -10.72096,0.84481 -3.88247,0.0279 -4.54283,-0.26866 -4.81209,-2.16075 -0.25647,-1.80226 0.2781,-2.28211 3,-2.69289 17.37471,-2.62216 18.94785,-2.74629 20.32453,-1.60375 1.50163,1.24625 5.48756,11.07182 5.48756,13.52719 0,2.06154 -2.9502,1.82621 -3.60439,-0.28751 z M 220.8395,146.94136 c -1.20759,-1.20759 -0.70809,-2.28172 2.93763,-6.3171 l 3.6043,-3.98953 -3.17917,-1.76335 c -6.46692,-3.58692 -6.74406,-3.92327 -4.83175,-5.8642 1.60418,-1.62818 2.00964,-1.48243 7.36088,2.64603 3.11476,2.40301 5.89925,4.98427 6.18776,5.73611 0.29244,0.7621 -1.39752,3.32546 -3.81909,5.79285 -4.06266,4.13955 -6.68626,5.33349 -8.26056,3.75919 z m 222.08331,-15.41344 c -2.70112,-1.57326 -4.75049,-6.37608 -4.74501,-11.12023 0.007,-5.68698 2.96802,-9.11675 9.74078,-11.28116 6.17952,-1.97482 10.94766,-0.96326 15.50425,3.28922 5.14363,4.80034 2.5253,15.1729 -4.69495,18.59913 -3.74691,1.77803 -13.11133,2.082 -15.80507,0.51304 z m 11.5377,-4.0051 c 5.18338,-2.36171 7.71949,-11.77022 3.74594,-13.8968 -2.66456,-1.42602 -9.89122,-0.16039 -12.18576,2.13415 -2.5052,2.5052 -2.57026,10.32772 -0.0979,11.76776 2.30101,1.34022 5.58932,1.33825 8.53768,-0.005 z m -44.81475,3.04141 c -0.93894,-1.51924 0.96345,-3.39829 5.52132,-5.45361 2.20316,-0.99348 4.00575,-2.10465 4.00575,-2.46925 0,-0.3646 -1.575,-1.41398 -3.5,-2.33195 -2.29081,-1.09241 -3.5,-2.36559 -3.5,-3.68521 0,-2.7279 0.94122,-2.57452 8.94951,1.45839 4.23565,2.13304 7.15701,4.28569 7.56634,5.57536 0.36672,1.15544 0.51317,2.21549 0.32546,2.35567 -1.00592,0.75119 -15.88743,5.5944 -17.18966,5.5944 -0.84349,0 -1.82391,-0.46971 -2.17872,-1.0438 z m -168.21244,-2.88808 c -7.7713,-1.28276 -11.13968,-6.71961 -9.7801,-15.78591 0.79699,-5.31469 4.22662,-9.28221 8.02382,-9.28221 1.42731,0 4.00382,-0.72847 5.72557,-1.61882 2.67417,-1.382875 3.90774,-1.444875 8.46323,-0.4254 4.25567,0.95238 5.63315,1.77427 6.81989,4.06916 2.58121,4.99152 1.40487,11.51946 -3.19165,17.71163 -3.79086,5.10683 -8.31785,6.60961 -16.06076,5.33155 z m 9.13074,-5.89603 c 4.30381,-3.80512 6.95846,-13.4224 4.40877,-15.97209 -1.48828,-1.48829 -7.48087,-1.55581 -11.56987,-0.13038 -4.98603,1.73814 -7.83955,10.05463 -5.16476,15.05253 2.15918,4.03446 8.35341,4.56209 12.32586,1.04994 z m -199.297557,3.52147 c -5.226824,-1.83145 -7.518089,-5.66406 -7.559056,-12.64406 -0.044,-7.49704 2.502796,-11.44792 7.576665,-11.75378 1.8638,-0.11236 5.687892,-0.50102 8.497982,-0.86371 5.954457,-0.768515 11.532309,1.32822 14.146256,5.31761 3.833332,5.8504 -3.437788,17.34058 -12.736271,20.12647 -4.55129,1.3636 -5.566289,1.34493 -9.925576,-0.18253 z m 7.591236,-3.75489 c 7.299671,-2.75209 12.579514,-12.10722 8.903303,-15.7754 -1.304598,-1.30174 -3.224571,-1.60378 -8.833177,-1.38959 -4.275038,0.16326 -7.490319,0.76843 -7.969482,1.5 -2.844944,4.34352 -1.921122,13.86924 1.505564,15.52417 2.872201,1.38714 3.076118,1.39163 6.393792,0.14082 z m 341.315091,0.038 c -5.33257,-1.25312 -34.66724,-4.70928 -51.5,-6.06765 -9.95331,-0.80321 -24.9635,-1.00508 -44.61395,-0.6 -23.56276,0.48573 -29.97921,0.34339 -31.40149,-0.69661 -2.84526,-2.08051 -0.61419,-2.67349 14.29156,-3.79851 30.9513,-2.33605 89.02284,0.80062 115.97698,6.26439 4.63125,0.93878 7.2469,2.87194 7.2469,5.35601 0,0.79187 -5.81525,0.52575 -10,-0.45763 z m 24.75,-13.63082 c -0.9625,-0.27085 -1.75,-1.28218 -1.75,-2.24739 0,-1.28887 1.34809,-2.0661 5.07629,-2.92667 2.79196,-0.64446 5.94196,-1.17175 7,-1.17175 2.76178,0 2.45669,-0.7228 -2.57629,-6.103455 -4.24741,-4.54083 -5.45461,-7.19298 -3.75,-8.23855 1.09192,-0.66976 12.0342,11.64421 13.29584,14.962575 1.35251,3.55738 -0.71765,5.37943 -6.11197,5.37943 -2.02613,0 -4.97762,0.18861 -6.55887,0.41913 -1.58125,0.23052 -3.6625,0.19752 -4.625,-0.0733 z m -222.30385,-7.43294 c -0.89051,-1.440885 0.16889,-2.252935 5.55385,-4.257145 7.58427,-2.82276 7.89986,-3.23278 4.75,-6.17123 -2.96017,-2.76151 -3.36771,-3.9847 -1.67597,-5.03025 2.08193,-1.28671 8.92597,7.04238 8.92597,10.86276 0,3.24063 -15.82998,7.385155 -17.55385,4.595865 z M 407.67283,87.222835 c -13.66819,-9.26821 -28.62411,-15.81524 -47.4456,-20.76956 -10.18083,-2.67986 -13.69421,-3.10248 -29.5544,-3.55504 -34.28347,-0.97825 -52.22694,5.0292 -64.66479,21.64968 -5.06635,6.77007 -7.01478,8.19666 -8.31706,6.08952 -1.18509,-1.91753 5.37614,-12.21135 10.84506,-17.01464 6.21303,-5.45685 16.62893,-10.99822 24.32724,-12.94235 15.39293,-3.88733 38.23137,-5.05705 51.80955,-2.65355 23.76615,4.2069 40.50507,9.76617 56.56889,18.78746 6.89793,3.87381 18.91265,12.33403 20.1658,14.19984 1.18258,1.76074 0.87419,4.60468 -0.48469,4.46977 -0.6875,-0.0683 -6.65,-3.78576 -13.25,-8.26113 z m -206.5,1.2829 c -16.65837,-11.00914 -46.70014,-22.09843 -70,-25.83904 -3.575,-0.57394 -13.56427,-1.04692 -22.19837,-1.05108 -13.96254,-0.007 -16.569705,0.2677 -23.57841,2.48175 -7.870636,2.48633 -18.029391,8.29081 -21.628199,12.35786 -3.085204,3.48661 -6.42279,2.3363 -5.121085,-1.76501 0.689359,-2.17198 9.182716,-8.84864 15.060758,-11.83932 16.399206,-8.34372 42.541426,-9.1764 72.465306,-2.30815 20.10933,4.61557 50.46348,17.63441 59.85147,25.67018 6.74182,5.77074 3.05069,7.51517 -4.85147,2.29281 z"
     style="fill:#000000" />
  <path
     id="path819"
     d="m 445.50164,124.9361 c -1.52983,-3.98668 0.15431,-7.64529 4.47189,-9.71465 5.40292,-2.58955 8.6382,-1.37017 8.6382,3.25577 0,6.70833 -10.94515,12.10062 -13.11009,6.45888 z"
     style="opacity:1;fill:#e9c46a;fill-opacity:1;fill-rule:evenodd;stroke:#e9c46a;stroke-width:2.87547398;stroke-miterlimit:4;stroke-dasharray:none;stroke-dashoffset:0;stroke-opacity:1" />
  <path
     id="path821"
     d="m 51.569861,119.50131 c -1.480687,-2.39581 -1.372296,-10.62149 0.159378,-12.09507 1.31489,-1.26502 7.504949,-2.08316 13.167212,-1.74031 4.043115,0.24481 3.278935,6.19883 -1.425883,11.10961 -4.083369,4.26211 -10.099561,5.64008 -11.900707,2.72577 z"
     style="opacity:1;fill:#264653;fill-opacity:1;fill-rule:evenodd;stroke:#264653;stroke-width:2.87547398;stroke-miterlimit:4;stroke-dasharray:none;stroke-dashoffset:0;stroke-opacity:1" />
  <path
     id="path823"
     d="m 239.80494,120.73889 c -5.37,-5.36999 0.76398,-14.91173 9.58611,-14.91173 4.84724,0 5.32562,0.3916 5.32562,4.35961 0,8.77251 -9.77452,15.68933 -14.91173,10.55212 z"
     style="opacity:1;fill:#2a9d8f;fill-opacity:0.94117647;fill-rule:evenodd;stroke:#2a9d8f;stroke-width:2.87547398;stroke-miterlimit:4;stroke-dasharray:none;stroke-dashoffset:0;stroke-opacity:0.94117647" />
  <text
     id="text828"
     y="159.91975"
     x="34.996914"
     style="font-style:normal;font-variant:normal;font-weight:normal;font-stretch:normal;font-size:32px;line-height:125%;font-family:Helvetica;-inkscape-font-specification:'Helvetica, Normal';font-variant-ligatures:normal;font-variant-caps:normal;font-variant-numeric:normal;font-feature-settings:normal;text-align:center;letter-spacing:0px;word-spacing:0px;writing-mode:lr-tb;text-anchor:middle;fill:#000000;fill-opacity:1;stroke:none;stroke-width:1px;stroke-linecap:butt;stroke-linejoin:miter;stroke-opacity:1"
     xml:space="preserve"><tspan
       y="159.91975"
       x="34.996914"
       id="tspan826">A</tspan></text>
  <text
     id="text832"
     y="67.101852"
     x="235.84877"
     style="font-style:normal;font-variant:normal;font-weight:normal;font-stretch:normal;font-size:32px;line-height:125%;font-family:Helvetica;-inkscape-font-specification:'Helvetica, Normal';font-variant-ligatures:normal;font-variant-caps:normal;font-variant-numeric:normal;font-feature-settings:normal;text-align:center;letter-spacing:0px;word-spacing:0px;writing-mode:lr-tb;text-anchor:middle;fill:#000000;fill-opacity:1;stroke:none;stroke-width:1px;stroke-linecap:butt;stroke-linejoin:miter;stroke-opacity:1"
     xml:space="preserve"><tspan
       y="67.101852"
       x="235.84877"
       id="tspan830">C</tspan></text>
  <text
     id="text836"
     y="97.533951"
     x="468.65433"
     style="font-style:normal;font-variant:normal;font-weight:normal;font-stretch:normal;font-size:32px;line-height:125%;font-family:Helvetica;-inkscape-font-specification:'Helvetica, Normal';font-variant-ligatures:normal;font-variant-caps:normal;font-variant-numeric:normal;font-feature-settings:normal;text-align:center;letter-spacing:0px;word-spacing:0px;writing-mode:lr-tb;text-anchor:middle;fill:#000000;fill-opacity:1;stroke:none;stroke-width:1px;stroke-linecap:butt;stroke-linejoin:miter;stroke-opacity:1"
     xml:space="preserve"><tspan
       y="97.533951"
       x="468.65433"
       id="tspan834">B</tspan></text>
  <g
     style="display:none"
     id="layer2">
    <text
       id="text841"
       y="47.320988"
       x="143.04832"
       style="font-style:normal;font-variant:normal;font-weight:normal;font-stretch:normal;font-size:32px;line-height:125%;font-family:Helvetica;-inkscape-font-specification:'Helvetica, Normal';font-variant-ligatures:normal;font-variant-caps:normal;font-variant-numeric:normal;font-feature-settings:normal;text-align:center;letter-spacing:0px;word-spacing:0px;writing-mode:lr-tb;text-anchor:middle;fill:#000000;fill-opacity:1;stroke:none;stroke-width:1px;stroke-linecap:butt;stroke-linejoin:miter;stroke-opacity:1"
       xml:space="preserve"><tspan
         y="47.320988"
         x="143.04832"
         id="tspan839">1</tspan></text>
    <text
       id="text845"
       y="201.0031"
       x="141.50926"
       style="font-style:normal;font-variant:normal;font-weight:normal;font-stretch:normal;font-size:32px;line-height:125%;font-family:Helvetica;-inkscape-font-specification:'Helvetica, Normal';font-variant-ligatures:normal;font-variant-caps:normal;font-variant-numeric:normal;font-feature-settings:normal;text-align:center;letter-spacing:0px;word-spacing:0px;writing-mode:lr-tb;text-anchor:middle;fill:#000000;fill-opacity:1;stroke:none;stroke-width:1px;stroke-linecap:butt;stroke-linejoin:miter;stroke-opacity:1"
       xml:space="preserve"><tspan
         y="201.0031"
         x="141.50926"
         id="tspan843">2</tspan></text>
    <text
       id="text849"
       y="42.756172"
       x="337.7963"
       style="font-style:normal;font-variant:normal;font-weight:normal;font-stretch:normal;font-size:32px;line-height:125%;font-family:Helvetica;-inkscape-font-specification:'Helvetica, Normal';font-variant-ligatures:normal;font-variant-caps:normal;font-variant-numeric:normal;font-feature-settings:normal;text-align:center;letter-spacing:0px;word-spacing:0px;writing-mode:lr-tb;text-anchor:middle;fill:#000000;fill-opacity:1;stroke:none;stroke-width:1px;stroke-linecap:butt;stroke-linejoin:miter;stroke-opacity:1"
       xml:space="preserve"><tspan
         y="42.756172"
         x="337.7963"
         id="tspan847">2</tspan></text>
    <text
       id="text853"
       y="102.09877"
       x="339.33536"
       style="font-style:normal;font-variant:normal;font-weight:normal;font-stretch:normal;font-size:32px;line-height:125%;font-family:Helvetica;-inkscape-font-specification:'Helvetica, Normal';font-variant-ligatures:normal;font-variant-caps:normal;font-variant-numeric:normal;font-feature-settings:normal;text-align:center;letter-spacing:0px;word-spacing:0px;writing-mode:lr-tb;text-anchor:middle;fill:#000000;fill-opacity:1;stroke:none;stroke-width:1px;stroke-linecap:butt;stroke-linejoin:miter;stroke-opacity:1"
       xml:space="preserve"><tspan
         y="102.09877"
         x="339.33536"
         id="tspan851">1</tspan></text>
    <text
       id="text857"
       y="213.17593"
       x="337.75723"
       style="font-style:normal;font-variant:normal;font-weight:normal;font-stretch:normal;font-size:32px;line-height:125%;font-family:Helvetica;-inkscape-font-specification:'Helvetica, Normal';font-variant-ligatures:normal;font-variant-caps:normal;font-variant-numeric:normal;font-feature-settings:normal;text-align:center;letter-spacing:0px;word-spacing:0px;writing-mode:lr-tb;text-anchor:middle;fill:#000000;fill-opacity:1;stroke:none;stroke-width:1px;stroke-linecap:butt;stroke-linejoin:miter;stroke-opacity:1"
       xml:space="preserve"><tspan
         y="213.17593"
         x="337.75723"
         id="tspan855">4</tspan></text>
  </g>
</svg>
