<?xml version="1.0" encoding="UTF-8" standalone="no"?>
<!-- Created with Inkscape (http://www.inkscape.org/) -->

<svg
   xmlns:dc="http://purl.org/dc/elements/1.1/"
   xmlns:cc="http://creativecommons.org/ns#"
   xmlns:rdf="http://www.w3.org/1999/02/22-rdf-syntax-ns#"
   xmlns:svg="http://www.w3.org/2000/svg"
   xmlns="http://www.w3.org/2000/svg"
   xmlns:sodipodi="http://sodipodi.sourceforge.net/DTD/sodipodi-0.dtd"
   xmlns:inkscape="http://www.inkscape.org/namespaces/inkscape"
   version="1.1"
   id="svg2"
   width="813"
   height="475"
   viewBox="0 0 813 475"
   sodipodi:docname="shortestpathsexercise.svg"
   inkscape:version="0.92.2 5c3e80d, 2017-08-06">
  <metadata
     id="metadata8">
    <rdf:RDF>
      <cc:Work
         rdf:about="">
        <dc:format>image/svg+xml</dc:format>
        <dc:type
           rdf:resource="http://purl.org/dc/dcmitype/StillImage" />
        <dc:title></dc:title>
      </cc:Work>
    </rdf:RDF>
  </metadata>
  <defs
     id="defs6" />
  <sodipodi:namedview
     pagecolor="#ffffff"
     bordercolor="#666666"
     borderopacity="1"
     objecttolerance="10"
     gridtolerance="10"
     guidetolerance="10"
     inkscape:pageopacity="0"
     inkscape:pageshadow="2"
     inkscape:window-width="1153"
     inkscape:window-height="639"
     id="namedview4"
     showgrid="false"
     inkscape:zoom="0.39852399"
     inkscape:cx="80.296296"
     inkscape:cy="237.5"
     inkscape:window-x="0"
     inkscape:window-y="673"
     inkscape:window-maximized="0"
     inkscape:current-layer="svg2" />
  <path
     style="fill:#000000"
     d="m 347.61796,424.73462 c -4.01857,-1.49814 -4.52929,-1.99308 -7.3124,-7.08647 -5.73275,-10.49157 3.60663,-25.4603 17.54345,-28.11781 5.12408,-0.97708 15.34381,2.18226 19.17473,5.92769 5.87924,5.74805 6.38154,10.28426 2.12494,19.19012 -4.62451,9.67564 -6.31833,10.73535 -17.85584,11.17117 -6.88818,0.2602 -10.92659,-0.0601 -13.67488,-1.0847 z m 17.90003,-1.69144 c 5.07956,-1.38902 7.12835,-3.23587 10.10809,-9.11179 2.75045,-5.42377 3.14073,-12.26914 0.88327,-15.49212 -1.69832,-2.42469 -11.12147,-6.29112 -15.33253,-6.29112 -1.52138,0 -5.12391,1.17492 -8.00562,2.61094 -4.09118,2.03872 -5.88545,3.73723 -8.18696,7.75 -3.25113,5.66848 -3.64762,9.07325 -1.62115,13.92118 1.8802,4.49802 3.82531,5.81626 9.88623,6.70008 7.63678,1.11361 7.88392,1.11186 12.26867,-0.0872 z m -9.96478,-12.62606 c 0.76171,-8.34162 1.89663,-11.63566 3.78248,-10.97853 1.3135,0.45769 1.33521,1.56139 0.19885,10.10877 l -0.78428,5.89922 4.38386,-0.69703 c 2.41113,-0.38337 5.45504,-0.96402 6.76425,-1.29035 1.71701,-0.42797 2.25621,-0.22082 1.93484,0.7433 -0.52712,1.58135 -3.23001,2.38217 -11.15232,3.30423 l -5.8371,0.67936 z m 101.96478,-6.98275 c -5.19262,-0.94529 -6.5,-1.38982 -6.5,-2.21012 0,-0.48718 1.74166,-0.65218 3.87035,-0.36666 2.41193,0.3235 4.14454,0.0755 4.59797,-0.65817 0.93938,-1.51996 -1.80757,-4.53494 -5.54061,-6.08122 -3.49673,-1.44839 -3.76845,-2.71154 -0.67771,-3.1505 3.00022,-0.4261 2.87741,-3.08127 -0.17586,-3.80205 -2.45875,-0.58043 -4.17528,-3.0175 -2.12535,-3.0175 0.61349,0 2.73214,0.6755 4.70811,1.50111 3.20677,1.33987 3.53096,1.80958 3.01827,4.37303 -0.44288,2.21439 -0.0135,3.3988 1.87522,5.1732 4.29627,4.03613 2.37458,9.22646 -3.05039,8.23888 z m -148.4256,-4.63265 c -2.98408,-0.63446 -5.62613,-1.76722 -5.87122,-2.51724 -0.36288,-1.11045 0.89421,-1.22911 6.77018,-0.63901 l 7.21581,0.72466 -1.24368,-2.36099 c -0.68402,-1.29854 -2.07658,-3.43418 -3.09458,-4.74585 -2.18192,-2.81135 -2.35135,-4.11514 -0.53479,-4.11514 1.38428,0 8.68388,11.53902 8.68388,13.72725 0,1.55145 -4.41029,1.52421 -11.9256,-0.0737 z m -52.0744,-6.58929 c 0,-3.87653 -0.13763,-4.06784 -2.5,-3.47492 -1.375,0.3451 -2.49189,0.24117 -2.48197,-0.23095 0.0253,-1.204 7.59079,-7.35841 9.04556,-7.35841 0.8158,0 0.99468,1.03702 0.56059,3.25 -0.35063,1.7875 -0.97364,5.01304 -1.38446,7.16787 -1.04571,5.48494 -3.23972,5.92271 -3.23972,0.64641 z m 137.40624,1.78402 c -1.08414,-1.75417 1.74241,-3.31423 12.37747,-6.83148 5.34396,-1.76737 14.89129,-5.58767 21.21629,-8.48956 6.325,-2.90189 16.45,-7.19426 22.5,-9.53861 6.05,-2.34435 14.375,-5.60121 18.5,-7.23746 9.975,-3.95675 30.0568,-10.75119 31.77649,-10.75119 0.75359,0 1.22466,0.70696 1.04683,1.57102 -0.2096,1.01846 -4.71976,3.09822 -12.82332,5.91319 -6.875,2.3882 -16.1,5.7622 -20.5,7.49777 -4.4,1.73558 -9.125,3.52846 -10.5,3.98419 -5.61581,1.86129 -24.92241,9.96587 -30.75814,12.91174 -3.43627,1.73462 -10.19801,4.43426 -15.02608,5.99918 -4.82807,1.56493 -10.20439,3.58278 -11.94738,4.48412 -3.75165,1.94005 -4.90495,2.03588 -5.86216,0.48709 z m -95.90624,-10.44791 c -3.3,-2.51822 -9.825,-7.08998 -14.5,-10.15947 -4.675,-3.06948 -10.3,-7.00038 -12.5,-8.73534 -4.07157,-3.2109 -23.8498,-15.50558 -24.94354,-15.50558 -0.33014,0 -4.39501,-1.87235 -9.03306,-4.16077 -7.35109,-3.62704 -10.49938,-6.19658 -9.19295,-7.50301 0.5883,-0.5883 22.21652,10.36776 31.66955,16.04264 4.675,2.80651 11.20412,7.14071 14.50915,9.63154 3.30504,2.49083 7.80504,5.60818 10,6.92744 7.60525,4.57107 21.49085,15.36938 21.49085,16.71262 0,2.11692 -1.08032,1.64877 -7.5,-3.25007 z m 208.5,-23.46613 c 0,-1.59304 1.98679,-5.14535 4.29557,-7.68032 1.12511,-1.23533 1.77411,-2.51759 1.44223,-2.84947 -0.33188,-0.33189 -4.27199,-1.07176 -8.7558,-1.64417 -5.30619,-0.6774 -8.34034,-1.53053 -8.69073,-2.44365 -0.29609,-0.7716 -0.36368,-1.57757 -0.1502,-1.79105 0.44088,-0.44089 18.60423,2.16269 20.70115,2.96735 2.08742,0.80102 0.54726,5.32576 -3.48982,10.25248 -3.41162,4.16344 -5.3524,5.3197 -5.3524,3.18883 z m 39.29385,-17.03989 c -2.86338,-1.10079 -6.32363,-3.32948 -7.68944,-4.95265 -4.93605,-5.86616 -4.33866,-15.86712 1.42288,-23.82069 3.93822,-5.43655 8.0613,-7.86324 14.78806,-8.7037 11.12737,-1.39027 12.53565,-1.16184 16.05736,2.60458 4.87984,5.21892 9.29579,14.79701 8.51926,18.47809 -1.72565,8.18041 -7.12006,13.71792 -16.05047,16.47624 -8.03516,2.48181 -10.40859,2.47041 -17.04765,-0.0819 z m 15.61427,-2.55369 c 5.3458,-1.7265 9.08006,-4.73041 12.23329,-9.84068 3.34878,-5.42719 2.13462,-11.30091 -4.00555,-19.37749 l -2.56771,-3.37748 -8.21856,0.51274 c -9.28386,0.5792 -12.23727,2.08665 -16.69733,8.52252 -5.41798,7.81815 -5.74758,15.8982 -0.8351,20.4722 5.14946,4.79465 11.69293,5.80045 20.09096,3.08819 z m -13.71784,-6.22308 c -0.92993,-0.57473 -0.94911,-1.51097 -0.0819,-3.99865 0.62278,-1.78651 0.88146,-4.79412 0.57485,-6.68358 -0.45989,-2.83391 -0.24644,-3.43537 1.21913,-3.43537 0.97713,0 2.24349,1.02469 2.81413,2.2771 1.59423,3.49896 6.29742,8.7229 7.85335,8.7229 1.66747,0 2.2691,-2.35674 2.80805,-11 0.28753,-4.61105 0.80007,-6.5 1.76371,-6.5 1.03163,0 1.32592,1.73772 1.22339,7.22378 -0.19951,10.67472 -0.78391,12.27622 -4.47967,12.27622 -1.69212,0 -4.43007,-0.96377 -6.08435,-2.14172 -2.47874,-1.76502 -3.16277,-1.89694 -3.88905,-0.75 -0.48471,0.76545 -0.88819,1.92766 -0.89661,2.5827 -0.0211,1.64463 -1.37007,2.32583 -2.82503,1.42662 z m -361.48333,6.71899 c -8.79542,-3.42914 -10.50201,-5.30315 -11.34692,-12.46011 -1.52887,-12.95057 6.97198,-23.95888 21.95751,-28.43418 3.65666,-1.09203 6.60565,0.0901 11.69491,4.68792 5.44573,4.91989 6.98755,8.16224 6.98755,14.69439 0,10.24202 -4.98326,19.4015 -12.38392,22.76227 -5.49367,2.49478 -7.72693,2.32965 -16.90913,-1.25029 z m 14.94836,-1.47732 c 6.94733,-3.29672 11.90338,-13.90041 10.7019,-22.89722 -0.53968,-4.04116 -1.44503,-5.75079 -4.87836,-9.21205 -3.04142,-3.06616 -5.01837,-4.24388 -7.09728,-4.22804 -6.71121,0.0512 -17.05994,7.57067 -19.95503,14.49958 -2.06179,4.93458 -1.85717,13.72509 0.38391,16.49272 1.99991,2.46978 11.35663,6.76201 15.03841,6.8986 1.29188,0.0479 3.90478,-0.65119 5.80645,-1.55359 z m -12.40532,-4.02155 c -2.23695,-0.90263 -1.31843,-2.33758 1.5,-2.34334 l 2.75,-0.006 0.28026,-11.49438 c 0.26765,-10.97648 0.18886,-11.494 -1.75,-11.494 -1.11664,0 -2.03026,-0.41418 -2.03026,-0.92041 0,-1.14477 12.34516,-2.54485 14.64785,-1.66123 2.42302,0.9298 0.50811,2.37883 -3.64785,2.76034 l -3.5,0.3213 -0.5,11.25224 -0.5,11.25225 2.75,-0.002 c 3.31441,-0.003 3.63741,1.52668 0.5,2.36747 -2.64282,0.70825 -8.71131,0.68976 -10.5,-0.032 z m -76.35131,-1.00439 c -0.0557,-1.55833 -0.0197,-4.31344 0.08,-6.12246 0.16696,-3.02887 -0.0142,-3.24006 -2.28959,-2.66897 -3.5952,0.90234 -4.24103,-1.20512 -0.89895,-2.93338 1.57054,-0.81215 3.44036,-2.18132 4.15514,-3.04258 0.71478,-0.86127 1.98219,-1.56594 2.81646,-1.56594 1.56886,0 1.52645,1.07727 -0.54795,13.9186 -0.82213,5.08925 -3.15861,6.79115 -3.3151,2.41473 z m 390.43355,-8.18581 c -3.39228,-0.35614 -6.47484,-0.95508 -6.85014,-1.33099 -1.85902,-1.86203 1.41793,-2.42898 11.61187,-2.00897 7.15082,0.29462 10.97199,0.10817 10.58591,-0.51652 -0.33229,-0.53767 -2.1962,-3.34332 -4.14202,-6.2348 -3.45125,-5.12853 -4.38977,-8.41169 -2.70264,-9.45439 0.45937,-0.28391 1.62452,1.15203 2.58922,3.19098 0.96471,2.03894 3.58395,6.08958 5.82054,9.00142 3.08199,4.01248 3.78604,5.57474 2.90799,6.45279 -1.36855,1.36855 -11.13553,1.81228 -19.82073,0.90048 z m -4.33223,-14.8666 c -16.38067,-9.995 -89.09036,-45.35573 -101.23607,-49.23389 -3.99341,-1.27511 -5.2482,-2.45445 -4.27938,-4.02204 0.36312,-0.58753 3.06905,-0.0399 6.80902,1.37807 14.79476,5.6092 86.91703,40.87698 100.97061,49.37461 3.41843,2.06699 6.36544,4.5376 6.5489,5.49025 0.47161,2.44887 -0.37401,2.16227 -8.81308,-2.987 z m -341.75001,3.05652 c -2.61323,-1.05388 -1.17959,-3.01603 2.29921,-3.14681 5.23629,-0.19685 5.72761,-0.96115 2.95478,-4.59651 -2.82882,-3.70878 -3.06354,-4.59412 -1.21799,-4.59412 0.7073,0 2.75554,1.91204 4.55164,4.24898 l 3.26564,4.24897 -2.16242,1.75103 c -1.18934,0.96306 -2.97577,1.75102 -3.96986,1.75102 -0.99408,0 -2.40673,0.18935 -3.13921,0.42077 -0.73249,0.23143 -1.89429,0.19393 -2.58179,-0.0833 z m 492.75001,-5.59465 c 0,-0.85767 1.35064,-1.16549 4.25,-0.9686 2.3375,0.15872 4.87807,-0.13012 5.64572,-0.64187 2.04548,-1.36364 0.57182,-4.12957 -2.898,-5.43928 -3.1374,-1.18424 -4.01653,-2.69304 -1.56915,-2.69304 0.78572,0 2.15125,-0.72268 3.03452,-1.60595 1.91361,-1.91361 0.45407,-4.39405 -2.58553,-4.39405 -1.03266,0 -1.87756,-0.45 -1.87756,-1 0,-1.71374 4.6626,-1.09551 7.13922,0.94661 2.28554,1.88457 2.30782,2.0416 0.69922,4.92695 -1.37555,2.46731 -1.42371,3.07161 -0.2798,3.51057 2.39797,0.92019 2.99292,5.73939 0.89769,7.27146 -2.3963,1.75222 -12.45633,1.82265 -12.45633,0.0872 z M 144.51798,303.0421 c -4.4,-2.71154 -10.925,-6.5047 -14.5,-8.42923 -3.575,-1.92453 -9.875,-5.49495 -14,-7.93425 -4.125,-2.43931 -11.325,-6.44423 -16,-8.89983 -9.884484,-5.19195 -12.771273,-7.1927 -11.791568,-8.1724 0.716738,-0.71674 18.013988,7.70308 20.832568,10.14072 1.57188,1.35944 9.31804,5.72864 20.959,11.82188 10.26761,5.37439 24.35229,14.13603 24.77819,15.41374 0.71677,2.15031 -2.22407,1.02279 -10.27819,-3.94063 z m 79.94616,3.01892 c -1.03335,-1.67199 0.0436,-2.33154 15.05385,-9.21916 29.13506,-13.36896 27.83533,-12.80672 53.5,-23.14319 23.27688,-9.37477 31.2535,-12.05096 33.42981,-11.21583 0.90444,0.34707 2.14122,-0.30875 3.0675,-1.62658 l 1.55203,-2.20811 -8.76458,-0.5 c -7.38718,-0.42142 -8.81806,-0.78066 -9.1049,-2.28587 -0.31171,-1.63572 0.5282,-1.76183 9.98991,-1.5 l 10.33023,0.28587 0.30008,3.07196 c 0.22947,2.34916 -0.77003,4.52561 -4.24793,9.25 -4.38744,5.95991 -6.55215,7.57896 -6.55215,4.90055 0,-0.70263 0.70052,-2.27763 1.5567,-3.5 0.85619,-1.22238 1.26295,-2.22251 0.90391,-2.22251 -1.24739,0 -11.97834,3.22729 -14.96061,4.49935 -1.65,0.70379 -12.45,5.0121 -24,9.57403 -11.55,4.56194 -29.94891,12.48667 -40.88646,17.61052 -10.93756,5.12386 -20.0235,9.3161 -20.19098,9.3161 -0.16749,0 -0.60687,-0.48921 -0.97641,-1.08713 z m 371.05385,-3.91287 c -1.17237,-1.89694 0.82835,-3.29465 12.3944,-8.65876 6.38308,-2.96035 12.9556,-6.11107 14.6056,-7.0016 5.75989,-3.10869 55.37238,-20.75942 74.30645,-26.43615 4.01855,-1.20483 6.94355,-2.50355 6.5,-2.88604 -0.44355,-0.3825 -3.41492,-1.29481 -6.60305,-2.02735 -3.18813,-0.73254 -6.02719,-1.70499 -6.30902,-2.16099 -1.3481,-2.18128 1.32759,-2.25028 11.28789,-0.29112 10.6536,2.09554 10.81482,2.1687 10.6258,4.8217 -0.21622,3.0348 -5.9554,13.64031 -7.38146,13.64031 -1.48493,0 -1.09525,-1.73369 1.57339,-7 2.92304,-5.76835 3.08017,-7 0.89301,-7 -1.01382,0 -1.39564,0.55077 -1.03441,1.49211 0.76889,2.00371 -3.04218,3.87387 -13.15706,6.45643 -7.84877,2.00397 -14.62197,4.32513 -48.03117,16.46015 -15.24986,5.53911 -27.04262,10.67363 -40.96788,17.83724 -8.20303,4.2199 -7.86305,4.11231 -8.70249,2.75407 z M 470.68466,278.48148 c -0.36667,-0.36666 -0.66667,-1.44288 -0.66667,-2.39159 0,-1.00593 -1.04207,-1.98647 -2.5,-2.35238 -2.81794,-0.70726 -3.40286,-2.58936 -0.80472,-2.58936 0.93241,0 2.93054,-1.18345 4.4403,-2.6299 1.67437,-1.60414 3.36521,-2.3919 4.33511,-2.01972 1.41543,0.54315 1.36707,1.04731 -0.4403,4.59006 -1.11672,2.18894 -2.03039,4.89781 -2.03039,6.01972 0,2.02679 -1.05742,2.64909 -2.33333,1.37317 z m -219.28667,-3.78544 c -0.83454,-2.1748 0.53791,-3.70872 2.70338,-3.02143 1.43693,0.45607 2.16493,-0.0494 2.91584,-2.02442 1.40022,-3.68285 1.28334,-4.19489 -1.09984,-4.8181 -2.69482,-0.70471 -1.52065,-2.68394 1.59225,-2.68394 3.08365,0 4.01256,2.94226 2.43654,7.71763 -0.90489,2.74187 -0.92343,3.78395 -0.0724,4.06764 2.74992,0.91664 0.76463,2.21473 -3.38718,2.21473 -3.039,0 -4.71491,-0.47825 -5.08862,-1.45211 z M 59.735579,269.67119 c -6.007984,-2.08024 -10.52734,-5.63552 -13.997539,-11.01156 -2.867385,-4.44216 -3.205064,-5.72103 -3.083168,-11.6767 0.106072,-5.18261 0.781399,-7.97102 3,-12.38696 3.930461,-7.82326 7.736578,-10.54756 15.620049,-11.18037 l 6.267299,-0.50308 6.215842,5.25656 c 9.881092,8.35616 12.378804,16.36628 8.590918,27.55093 -2.165437,6.39398 -4.650821,9.69047 -9.169823,12.1624 -5.106899,2.79351 -9.033023,3.31591 -13.443578,1.78878 z m 9.050876,-3.07077 c 5.698324,-2.38091 8.088432,-5.25382 10.311681,-12.39466 3.485805,-11.19603 1.48086,-16.80385 -8.957924,-25.05523 -4.99391,-3.94746 -5.58729,-4.15973 -9.843795,-3.52142 -5.332809,0.7997 -8.091129,3.24249 -11.697585,10.35949 -3.568941,7.04297 -3.638451,16.52394 -0.161527,22.03175 2.79453,4.42682 10.835187,10.1278 14.284242,10.1278 1.298371,0 4.02758,-0.69648 6.064908,-1.54773 z m -13.196772,-9.33626 c -0.302323,-0.48917 0.09501,-1.42444 0.882967,-2.07839 2.032993,-1.68723 5.776622,-13.49551 6.005968,-18.94422 0.139241,-3.30804 0.640267,-4.67979 1.790481,-4.90211 1.146614,-0.22163 3.028945,2.61573 6.673011,10.05866 2.791731,5.70206 5.075874,10.67848 5.075874,11.05871 0,1.78308 -3.170145,0.41202 -4.181954,-1.80866 -0.881984,-1.93574 -1.888219,-2.5 -4.458237,-2.5 -2.860917,0 -3.598539,0.54762 -5.342751,3.96656 -2.068488,4.05458 -5.451564,6.75745 -6.445359,5.14945 z m 12.412988,-12.86601 c -0.0084,-0.9625 -0.434214,-2.41239 -0.946205,-3.22197 -0.79744,-1.26096 -1.025622,-1.22512 -1.591676,0.25 -0.787092,2.05112 0.07367,4.72197 1.521809,4.72197 0.567262,0 1.024494,-0.7875 1.016072,-1.75 z m 293.015319,12.81377 c -4.92922,-0.99462 -9.45617,-3.557 -12.00254,-6.79379 -2.50086,-3.17893 -5.00005,-8.75724 -4.99188,-11.1421 0.0262,-7.63637 9.62825,-19.92549 17.23224,-22.05447 8.80033,-2.46394 26.05906,2.73243 29.19105,8.78904 2.16828,4.193 2.00429,5.71859 -1.38475,12.88238 -4.20906,8.89714 -11.03569,15.87822 -17.36492,17.7578 -5.43415,1.61377 -5.45665,1.61495 -10.6792,0.56114 z m 9.12479,-3.08178 c 7.37108,-2.04746 18.40593,-17.72213 17.69571,-25.13623 -0.27351,-2.85525 -0.99439,-3.68034 -4.9171,-5.62792 -5.60155,-2.78111 -15.60622,-4.76023 -19.33394,-3.82463 -1.50823,0.37854 -4.91371,2.71942 -7.56773,5.20194 -8.00303,7.4859 -9.83377,13.89342 -6.07482,21.26159 2.33767,4.5822 3.92118,5.96814 8.81361,7.71395 4.58938,1.63766 6.69531,1.71375 11.38427,0.4113 z m -14.40381,-3.6792 c -0.25426,-0.44154 0.009,-5.88304 0.58423,-12.09225 0.87176,-9.40412 1.3094,-11.23586 2.62066,-10.96856 1.20116,0.24485 1.49736,1.33425 1.25012,4.59781 -0.57924,7.64587 1.01711,7.64859 8.97507,0.0153 6.37071,-6.11079 9.84894,-8.27516 9.84894,-6.12862 0,0.39957 -3.24256,3.99083 -7.20569,7.98059 l -7.20569,7.25411 2.89278,3.01941 c 2.49724,2.60655 2.63442,3.01941 1.0033,3.01941 -1.03922,0 -3.35901,-1.42432 -5.1551,-3.16516 -3.55125,-3.44201 -4.01733,-3.12505 -4.54106,3.08815 -0.271,3.21487 -2.04008,5.16403 -3.06756,3.3798 z m 377.77902,3.38097 c -7.47437,-2.72037 -14.07883,-8.92183 -15.05753,-14.13873 -1.13564,-6.05347 1.86355,-12.0768 9.85241,-19.78675 8.65895,-8.35665 12.34519,-9.59463 21.20512,-7.12147 3.16463,0.88338 14.35324,13.41203 16.1283,18.05996 3.0504,7.98735 0.0451,16.62969 -7.74525,22.27299 -3.75426,2.71957 -4.91104,3.02345 -11.28309,2.964 -4.65723,-0.0435 -9.16425,-0.81756 -13.09996,-2.25 z m 23.98859,-5.33319 c 9.87878,-10.31007 8.47454,-18.87092 -4.74976,-28.9567 -8.32746,-6.35111 -11.54118,-6.16171 -20.20804,1.19091 -6.81434,5.78102 -11.53079,13.10131 -11.53079,17.89666 0,3.68506 5.69559,9.37957 12.05758,12.0553 3.86942,1.62741 7.54272,2.31417 12.70924,2.37612 l 7.26683,0.0871 4.45494,-4.64943 z m -20.73859,-2.06682 c -3.283,-0.49734 -3.43085,-1.91633 -1.27,-12.18869 0.81401,-3.86964 1.20659,-7.74823 0.8724,-8.61909 -0.51929,-1.35326 0.24665,-1.53925 5.27,-1.27968 5.27123,0.27238 5.91135,0.5418 6.20473,2.61153 0.17992,1.26929 -0.40709,3.42836 -1.30446,4.79792 -1.57519,2.40405 -1.52601,2.58872 1.42288,5.34339 3.18255,2.97295 3.9707,6.73462 1.85445,8.85087 -1.14725,1.14725 -7.19112,1.37129 -13.05,0.48375 z m 9.68142,-2.60995 c 2.67759,-1.9579 1.17936,-5.21212 -3.21971,-6.99334 -4.30688,-1.74389 -4.75845,-1.45616 -5.50897,3.51018 -0.44023,2.9131 -0.20432,3.78404 1.11976,4.134 3.29624,0.87119 5.823,0.65506 7.60892,-0.65084 z m -2.59194,-14.22085 c 1.56849,-3.44245 1.50252,-3.64062 -1.08948,-3.2725 -1.61101,0.2288 -2.33986,1.10054 -2.56642,3.06955 -0.41012,3.56433 2.06183,3.70155 3.6559,0.20295 z m -48.08948,0.83967 c -4.78559,-1.59584 -6.29739,-3.29262 -2.93366,-3.29262 0.99899,0 4.41804,0.48095 7.59789,1.06878 3.17985,0.58782 6.04315,0.80717 6.36288,0.48744 0.31974,-0.31973 -0.17431,-2.16595 -1.09789,-4.1027 -0.92357,-1.93676 -1.67922,-4.23621 -1.67922,-5.10989 0,-1.35757 0.23794,-1.39105 1.63663,-0.23024 2.23626,1.85593 5.42807,9.55442 4.72303,11.39172 -0.76455,1.99239 -8.32756,1.88239 -14.60966,-0.21249 z m -613.083339,0.0407 c -1.454304,-1.45429 -0.221375,-2.45286 11.583333,-9.38152 6.737496,-3.95451 18.291756,-10.79197 25.676116,-15.19436 13.80845,-8.23229 26.54075,-14.75744 28.79567,-14.75744 3.20536,0 0.75955,2.84694 -4.2183,4.91015 -5.15764,2.13772 -19.5357,10.38621 -48.278924,27.69692 -13.38757,8.06272 -12.608133,7.67603 -13.557895,6.72626 z M 321.0897,230.06028 c -4.94,-0.96911 -6.9985,-2.39944 -5.52171,-3.83672 0.57048,-0.55521 2.74773,-0.57261 5.45,-0.0436 2.475,0.48457 6.5125,0.90063 8.97222,0.92458 l 4.47222,0.0436 -2.16769,-2.1677 c -1.61206,-1.61206 -2.50208,-1.89191 -3.47222,-1.09179 -0.96859,0.79884 -2.59213,0.31602 -6.30453,-1.87488 -7.51109,-4.43273 -18.15643,-9.28472 -26,-11.85042 -3.85,-1.25937 -10.825,-3.86099 -15.5,-5.78137 -4.675,-1.92037 -14.85106,-5.65726 -22.61347,-8.30418 -7.76242,-2.64692 -18.56242,-6.80468 -24,-9.23947 -5.43759,-2.43479 -10.89903,-4.74146 -12.13653,-5.12593 -1.31604,-0.40887 -2.25,-1.50125 -2.25,-2.63165 0,-1.06293 0.16311,-1.93261 0.36246,-1.93261 0.49375,0 12.88196,5.21623 19.64077,8.27003 3.02678,1.36757 11.35178,4.52497 18.5,7.01644 7.14823,2.49147 17.13054,6.14171 22.18292,8.11164 5.05239,1.96993 14.50239,5.39661 21,7.61484 6.49762,2.21823 14.35668,5.59778 17.46458,7.5101 6.69532,4.1197 8.05652,4.39091 4.83683,0.96371 -1.83217,-1.95026 -2.09312,-2.7812 -1.16492,-3.7094 0.92821,-0.92821 2.54696,0.1388 7.22629,4.76324 3.31658,3.27767 6.30371,7.04192 6.63807,8.36499 1.17834,4.66279 -4.64882,6.15791 -15.61529,4.00655 z m 87.37444,-1.99927 c -1.07341,-1.73682 0.40377,-2.566 12.05385,-6.76609 23.14407,-8.3439 60.16055,-24.64661 67,-29.50798 1.65,-1.17279 7.95,-4.63919 14,-7.70311 6.05,-3.06391 14.825,-7.63169 19.5,-10.15061 10.98029,-5.91624 13,-6.5339 13,-3.97561 0,1.38963 -1.48352,2.58243 -5.20063,4.18149 -2.86034,1.23049 -6.9977,3.3717 -9.19413,4.75824 -2.19642,1.38654 -8.51864,4.76842 -14.04937,7.51528 -5.53073,2.74687 -11.85587,6.20361 -14.05587,7.68165 -2.2,1.47804 -5.8,3.50813 -8,4.51131 -2.2,1.00318 -9.85,4.61615 -17,8.02881 -12.26218,5.85269 -24.34177,10.7655 -46.63837,18.96798 -10.89505,4.00808 -10.50923,3.92498 -11.41548,2.45864 z m 288.08865,-7.85656 c -0.32078,-0.51903 -4.28483,-3.70083 -8.80902,-7.07067 -4.52418,-3.36984 -9.03344,-6.78304 -10.02058,-7.58488 -2.52717,-2.05279 -31.50638,-21.40075 -32.05388,-21.40075 -0.24788,0 -4.65834,-2.68963 -9.80101,-5.97695 -15.66791,-10.01531 -26.11396,-15.98827 -31.10031,-17.78291 -2.6125,-0.94027 -4.75,-2.27895 -4.75,-2.97486 0,-3.30219 8.46455,0.20769 24.17678,10.02505 5.67777,3.5476 17.07322,10.59924 25.32322,15.6703 23.98885,14.74534 50.5,33.94409 50.5,36.57092 0,1.62541 -2.54661,2.01106 -3.4652,0.52476 z M 455.04948,195.77964 c -1.31414,-1.31414 0.63584,-3.63149 3.05577,-3.63149 1.96081,0 3.91274,-2.76915 3.91274,-5.55089 0,-1.18976 -0.58532,-1.52931 -1.999,-1.15962 -1.09946,0.28751 -2.27525,0.0758 -2.61287,-0.4705 -1.03815,-1.67976 1.32556,-3.10766 4.02342,-2.43054 3.09682,0.77725 4.34548,4.65464 2.67772,8.31496 -0.94235,2.06823 -0.87479,2.8761 0.35404,4.23395 1.40212,1.54933 1.13717,1.67802 -3.45467,1.67802 -2.73529,0 -5.41601,-0.44275 -5.95715,-0.98389 z m -299.0315,-1.04855 c 0,-0.77939 1.9125,-3.02058 4.25,-4.98043 4.38529,-3.6768 3.8198,-4.34331 -2.21627,-2.61218 -2.33155,0.66868 -3.78825,0.65515 -4.48504,-0.0416 -1.53036,-1.53036 0.87914,-2.6648 8.58479,-4.04188 11.75213,-2.10022 12.35401,-0.0604 2.34806,7.95787 -6.64515,5.32505 -8.48154,6.13011 -8.48154,3.71822 z m -46.39521,-3.17047 c -0.33263,-0.86683 -0.60479,-2.82684 -0.60479,-4.35559 0,-2.32989 -0.36398,-2.71725 -2.25,-2.39454 -1.2375,0.21176 -2.90117,-0.0445 -3.69705,-0.56947 -1.26086,-0.83166 -1.25466,-1.57402 0.0482,-5.76926 0.97785,-3.14877 2.13358,-4.93771 3.34006,-5.17006 1.50432,-0.2897 1.7247,0.0786 1.194,1.99558 -1.98247,7.16095 -1.9822,7.06376 -0.0184,6.69986 1.05959,-0.19636 2.74667,-2.20779 3.85738,-4.59899 2.30112,-4.954 5.10266,-5.88395 4.20504,-1.39583 -0.31926,1.59626 -0.0618,3.36325 0.58427,4.00927 0.87347,0.87347 0.6172,1.53186 -1.05107,2.70037 -1.36091,0.95322 -2.44925,3.06539 -2.84062,5.51289 -0.70123,4.38525 -1.83823,5.75599 -2.76696,3.33577 z m 172.39522,-4.97149 c 0,-2.22646 -0.39235,-3.31653 -1.04789,-2.91138 -0.57633,0.35619 -1.77835,0.36732 -2.67115,0.0247 -1.32338,-0.50783 -0.99125,-1.16327 1.79789,-3.54797 5.89836,-5.04307 6.82668,-4.08192 4.7494,4.91736 -1.35795,5.88298 -2.82825,6.67175 -2.82825,1.51729 z m 383.75,-3.10994 c -3.85768,-1.46197 -6.75,-3.15218 -6.75,-3.94456 0,-1.65555 0.51397,-1.71696 3.04276,-0.3636 1.6431,0.87936 2.12497,0.51144 3.43426,-2.62212 2.06756,-4.94838 1.94346,-5.52222 -1.12213,-5.18861 -1.45481,0.15832 -2.84231,-0.27465 -3.08333,-0.96215 -0.27489,-0.7841 0.49604,-1.25 2.06838,-1.25 1.37864,0 3.91829,-1.18785 5.64367,-2.63966 4.90007,-4.12314 5.78,-1.81602 2.09305,5.4878 -1.69216,3.35216 -3.07666,6.80562 -3.07666,7.67437 0,0.86875 1.575,2.23762 3.5,3.04194 3.39833,1.41991 4.77778,3.49222 2.25,3.38011 -0.6875,-0.0305 -4.2875,-1.20658 -8,-2.61352 z M 190.4901,182.23527 c -4.89124,-0.80457 -7.94624,-2.83518 -10.90827,-7.25055 -4.94735,-7.37482 -5.94363,-16.21166 -2.57269,-22.81925 3.23575,-6.34259 14.68428,-15.01732 19.81919,-15.01732 3.09204,0 13.6097,8.16651 16.87773,13.10482 2.26135,3.41713 2.52178,4.64429 2.06192,9.71573 -0.87722,9.67411 -7.12134,19.4923 -14.0651,22.11583 -3.04131,1.14909 -4.98462,1.17521 -11.21278,0.15074 z m 11.6062,-4.36092 c 7.08429,-4.7741 12.12844,-16.75507 10.0187,-23.7967 -1.23626,-4.12628 -9.70225,-12.54133 -13.60193,-13.52009 -4.6997,-1.17955 -16.92231,8.21603 -19.45613,14.95601 -1.51013,4.01695 -0.26908,12.33107 2.58727,17.3329 2.76895,4.84877 3.54028,5.43877 8.3398,6.37921 6.28531,1.23159 8.67515,0.96496 12.11229,-1.35133 z m -12.27036,-4.25158 c -0.85941,-0.8594 0.23625,-22.84832 1.18776,-23.83749 1.78561,-1.85628 3.00428,0.74873 3.00428,6.42189 0,5.27431 0.22443,5.94098 2,5.94098 1.1,0 2.3375,0.1125 2.75,0.25 0.4125,0.1375 1.05437,-2.82937 1.42637,-6.59304 0.72959,-7.38141 1.2567,-8.62389 2.94315,-6.93744 0.73931,0.73931 0.85444,4.48622 0.3605,11.733 -0.61767,9.06199 -0.9679,10.60099 -2.35286,10.33896 -1.02719,-0.19434 -1.74435,-1.52527 -1.94498,-3.60955 -0.28199,-2.92934 -0.62031,-3.26674 -3,-2.99181 -2.36736,0.27351 -2.74087,0.82896 -3.18218,4.73223 -0.45931,4.06247 -1.78757,5.95674 -3.19204,4.55227 z m 344.00936,6.00936 c -0.28381,-0.28382 0.0933,-2.865 0.83801,-5.73597 0.74472,-2.87097 1.21033,-5.65105 1.0347,-6.17796 -0.17564,-0.5269 -4.44715,-1.06571 -9.49225,-1.19733 -9.2307,-0.24083 -11.19777,-0.67358 -11.19777,-2.46347 0,-0.59109 4.60994,-0.86219 11.75,-0.69099 l 11.75,0.28174 -0.16744,6.16148 c -0.20503,7.54463 -2.27975,12.058 -4.51525,9.8225 z m 18.79396,-10.48677 c -2.6888,-1.05008 -5.9319,-2.88925 -7.20688,-4.08703 -4.57231,-4.29546 -5.66107,-19.53641 -1.81495,-25.40634 0.93186,-1.42219 3.54295,-3.65296 5.80242,-4.95726 6.11034,-3.52724 18.23702,-6.83878 22.27156,-6.0819 4.99072,0.93626 9.91865,5.80238 12.2873,12.13316 3.57932,9.56657 2.34363,16.8329 -4.18503,24.60959 -4.74026,5.64642 -17.75087,7.46224 -27.15442,3.78978 z m 15.88873,-1.09864 c 4.76956,-1.30003 7.78714,-3.8519 11.6409,-9.84435 3.27738,-5.0962 3.64356,-9.57938 1.32025,-16.16432 -2.43866,-6.91192 -5.91439,-9.8899 -11.54291,-9.8899 -6.98292,0 -16.92987,3.40489 -20.69186,7.08293 -3.79901,3.71423 -5.60674,9.54864 -4.73426,15.27969 1.31311,8.62544 3.07373,10.7436 11.00788,13.24334 5.06198,1.59484 7.98132,1.66055 13,0.29261 z m -2.5,-12.81524 c 0,-5.76735 -0.12561,-6.08333 -2.41821,-6.08333 -1.33002,0 -3.01752,-0.22168 -3.75,-0.49261 -0.82376,-0.3047 -2.38071,1.4119 -4.0815,4.5 -1.87794,3.40975 -3.38388,4.99261 -4.75,4.99261 -2.51658,0 -2.50313,-0.1702 0.34498,-4.36713 1.2899,-1.90078 2.92338,-5.52076 3.62996,-8.04441 0.94005,-3.35751 1.78637,-4.58846 3.15473,-4.58846 1.10849,0 1.87628,0.71267 1.88535,1.75 0.008,0.9625 0.42413,2.39606 0.92379,3.1857 1.4304,2.26053 3.96284,-0.47024 4.69766,-5.06557 0.46293,-2.89503 1.09057,-3.87013 2.49105,-3.87013 1.64044,0 1.85995,0.77367 1.77329,6.25 -0.15272,9.65171 -1.27315,17.04948 -2.6511,17.50418 -0.90822,0.2997 -1.25,-1.25086 -1.25,-5.67085 z m -46,-8.25173 c -2.38186,-0.99239 -2.40549,-1.08059 -0.5,-1.86632 1.1,-0.45359 3.9125,-0.85634 6.25,-0.89499 2.3375,-0.0387 4.25,-0.33681 4.25,-0.66256 0,-0.32575 -0.9,-1.73644 -2,-3.13486 -1.1,-1.39842 -1.97354,-3.7194 -1.94119,-5.15773 0.055,-2.44433 0.13661,-2.4888 1.25,-0.68079 0.65515,1.0639 2.92953,3.86938 5.05417,6.2344 5.25073,5.84481 4.50921,7.34951 -3.5816,7.26786 -3.45476,-0.0349 -7.40638,-0.53211 -8.78138,-1.10501 z m -293.33333,-4.49827 c -1.7131,-1.71309 -0.44967,-2.65003 14.33333,-10.6294 4.125,-2.22653 13.8,-7.4838 21.5,-11.68282 7.7,-4.19903 19.95917,-10.01898 27.2426,-12.93324 12.51215,-5.00639 13.20945,-5.43074 12.64159,-7.693259 -0.5063,-2.01727 -0.22937,-2.39648 1.7574,-2.40648 1.29713,-0.006 4.82944,-0.66943 7.84959,-1.47311 4.73064,-1.25886 5.68687,-1.26555 6.9041,-0.0483 1.21723,1.21724 1.01071,2.18269 -1.49118,6.970729 -2.71093,5.18812 -4.17601,6.45732 -5.69755,4.93578 -0.34473,-0.34473 0.0303,-1.89738 0.83333,-3.45034 1.96312,-3.79625 1.83956,-4.922879 -0.53988,-4.922879 -1.11852,0 -2,0.66667 -2,1.512609 0,1.61755 -5.2487,4.21114 -21.27278,10.51173 -9.2516,3.63769 -37.56523,18.26242 -53.55985,27.66508 -8.16394,4.79928 -7.59095,4.55366 -8.5007,3.64391 z m 269.33093,-14.24022 c -41.08781,-20.8396 -73.56713,-33.617719 -99.4976,-39.144679 -6.58963,-1.40455 -9.08945,-2.75898 -7.68474,-4.16369 0.9011,-0.9011 8.79273,0.84289 26.68474,5.89715 17.3012,4.88737 41.21663,14.806379 75.5,31.313909 13.475,6.48825 25.2875,12.05436 26.25,12.36912 1.67396,0.54744 2.55605,4.63559 1,4.63461 -0.4125,-2.6e-4 -10.42608,-4.90815 -22.2524,-10.90642 z m -234.4976,-17.83143 c -5.4522,-0.79721 -7.12872,-4.26168 -2.0623,-4.26168 1.62401,0 2.68482,-0.88158 3.5373,-2.93964 1.54432,-3.728309 0.62711,-5.249579 -2.66666,-4.422899 -1.93262,0.48506 -2.45578,0.30016 -2.11171,-0.74633 0.6581,-2.00156 6.20256,-2.31999 7.75819,-0.44557 1.0504,1.26566 1.01302,2.37226 -0.20512,6.072429 -0.81928,2.4886 -1.09812,4.76667 -0.61965,5.06238 1.06418,0.65771 1.16036,2.47765 0.11995,2.2698 -0.4125,-0.0824 -2.1,-0.34723 -3.75,-0.58849 z m 80.70536,-2.98284 c -7.16742,-2.11155 -10.66743,-5.62062 -12.74942,-12.782419 -3.26909,-11.24528 -0.45029,-21.40097 7.84846,-28.27677 7.29239,-6.042 10.89386,-6.92945 19.10311,-4.70731 7.74588,2.09671 13.36576,6.44085 16.05909,12.4136 1.62829,3.6109 1.70326,4.73719 0.6335,9.51739 -2.28922,10.22928 -12.09862,22.351529 -19.82277,24.496539 -4.58108,1.27218 -4.49185,1.27751 -11.07197,-0.66103 z m 9.93192,-2.3003 c 6.20455,-1.7234 15.34929,-13.354479 17.7933,-22.631079 2.22562,-8.44771 -3.26532,-15.0028 -15.76752,-18.82329 -4.23646,-1.2946 -8.64877,0.37329 -14.29094,5.40207 -9.0256,8.04439 -10.78032,18.03558 -5.22396,29.74475 1.16707,2.459419 2.81626,3.750119 6.69999,5.243629 6.1156,2.35178 6.1429,2.35448 10.78913,1.06392 z m -5.55897,-7.099039 c -2.15693,-0.50577 -4.51943,-1.41567 -5.25,-2.02199 -1.86914,-1.55125 -1.73629,-6.85751 0.17169,-6.85751 0.92762,0 1.5,0.94054 1.5,2.46482 0,2.91716 2.9341,4.7929 6.79945,4.34683 3.77252,-0.43536 4.12149,-5.06189 0.86603,-11.48164 -2.84702,-5.61429 -5.08878,-7.80558 -8.91548,-8.71475 -5.75631,-1.36762 -2.53614,-2.61526 6.75,-2.61526 5.66667,0 9.5,0.40351 9.5,1 0,0.55 -1.725,1 -3.83333,1 -2.10834,0 -4.0933,0.25996 -4.41103,0.57769 -0.31773,0.31773 0.95704,3.15405 2.83281,6.30292 3.67549,6.17008 4.72428,12.83272 2.45117,15.57165 -1.42289,1.71448 -2.69736,1.77883 -8.46131,0.42724 z m 121.2474,-1.78697 c -0.91661,-1.46773 -1.9519,-1.78403 -4.49075,-1.37204 -2.55231,0.41419 -3.45356,0.13403 -3.97972,-1.23713 -0.8823,-2.29925 2.37608,-4.76509 5.32163,-4.02725 1.56892,0.393 2.76648,-0.20427 4.28804,-2.13863 2.47606,-3.14781 2.29305,-5.81572 -0.39935,-5.82172 -1.04595,-0.002 -2.08858,-0.56483 -2.31697,-1.25 -0.608,-1.82401 4.28833,-1.56598 6.17998,0.32567 2.26659,2.26659 1.94151,4.8353 -1.06393,8.40706 -2.2774,2.70654 -2.48114,3.4704 -1.5,5.62378 1.38783,3.04595 1.40272,3.39773 0.14383,3.39773 -0.54534,0 -1.52758,-0.85836 -2.18276,-1.90747 z"
     id="path817"
     inkscape:connector-curvature="0" />
</svg>
