<?xml version="1.0" encoding="UTF-8" standalone="no"?>
<!-- Created with Inkscape (http://www.inkscape.org/) -->

<svg
   xmlns:dc="http://purl.org/dc/elements/1.1/"
   xmlns:cc="http://creativecommons.org/ns#"
   xmlns:rdf="http://www.w3.org/1999/02/22-rdf-syntax-ns#"
   xmlns:svg="http://www.w3.org/2000/svg"
   xmlns="http://www.w3.org/2000/svg"
   xmlns:sodipodi="http://sodipodi.sourceforge.net/DTD/sodipodi-0.dtd"
   xmlns:inkscape="http://www.inkscape.org/namespaces/inkscape"
   version="1.1"
   id="svg2"
   width="310"
   height="217"
   viewBox="0 0 310 217"
   sodipodi:docname="logo.svg"
   inkscape:version="0.92.2 5c3e80d, 2017-08-06">
  <metadata
     id="metadata8">
    <rdf:RDF>
      <cc:Work
         rdf:about="">
        <dc:format>image/svg+xml</dc:format>
        <dc:type
           rdf:resource="http://purl.org/dc/dcmitype/StillImage" />
        <dc:title></dc:title>
      </cc:Work>
    </rdf:RDF>
  </metadata>
  <defs
     id="defs6" />
  <sodipodi:namedview
     pagecolor="#ffffff"
     bordercolor="#666666"
     borderopacity="1"
     objecttolerance="10"
     gridtolerance="10"
     guidetolerance="10"
     inkscape:pageopacity="0"
     inkscape:pageshadow="2"
     inkscape:window-width="782"
     inkscape:window-height="480"
     id="namedview4"
     showgrid="false"
     inkscape:zoom="1.0451613"
     inkscape:cx="30.617284"
     inkscape:cy="108.5"
     inkscape:window-x="0"
     inkscape:window-y="0"
     inkscape:window-maximized="0"
     inkscape:current-layer="svg2" />
  <path
     style="fill:#000000"
     d="m 150.83213,192.25 c -0.81282,-0.9625 -3.79608,-5.45931 -6.62947,-9.9929 -5.88919,-9.42308 -15.2344,-20.72161 -30.84051,-37.28675 C 107.38797,138.62904 100.475,130.98226 98,127.97751 95.525,124.97276 87.610158,116.3789 80.411462,108.88004 73.212767,101.38119 62.992617,90.127967 57.700019,83.872882 52.40742,77.617797 44.459762,68.925493 40.038556,64.556652 32.619922,57.225883 30.143537,53 33.266312,53 c 1.31248,0 21.286113,19.840374 26.174631,26 1.527755,1.925 5.091033,6.046989 7.918396,9.159975 2.827364,3.112986 5.956386,6.712986 6.953383,8 C 76.639983,99.164212 76.726902,99.502329 69.001742,75.5 63.458393,58.27663 58,37.870528 58,34.370191 c 0,-2.562019 1.967978,-1.382593 3.396059,2.035287 0.782595,1.873013 1.959057,6.035513 2.61436,9.25 C 65.866877,54.76204 78.779251,94.528944 81.006765,98 c 0.656268,1.022639 0.967483,-1.428064 0.977922,-7.700779 0.01338,-8.039132 0.487731,-12.092242 2.580508,-22.049221 0.483359,-2.299717 2.824858,-3.045931 3.932747,-1.253331 0.338786,0.548169 -0.178603,5.693085 -1.149754,11.433148 -1.458748,8.622043 -1.578377,11.736958 -0.688092,17.916722 1.617837,11.229941 4.277845,15.950291 10.495621,18.625101 5.607603,2.41233 7.802983,2.20467 12.882703,-1.21855 4.21852,-2.84286 7.71614,-8.11646 11.44281,-17.25309 4.37713,-10.731384 10.42428,-22.5 11.56132,-22.5 3.27634,0 2.19668,3.304347 -9.69053,29.65821 -3.19064,7.07363 -6.71948,10.98756 -12.58744,13.96108 -3.95744,2.00539 -5.78994,2.38327 -8.96013,1.84767 -3.738284,-0.63158 -3.920044,-0.55147 -2.933063,1.29273 1.975773,3.69177 8.587093,8.58482 17.111683,12.6644 8.01369,3.83508 9.04871,4.07591 17.51693,4.07591 6.23761,0 10.8416,-0.60233 15,-1.96243 6.96983,-2.27963 33.09772,-15.34506 49,-24.50277 19.22847,-11.073189 59.44492,-38.417125 75.79863,-51.536951 9.69074,-7.774431 16.35974,-12.459187 17.25,-12.117562 2.26405,0.8688 1.73171,2.28501 -1.79863,4.78493 -1.7875,1.265772 -8.875,6.853376 -15.75,12.416897 -12.73285,10.30392 -50.80962,36.183286 -68,46.217066 -29.62033,17.28897 -49.70528,27.00021 -61.51353,29.74231 -10.16593,2.36073 -16.42446,1.31786 -31.23647,-5.205 -2.9264,-1.28871 -0.66943,1.74641 8.01,10.77169 8.82719,9.17893 15.66954,17.24287 22.27527,26.25214 5.48316,7.47827 13.32149,20.44958 12.72049,21.05059 -1.08757,1.08756 -2.93405,0.60298 -4.42363,-1.16091 z"
     id="path817"
     inkscape:connector-curvature="0" />
</svg>
