<?xml version="1.0" encoding="UTF-8" standalone="no"?>
<svg
   xmlns:dc="http://purl.org/dc/elements/1.1/"
   xmlns:cc="http://creativecommons.org/ns#"
   xmlns:rdf="http://www.w3.org/1999/02/22-rdf-syntax-ns#"
   xmlns:svg="http://www.w3.org/2000/svg"
   xmlns="http://www.w3.org/2000/svg"
   viewBox="0 0 280 262"
   height="262"
   width="280"
   id="svg2"
   version="1.1">
  <metadata
     id="metadata8">
    <rdf:RDF>
      <cc:Work
         rdf:about="">
        <dc:format>image/svg+xml</dc:format>
        <dc:type
           rdf:resource="http://purl.org/dc/dcmitype/StillImage" />
        <dc:title></dc:title>
      </cc:Work>
    </rdf:RDF>
  </metadata>
  <defs
     id="defs6" />
  <path
     id="path817"
     d="m 117.38286,230.85415 c -1.38042,-0.91852 -2.33678,-3.55236 -3.49213,-9.61744 -0.51433,-2.69999 -1.86504,-7.45943 -3.0016,-10.57654 l -2.06646,-5.66746 -11.679248,-1.81463 c -6.423595,-0.99805 -12.986326,-2.03739 -14.583851,-2.30965 l -2.90459,-0.49502 0.656294,4.78819 c 0.360962,2.63351 1.609904,7.40356 2.775425,10.60011 2.198424,6.02938 2.017719,8.88408 -0.56237,8.88408 -1.558244,0 -4.305948,-7.85114 -6.795925,-19.41829 -1.236745,-5.74529 -1.401072,-5.96065 -5.621437,-7.36744 l -4.347451,-1.44915 -5.764967,5.70481 c -3.170731,3.13765 -7.737187,8.11865 -10.147678,11.06889 -2.875237,3.51905 -5.156618,5.38077 -6.63271,5.41263 -1.286374,0.0277 -2.25,-0.55181 -2.25,-1.35325 0,-0.77099 4.275,-5.89786 9.5,-11.39303 8.943424,-9.40587 10.887311,-12.20517 8.47549,-12.20517 -2.418544,0 -14.299863,-8.5745 -18.98578,-13.70164 -10.651563,-11.6545 -14.98971,-26.18409 -14.98971,-50.20445 0,-18.92891 5.361406,-38.664872 14.370638,-52.900002 5.053728,-7.98519 18.13791,-11.80621 45.129362,-13.17928 37.761578,-1.92095 42.658878,-1.80911 56.806088,1.29731 7.04335,1.54656 16.04335,3.84238 20,5.10181 7.67857,2.44415 19.13566,7.87397 20.18008,9.56388 1.35077,2.18558 4.02287,0.69465 14.82097,-8.26954 28.66886,-23.79987 44.92879,-36.002876 47.34721,-35.533872 3.19608,0.619812 2.4361,2.667472 -2.16491,5.833052 -5.90395,4.06202 -24.78045,19.02311 -25.65051,20.33001 -0.36359,0.54614 1.14211,5.98118 3.34601,12.07785 2.2039,6.09668 6.14949,17.38487 8.76798,25.08487 7.41958,21.818172 15.09245,43.799912 16.0566,46.000002 0.48206,1.1 1.96867,4.475 3.30358,7.5 7.66516,17.36977 8.67478,21.55789 5.01553,20.80537 -2.72089,-0.55955 -15.19668,-32.1447 -28.55982,-72.30537 -5.1227,-15.395422 -11.87003,-33.965772 -12.62024,-34.734112 -0.8612,-0.88201 -13.14857,8.85512 -13.14857,10.41959 0,1.51304 8.07041,24.483212 12.23184,34.814522 1.88308,4.675 4.88384,13.675 6.66835,20 2.97262,10.53605 9.05103,26.68977 15.53253,41.27851 2.74764,6.18447 3.19794,9.21369 1.52348,10.24856 -1.32696,0.82011 -3.9562,-1.31638 -3.9562,-3.21475 0,-0.79353 -3.10901,-8.72593 -6.9089,-17.62755 -3.7999,-8.90163 -8.344,-21.13477 -10.098,-27.18477 -1.754,-6.05 -5.45123,-17.075 -8.21607,-24.5 -2.76484,-7.425 -5.58361,-15.525002 -6.26393,-18.000002 -1.76366,-6.41611 -4.25374,-12 -5.35129,-12 -0.51713,0 -1.99752,0.85614 -3.28976,1.90253 l -2.34951,1.90252 4.10687,4.8705 c 7.24305,8.58983 10.80554,17.499532 14.00678,35.030672 3.34035,18.29294 1.74846,36.45452 -4.24658,48.44831 l -2.32654,4.65453 3.96917,10.53292 c 4.79887,12.73466 5.20322,15.15802 2.52922,15.15802 -1.5476,0 -2.60689,-1.90628 -5.25264,-9.45264 -1.82275,-5.19895 -3.65666,-9.7952 -4.07536,-10.2139 -0.41869,-0.41869 -3.31866,1.42106 -6.44437,4.08833 -3.12571,2.66728 -7.39446,5.87918 -9.4861,7.13756 -2.09164,1.25838 -3.96066,2.40499 -4.15337,2.54802 -0.1927,0.14303 1.09878,4.09965 2.86998,8.79249 3.18855,8.44818 3.36093,11.60014 0.63441,11.60014 -0.86694,0 -2.65691,-3.46149 -4.65401,-9 -1.78489,-4.95 -3.46249,-9 -3.72801,-9 -0.26552,0 -4.14784,1.09067 -8.62738,2.42371 -4.47953,1.33304 -9.63752,2.72547 -11.46218,3.09429 -4.10884,0.83053 -4.77379,2.39587 -2.82999,6.66201 2.26604,4.97335 4.64756,12.62296 4.64756,14.92826 0,1.40209 -0.54627,1.93395 -1.75,1.70384 -1.21619,-0.2325 -2.9329,-3.58695 -5.62795,-10.99706 l -3.87795,-10.66252 -13.82085,-0.0569 -13.82085,-0.0569 1.41385,4.00727 c 2.23299,6.32897 4.64687,19.19082 3.76685,20.07084 -0.4399,0.4399 -1.27888,0.48106 -1.8644,0.0915 z m 22.56925,-28.95836 c -0.0259,-3.7659 -5.89308,-19.74661 -7.17917,-19.55434 -0.71983,0.10761 -3.84539,1.08027 -6.94568,2.16148 -3.1003,1.0812 -8.2753,2.15318 -11.5,2.38217 -6.61515,0.46977 -6.50794,0.19193 -3.67634,9.52731 1.29587,4.27227 2.08984,5.37439 4.20536,5.83747 1.43433,0.31397 3.05788,0.72096 3.60788,0.90443 0.55,0.18347 5.6125,0.36911 11.25,0.41253 9.12966,0.0703 10.24868,-0.11233 10.23795,-1.67105 z m 17.08992,-2.26988 c 4.35636,-1.11228 9.06406,-2.5433 10.46157,-3.18004 3.00251,-1.36804 2.87456,-2.54209 -1.72191,-15.80008 -1.6208,-4.675 -4.50998,-13.3375 -6.4204,-19.25 -1.91043,-5.9125 -3.7981,-10.75 -4.19484,-10.75 -0.39673,0 -1.77967,3.2625 -3.07321,7.25 -2.5937,7.99547 -4.52889,11.24365 -10.32322,17.32736 l -3.88341,4.07736 3.14423,9.38492 c 4.74778,14.17117 4.77798,14.23395 6.52583,13.56324 0.86059,-0.33024 5.129,-1.51048 9.48536,-2.62276 z m -50.07292,0.26988 c 0.003,-0.4125 -0.735,-3 -1.63937,-5.75 -0.90438,-2.75 -1.77171,-5.50838 -1.92742,-6.12974 -0.3902,-1.55717 -23.248108,-4.96031 -24.55292,-3.6555 -0.58994,0.58994 -0.711257,3.11606 -0.298925,6.22437 0.810848,6.11247 1.344555,6.46021 12.371696,8.06093 4.101901,0.59544 7.664401,1.28902 7.916671,1.54128 0.77216,0.77217 8.124988,0.50868 8.130268,-0.29134 z m -33.004948,-7.75 c 0,-1.375 -0.341754,-2.5 -0.759453,-2.5 -1.11685,0 -3.225212,3.682 -2.515024,4.39219 1.465643,1.46564 3.274477,0.42039 3.274477,-1.89219 z m 106.599958,-2.33443 c 2.14502,-1.55893 6.07004,-4.94873 8.72227,-7.53289 5.61545,-5.47133 5.61474,-5.0806 0.0381,-21.13268 -1.91074,-5.5 -4.97906,-14.725 -6.81851,-20.5 -5.70782,-17.9199 -12.58009,-37.43823 -13.5087,-38.36684 -0.51587,-0.51587 -2.90465,0.7204 -5.71003,2.95512 -2.65272,2.11311 -4.97729,3.93687 -5.16571,4.05279 -0.18842,0.11591 -0.33785,7.78159 -0.33207,17.03484 l 0.0105,16.82409 5.15303,15 c 2.83416,8.25 6.5836,19.38725 8.33207,24.74945 1.74848,5.36219 3.67403,9.74969 4.27901,9.75 0.60498,3e-4 2.85498,-1.27494 5,-2.83388 z M 69.214163,187.06761 c 2.6125,-2.4925 4.749999,-4.88584 4.749999,-5.31853 0,-0.43269 -1.912499,-1.35121 -4.249999,-2.04114 -10.763679,-3.177 -18.654613,-9.80087 -25.715595,-21.58637 -3.302635,-5.51244 -3.456298,-6.18862 -3.26792,-14.38011 0.108721,-4.72762 0.64794,-12.87067 1.198265,-18.09567 0.550325,-5.225 1.008389,-13.03524 1.01792,-17.3561 0.01587,-7.19597 0.267744,-8.17227 2.997508,-11.618872 2.567009,-3.24112 5.124055,-4.60924 18.443869,-9.86824 20.126917,-7.94661 27.590507,-9.05759 46.07595,-6.85854 20.34672,2.42046 34.18576,9.30349 41.44235,20.611912 1.79638,2.79941 3.45522,5.08984 3.68631,5.08984 0.2311,0 5.69669,-4.56453 12.14576,-10.143402 6.44907,-5.57886 11.91032,-10.3011 12.13612,-10.49386 0.92919,-0.79325 -3.7367,-4.7443 -8.38806,-7.10296 -7.51685,-3.81172 -14.06396,-5.83478 -30.27013,-9.35348 l -14.75235,-3.20304 -27.499998,1.22301 c -47.737382,2.12304 -54.072752,4.81294 -62.759118,26.64659 -4.700166,11.814132 -6.235927,18.721782 -6.922542,31.136692 -1.340297,24.23436 3.579063,41.95758 14.996978,54.03034 4.661254,4.92859 16.762052,13.27437 19.184683,13.23146 0.55,-0.01 3.1375,-2.05703 5.75,-4.54953 z m 56.428687,-6.80601 c 4.29007,-1.82232 5.76972,-2.9519 5.62518,-4.29429 -0.17003,-1.57916 -10.20757,-31.28871 -10.85701,-32.13505 -0.13233,-0.17245 -4.09945,3.65255 -8.81584,8.5 -5.81279,5.97431 -8.58422,9.57901 -8.60313,11.18974 -0.0153,1.30692 0.92375,6.42967 2.08686,11.38389 l 2.11475,9.00768 6.31394,-0.58961 c 3.47267,-0.32428 8.93353,-1.70234 12.13525,-3.06236 z m -24.04756,0.13419 c -0.33117,-1.2375 -1.1172,-4.8375 -1.746738,-8 -0.62953,-3.1625 -1.66155,-5.75 -2.29338,-5.75 -1.69562,0 -14.104605,12.81974 -13.242991,13.68135 0.832909,0.83291 8.222897,1.98476 14.018611,2.18504 3.546288,0.12254 3.816748,-0.0528 3.264498,-2.11639 z M 80.319806,176.046 c 6.650184,-5.49843 38.644354,-37.75649 38.644354,-38.96308 0,-0.69876 1.1061,-1.64546 2.458,-2.1038 3.26965,-1.10851 29.542,-25.04001 29.542,-26.90983 0,-2.09778 -4.15208,-8.368502 -8.10917,-12.246952 -8.74351,-8.56977 -28.26369,-13.83275 -47.890828,-12.9122 -8.425867,0.39518 -11.082933,1.03866 -23.499999,5.69111 -15.214593,5.70064 -19.869744,8.1188 -21.960686,11.407662 -1.553977,2.44426 -4.15314,33.55081 -3.84403,46.005 0.166239,6.69785 0.60059,8.48269 2.920266,12 4.755972,7.21146 9.482627,12.31878 13.479637,14.56522 3.00455,1.68865 12.424432,5.51367 14.760456,5.99359 0.195604,0.0402 1.770604,-1.09683 3.5,-2.52672 z M 66.179803,155.81512 c -10.234139,-3.65116 -12.830361,-8.72944 -11.908065,-23.29248 0.358039,-5.65342 0.166178,-9.0031 -0.557101,-9.72638 -0.80429,-0.80428 -0.681036,-1.5838 0.454874,-2.87684 0.85695,-0.9755 1.861554,-2.7701 2.232453,-3.98801 0.3709,-1.21791 2.737481,-4.03041 5.259071,-6.25 4.311609,-3.79523 4.957235,-4.03562 10.838583,-4.03562 7.799433,0 18.585451,3.24441 24.206794,7.28135 14.456278,10.38172 11.209688,34.10334 -5.74225,41.95649 -6.413378,2.97106 -17.861465,3.40132 -24.784359,0.93149 z m 21.747647,-4.1506 c 4.818514,-2.45822 10.483982,-8.81392 12.028552,-13.49399 0.678258,-2.05518 1.040918,-6.39504 0.805898,-9.64415 -0.46887,-6.48212 -2.124458,-9.4011 -8.054213,-14.20045 -3.17315,-2.56824 -4.842375,-3.05495 -13.338049,-3.88909 -10.87272,-1.06752 -11.935612,-0.688 -17.570097,6.27365 -2.596861,3.20854 -2.815575,4.21348 -3.313393,15.22431 -0.58848,13.01611 0.255407,16.20858 5.128548,19.40158 5.532988,3.62535 17.532235,3.7873 24.312754,0.32814 z M 67.547946,141.1322 c -1.339835,-1.01383 -2.050481,-3.06903 -2.362588,-6.83263 -0.395859,-4.77355 -0.18213,-5.56773 1.888723,-7.01822 2.638072,-1.84777 8.063815,-2.14813 10.945472,-0.60592 3.380174,1.80902 5.217898,6.61226 3.973026,10.38426 -1.70594,5.16904 -9.930917,7.48799 -14.444633,4.07251 z m 9.166216,-3.75329 c 1.590725,-1.2446 1.62203,-5.96109 0.05,-7.53312 -0.66,-0.66 -2.414688,-1.2 -3.899305,-1.2 -2.482981,0 -2.728242,0.36381 -3.060359,4.53964 -0.198579,2.4968 0.01906,4.91975 0.483634,5.38433 0.952084,0.95208 4.536011,0.28792 6.42603,-1.19085 z m 64.135918,31.29199 c 3.85646,-4.87879 9.29051,-18.79142 10.55557,-27.02511 0.51786,-3.37049 -4.19198,-20.5 -5.63657,-20.5 -0.33231,0 -5.14936,3.98814 -10.70456,8.86253 -7.00272,6.14452 -10.10036,9.53125 -10.10036,11.04301 0,3.95957 10.05133,32.59446 11.44121,32.59446 0.28176,0 2.28187,-2.2387 4.44471,-4.97489 z m 59.55935,-6.02511 c 3.57337,-12.0808 3.02718,-28.11677 -1.63362,-47.96206 -1.09306,-4.65414 -2.89916,-10.27914 -4.01357,-12.5 -2.23596,-4.455982 -9.67783,-14.564192 -10.66969,-14.492552 -0.34561,0.025 -3.04254,2.24447 -5.99317,4.93223 l -5.36479,4.88684 7.19091,21.817772 c 3.955,11.99977 8.09165,24.29277 9.19255,27.31777 1.1009,3.025 3.38014,9.46401 5.06497,14.3089 1.68484,4.8449 3.40899,8.4449 3.83145,8 0.42246,-0.44489 1.50019,-3.2839 2.39496,-6.3089 z m -47.89559,-46.78365 c -0.32066,-0.32066 -1.03142,-0.13461 -1.57947,0.41344 -0.66195,0.66195 -0.57243,2.15023 0.26666,4.43334 l 1.26313,3.43687 0.31635,-3.85032 c 0.17399,-2.11768 0.054,-4.11268 -0.26667,-4.43333 z"
     style="fill:#000000" />
</svg>
