<?xml version="1.0" encoding="UTF-8" standalone="no"?>
<!-- Created with Inkscape (http://www.inkscape.org/) -->

<svg
   xmlns:dc="http://purl.org/dc/elements/1.1/"
   xmlns:cc="http://creativecommons.org/ns#"
   xmlns:rdf="http://www.w3.org/1999/02/22-rdf-syntax-ns#"
   xmlns:svg="http://www.w3.org/2000/svg"
   xmlns="http://www.w3.org/2000/svg"
   xmlns:sodipodi="http://sodipodi.sourceforge.net/DTD/sodipodi-0.dtd"
   xmlns:inkscape="http://www.inkscape.org/namespaces/inkscape"
   version="1.1"
   id="svg2"
   width="295"
   height="170"
   viewBox="0 0 295 170"
   sodipodi:docname="image_graph.svg"
   inkscape:version="0.92.2 5c3e80d, 2017-08-06">
  <metadata
     id="metadata8">
    <rdf:RDF>
      <cc:Work
         rdf:about="">
        <dc:format>image/svg+xml</dc:format>
        <dc:type
           rdf:resource="http://purl.org/dc/dcmitype/StillImage" />
        <dc:title></dc:title>
      </cc:Work>
    </rdf:RDF>
  </metadata>
  <defs
     id="defs6" />
  <sodipodi:namedview
     pagecolor="#ffffff"
     bordercolor="#666666"
     borderopacity="1"
     objecttolerance="10"
     gridtolerance="10"
     guidetolerance="10"
     inkscape:pageopacity="0"
     inkscape:pageshadow="2"
     inkscape:window-width="1220"
     inkscape:window-height="600"
     id="namedview4"
     showgrid="false"
     inkscape:zoom="1.91"
     inkscape:cx="29.135802"
     inkscape:cy="85"
     inkscape:window-x="0"
     inkscape:window-y="0"
     inkscape:window-maximized="0"
     inkscape:current-layer="svg2" />
  <path
     style="fill:#000000"
     d="M 26.462454,152.53349 C 26.234159,151.7974 25.540943,137.92015 24.921975,121.69515 23.146882,75.164713 22.077043,57.016743 20.416706,45.271093 19.567397,39.262853 18.872507,31.371773 18.872507,27.735353 v -6.61167 l 53.75,-0.0705 c 29.562503,-0.0388 61.625003,-0.359 71.250003,-0.71165 9.625,-0.35264 32.125,-1.10653 50,-1.67531 29.76904,-0.94724 58.64,-2.42097 62.07473,-3.16864 1.04391,-0.22724 1.56194,1.56266 2.08313,7.19755 0.38153,4.125 1.41337,14.7 2.29297,23.5 0.8796,8.8 2.02937,24.55 2.55504,35 0.52567,10.45 1.40923,21.474997 1.96345,24.499997 0.55423,3.025 1.9247,12.475 3.04549,21 1.1208,8.525 2.30343,16.7375 2.62808,18.25 0.57359,2.67233 0.46615,2.75 -3.80381,2.75 -2.41674,0 -5.33127,-0.65644 -6.47674,-1.45876 -1.80048,-1.26111 -8.77478,-1.3343 -51.47251,-0.54017 -27.16441,0.50523 -56.36483,1.45225 -64.88983,2.10449 -8.525,0.65225 -16.4,1.16687 -17.5,1.14361 -9.43281,-0.19946 -62.41148,1.96924 -67.500003,2.76313 -3.575,0.55776 -12.236368,1.27292 -19.247485,1.58924 -10.15554,0.4582 -12.831884,0.30302 -13.162568,-0.7632 z m 27.669639,-2.74087 c 2.617772,-0.43082 5.017377,-1.0411 5.332454,-1.35618 0.498013,-0.49801 -1.569614,-16.0484 -3.189954,-23.99129 l -0.560997,-2.75 -9.670544,0.0239 c -8.400495,0.0207 -16.54251,1.01477 -17.687142,2.1594 -0.196982,0.19699 -0.09338,6.31134 0.230215,13.58745 l 0.588365,13.22925 10.099008,-0.0596 c 5.554455,-0.0328 12.240823,-0.4121 14.858595,-0.84291 z m 27.284722,-2.661 11.044307,-0.66711 -1.60052,-11.85756 c -0.880287,-6.52166 -1.800225,-12.05099 -2.044308,-12.2874 -0.54305,-0.52599 -14.129929,-0.9901 -22.80901,-0.77913 l -6.365224,0.15473 0.658136,5.75 c 0.361975,3.1625 1.106539,8.225 1.654587,11.25 1.955951,10.79605 1.668693,10.26399 5.212595,9.65466 1.762821,-0.30309 8.175067,-0.85128 14.249437,-1.21819 z m 39.705695,-1.07832 3.75,-0.61983 V 139.711 c 0,-3.14736 -0.28911,-8.48848 -0.64246,-11.86916 l -0.64245,-6.14669 h -15.35755 c -11.787736,0 -15.357543,0.29666 -15.357543,1.27623 0,1.97888 1.97229,17.89435 2.599128,20.97377 l 0.559783,2.75 10.670552,-0.011 c 5.86879,-0.006 12.35804,-0.28993 14.42054,-0.63084 z m 33.50705,-1.35815 h 4.44593 l -0.71235,-7.25 c -0.39179,-3.9875 -1.00457,-9.00404 -1.36173,-11.14786 l -0.64938,-3.89788 -14.63721,-0.45353 -14.63722,-0.45354 0.47575,10.85141 c 0.26166,5.96827 0.67735,11.48156 0.92376,12.25176 0.36459,1.13957 2.42744,1.27924 11.07728,0.75 5.84608,-0.3577 12.62991,-0.65036 15.07517,-0.65036 z m 112.41091,-1.86323 c -0.18262,-1.29976 -0.87539,-6.69977 -1.53949,-12 l -1.20745,-9.63676 -7.96051,-0.30532 c -4.37828,-0.16793 -9.34107,-0.0504 -11.02842,0.26115 l -3.06791,0.56648 0.85946,7.23884 c 0.47271,3.98136 1.21283,8.58885 1.64472,10.23884 0.77981,2.97919 0.83469,3 7.91088,3 5.50418,0 7.53467,0.40651 8.9232,1.78643 2.58014,2.56416 5.88952,1.86804 5.46552,-1.14966 z m -78.82942,-0.22866 c 0.17677,-0.22446 -0.12145,-5.07612 -0.66272,-10.78149 l -0.98412,-10.37339 -12.84627,0.45715 c -7.06545,0.25142 -13.07626,0.68712 -13.35737,0.96823 -0.49053,0.49054 0.99061,13.77269 2.08488,18.6962 l 0.52781,2.3748 12.4582,-0.46672 c 6.852,-0.25667 12.60282,-0.65034 12.77959,-0.87478 z m 29.46503,-0.41103 c 0.16697,-0.14899 -0.01,-4.82178 -0.39295,-10.38399 l -0.69653,-10.11309 h -13.429 -13.429 l 0.61562,5.75 c 0.3386,3.1625 0.86039,7.86705 1.15955,10.45457 l 0.54392,4.70455 6.16241,0.29545 c 6.0536,0.29022 18.86992,-0.17557 19.46598,-0.70749 z m 23.82815,-3.74708 c -0.3474,-2.3375 -0.92172,-7.0625 -1.27628,-10.5 l -0.64465,-6.25 h -8.27361 c -4.55048,0 -9.01367,-0.28399 -9.9182,-0.63109 -1.47749,-0.56697 -1.58142,0.27128 -1.02294,8.25 1.02329,14.61914 -0.055,13.38109 11.65468,13.38109 h 10.11262 z M 45.795882,118.18361 c 5.182857,-0.27603 9.547096,-0.6256 9.698309,-0.77681 0.268919,-0.26892 -1.115049,-11.98672 -2.183459,-18.486947 l -0.538346,-3.27531 -12.199939,0.65134 c -6.709967,0.35824 -12.571298,0.98848 -13.02518,1.40055 -0.453882,0.41206 -0.503753,5.548517 -0.110825,11.414357 l 0.714415,10.66516 4.110825,-0.54523 c 2.260954,-0.29987 8.351344,-0.77107 13.5342,-1.04711 z M 87.217651,107.58878 C 86.493874,101.98 85.782626,97.296233 85.6371,97.180393 c -0.145526,-0.11584 -6.677093,-0.4727 -14.514593,-0.79303 l -14.25,-0.58241 -0.0066,3.1951 c -0.0036,1.757297 0.522403,6.670707 1.168973,10.918667 l 1.175582,7.72358 14.081027,0.27642 c 7.744564,0.15204 14.342274,0.1845 14.661577,0.0721 0.319303,-0.11236 -0.01163,-4.7933 -0.735407,-10.40208 z m 35.878829,5.10637 c -0.15182,-3.025 -0.53862,-7.68893 -0.85956,-10.3643 l -0.58353,-4.864287 -4.64044,0.56105 c -2.55224,0.30858 -9.75155,0.24392 -15.99845,-0.14368 l -11.358022,-0.70475 0.675754,8.007977 c 0.878225,10.40738 1.384903,12.31949 3.384851,12.77388 0.910483,0.20686 7.955427,0.34416 15.655427,0.30511 l 14,-0.071 z m 32.97509,-3.74922 c -0.16552,-5.36293 -0.4889,-10.313277 -0.71862,-11.000777 -0.44913,-1.34414 -5.2968,-1.63672 -10.35544,-0.625 -2.5942,0.51884 -3.125,1.09381 -3.125,3.384987 0,1.84051 0.83287,3.30572 2.5,4.39805 4.26681,2.79573 2.68743,7.59196 -2.5,7.59196 -1.43,0 -3.14,-0.54 -3.8,-1.2 -1.61888,-1.61888 -1.52158,-6.28821 0.16011,-7.68391 0.78351,-0.65025 1.15456,-2.20411 0.87524,-3.66528 -0.46769,-2.446527 -0.718,-2.526107 -7.05723,-2.243647 l -6.57235,0.29284 0.2278,5.999997 c 0.1253,3.3 0.4901,7.9125 0.81066,10.25 l 0.58286,4.25 14.63645,7.8e-4 14.63646,7.7e-4 z m 30.36948,8.51495 c 0.40334,-0.40386 0.32792,-5.0296 -0.1676,-10.27944 l -0.90094,-9.545147 -13.31547,-0.54373 -13.31547,-0.54373 0.20785,7.863247 c 0.11432,4.32478 0.42627,9.35141 0.69323,11.17029 l 0.48537,3.30706 12.78984,-0.34714 c 7.03441,-0.19092 13.11984,-0.67755 13.52319,-1.08141 z m 29.0782,-7.41661 c -0.35571,-4.20798 -0.64674,-8.93298 -0.64674,-10.499987 v -2.84913 H 201.73005 188.5876 l 0.64245,6.146687 c 0.35335,3.38068 0.64246,8.10568 0.64246,10.5 v 4.35331 h 13.14674 13.14673 z m 22.65127,-1.59912 c -0.248,-5.0875 -0.62737,-9.812497 -0.84307,-10.499997 -0.27814,-0.88653 -3.19777,-1.25 -10.04104,-1.25 h -9.64888 l 0.66087,7.749997 c 0.36348,4.26251 0.9021,8.9875 1.19694,10.5 l 0.53608,2.75 h 9.295 9.29499 z m 25.1804,8.10492 c 0.49306,-0.49305 -2.18845,-17.898287 -2.8611,-18.570937 -0.23831,-0.23831 -4.76767,-0.69188 -10.06525,-1.00794 l -9.63196,-0.57465 0.11536,7.399297 c 0.0635,4.06962 0.36179,8.88993 0.66297,10.7118 l 0.5476,3.31249 10.39745,-0.41629 c 5.7186,-0.22896 10.59432,-0.61316 10.83493,-0.85377 z m -119.82349,-7.39805 c 0.32569,-0.84872 0.35011,-1.78518 0.0543,-2.08102 -0.87932,-0.87932 -4.81683,1.64096 -4.17817,2.67432 0.91635,1.48269 3.46816,1.11556 4.12391,-0.5933 z M 121.87251,88.695153 v -6 h -6.75945 c -5.67645,0 -6.95958,0.32045 -8.00848,2 -2.22113,3.5566 -7.232073,1.91361 -7.232073,-2.37125 0,-2.55954 2.806263,-5.62875 5.146513,-5.62875 1.0101,0 2.3986,0.9 3.08556,2 1.03292,1.65397 2.33203,2 7.50848,2 h 6.25945 v -5.62565 -5.62565 l -16.649,0.60798 c -9.156945,0.33439 -16.707507,0.72843 -16.779024,0.87565 -0.07152,0.14722 0.03467,5.30458 0.235961,11.4608 l 0.365992,11.19313 3.163034,0.39684 c 1.739669,0.21825 9.125537,0.46885 16.413037,0.55687 l 13.25,0.16003 z m 18,2.03927 c 0,-2.1493 -0.67777,-3.07737 -2.92814,-4.0095 -1.61048,-0.66708 -3.17136,-1.84668 -3.46862,-2.62132 -0.34113,-0.88897 -2.02737,-1.40845 -4.57186,-1.40845 h -4.03138 v 5.33334 c 0,2.93333 0.18559,5.52083 0.41242,5.75 0.22684,0.22916 3.60184,0.26724 7.5,0.0846 7.01472,-0.32865 7.08758,-0.36081 7.08758,-3.12868 z m -96.762175,2.30554 9.737828,-0.64485 -0.54778,-4.09998 c -0.301279,-2.25499 -1.01146,-7.13748 -1.57818,-10.84998 l -1.030399,-6.75 H 39.363943 c -5.680324,0 -11.039665,0.27315 -11.909649,0.60699 -1.758477,0.67479 -2.046395,5.65451 -0.939331,16.24632 0.742256,7.10152 -0.668403,6.63472 16.595372,5.4915 z M 85.58642,82.592593 c -0.32214,-6.10641 -0.844831,-11.36169 -1.161535,-11.67839 -0.676705,-0.67671 -30.454873,-0.64988 -31.132799,0.028 -0.253582,0.25358 -0.02316,2.66423 0.51205,5.35699 0.877788,4.41634 1.88522,11.95821 2.017554,15.10386 0.05,1.18854 4.423386,1.58695 22.950629,2.09082 l 7.399811,0.20124 z m 69.28609,5.60256 v -5.5 l -4.75,0.0314 c -5.8372,0.0386 -8.81561,3.1169 -7.74261,8.00223 0.63279,2.88109 0.8217,2.96635 6.57207,2.96635 h 5.92054 z m 29.65421,-2.75 c -0.35322,-4.5375 -0.64492,-9.9375 -0.64822,-12 l -0.006,-3.75 h -13.55226 -13.55226 l 0.30226,5.25 0.30226,5.25 4.5,-0.19529 c 2.475,-0.10742 6.40863,-0.49182 8.74139,-0.85422 4.90935,-0.76268 6.41741,1.01576 4.26759,5.03274 -1.85067,3.45801 -4.79318,3.82348 -7.66468,0.95198 -1.64037,-1.64037 -3.56275,-2.43521 -5.88975,-2.43521 h -3.45455 v 4.83334 c 0,2.65833 0.3,5.13333 0.66667,5.5 0.36666,0.36667 6.50836,0.66666 13.64821,0.66666 h 12.98155 z m 22.68243,7.5902 6.83663,-0.64559 -0.33663,-10.26635 c -0.18515,-5.6465 -0.56164,-10.46809 -0.83664,-10.71466 -0.275,-0.24657 -6.27468,-0.72149 -13.33263,-1.05537 l -12.83263,-0.60707 0.70671,11.22442 c 0.38869,6.17344 0.90243,11.56192 1.14165,11.97443 0.53193,0.91726 9.43891,0.96033 18.65354,0.0902 z m 29.36345,-9.95744 c -0.33068,-5.83948 -0.73599,-10.73042 -0.90067,-10.86874 -0.16468,-0.13831 -4.58415,-0.55516 -9.82105,-0.92632 l -9.52164,-0.67484 0.3019,7.79357 c 0.16604,4.28647 0.52853,9.2287 0.80553,10.98275 0.56375,3.56977 1.47789,3.85428 13.33651,4.15079 l 6.40067,0.16003 z m 23.52284,0.36724 c -0.26,-5.6375 -0.52903,-10.32064 -0.59783,-10.40699 -0.0688,-0.0864 -4.72931,-0.48123 -10.35668,-0.87751 l -10.23159,-0.72053 0.5656,9.87752 c 0.31108,5.43263 0.73867,10.44001 0.9502,11.12751 0.27374,0.8897 3.23223,1.25 10.26382,1.25 h 9.87922 z m -154.22293,-2.94113 c 0,-1.29545 -1.65047,-0.93495 -2.96365,0.64733 -0.66469,0.80091 -0.8761,1.99408 -0.4698,2.65149 0.53198,0.86076 1.11583,0.67959 2.08609,-0.64732 0.74105,-1.01345 1.34736,-2.20662 1.34736,-2.6515 z m 35.65492,2.64801 c 0.73144,-1.90609 0.51902,-2.12413 -2.90697,-2.984 -2.2906,-0.5749 -2.74795,-0.36652 -2.74795,1.25205 0,1.06796 0.3,2.24174 0.66667,2.60841 1.2344,1.2344 4.39108,0.67975 4.98825,-0.87646 z m 30.76163,-0.1 c 0.34679,-0.90372 0.41434,-1.85932 0.15012,-2.12354 -0.93015,-0.93015 -3.56667,0.7222 -3.56667,2.23528 0,2.04731 2.62094,1.96158 3.41655,-0.11174 z M 134.913,78.507103 c 2.24318,-1.65846 2.95951,-2.98969 2.95951,-5.5 v -3.31195 h -6.5 -6.5 v 4.83334 c 0,2.65833 0.3,5.13333 0.66667,5.5 1.40611,1.40611 6.54151,0.57263 9.37382,-1.52139 z m 18.76177,-3.06195 -0.30226,-5.25 -6.25,-0.29771 -6.25,-0.29772 v 3.19248 c 0,4.63114 3.42552,7.66564 8.80226,7.79747 l 4.30226,0.10548 z m 105.84973,-9 c -0.31382,-1.7875 -0.87318,-7.60509 -1.24301,-12.92798 l -0.67242,-9.67799 -7.61828,-0.32201 c -12.97234,-0.54832 -12.12043,-1.28712 -12.10463,10.49754 0.0198,14.77516 -0.11123,14.52546 7.84166,14.94129 16.15027,0.84445 14.44039,1.15563 13.79668,-2.51085 z M 49.148085,66.021893 c -0.123433,-0.6453 -0.528417,-5.49795 -0.899967,-10.78367 -0.371549,-5.28572 -1.098318,-9.87169 -1.615041,-10.19104 -0.516724,-0.31935 -5.983686,-0.26547 -12.148806,0.11974 l -11.209308,0.70039 1.250789,10.66392 c 0.687933,5.86516 1.272381,10.79071 1.298772,10.94566 0.02639,0.15495 5.335483,0.15495 11.797983,0 8.324593,-0.1996 11.684576,-0.62377 11.525578,-1.455 z m 21.306209,0.67326 h 13.418213 v -8.375 c 0,-4.60625 -0.293589,-9.84294 -0.65242,-11.63709 l -0.65242,-3.2621 -15.564014,0.71184 c -8.560208,0.39152 -15.823602,0.87228 -16.140876,1.06837 -0.806484,0.49843 1.320736,19.70129 2.360881,21.31216 0.468132,0.72499 1.517437,1.06249 2.331787,0.75 0.81435,-0.3125 7.518833,-0.56818 14.898849,-0.56818 z m 141.963686,-0.0736 c 0.36493,-0.59046 0.3423,-5.99046 -0.0503,-12 l -0.71376,-10.9264 h -13.39071 -13.3907 l 0.0576,7.25 c 0.0317,3.9875 0.3754,9.05 0.76378,11.25 l 0.70615,4 9.98622,0.55634 c 5.49242,0.30598 11.19716,0.64348 12.6772,0.75 1.48004,0.10652 2.98956,-0.28944 3.35449,-0.87991 z m 23.08482,-1.17642 c -0.33164,-1.23749 -0.60913,-6.6375 -0.61664,-12 l -0.0137,-9.75 h -10.14969 -10.14975 l 0.64975,9.15363 c 0.35736,5.03449 0.64974,10.43449 0.64974,12 v 2.84637 h 10.11663 c 10.00332,0 10.10988,-0.0252 9.51366,-2.25 z m -114.07586,0.16193 c 0.36986,-0.59844 0.35769,-5.70623 -0.027,-11.35065 l -0.69953,-10.26257 -14.16395,-0.54367 c -7.790176,-0.29902 -15.513953,-0.33258 -17.163953,-0.0746 l -3,0.4691 0.31054,11.42522 0.310541,11.42522 h 16.880442 c 11.08584,0 17.11129,-0.3735 17.55291,-1.08807 z m 16.24574,-1.51404 c 0.19602,-1.37269 -0.60512,-2.69529 -2.30877,-3.81156 -3.47087,-2.27421 -3.13289,-7.04017 0.70136,-9.88997 2.55092,-1.89597 2.82746,-1.91313 5.25,-0.32582 3.18028,2.0838 3.42756,6.53186 0.50991,9.1723 -1.27535,1.15417 -1.93522,2.81516 -1.75,4.40499 0.27948,2.39896 0.67727,2.57017 6.6263,2.85194 l 6.32896,0.29977 -0.63307,-9.29977 c -1.04156,-15.30036 0.60946,-13.79977 -15.1832,-13.79977 h -13.62024 l 0.6306,5.25 c 0.34683,2.88751 0.63451,8.08398 0.63929,11.54772 l 0.009,6.29772 6.25,-0.29772 c 5.47548,-0.26082 6.2872,-0.55822 6.55017,-2.39983 z m 44.62112,-7.64789 c -0.32381,-5.6375 -0.76195,-10.8125 -0.97363,-11.5 -0.28323,-0.91985 -3.97658,-1.25 -13.98366,-1.25 -12.47112,0 -13.55816,0.14512 -13.10904,1.75 0.26936,0.9625 0.79168,6.13751 1.16072,11.5 l 0.67097,9.75 h 13.41169 13.4117 z m -42.62129,1.05 c 0.66,-0.65999 1.2,-2.235 1.2,-3.5 0,-3.26344 -3.74953,-3.14611 -4.57509,0.14317 -0.98106,3.90884 0.92617,5.80576 3.37509,3.35683 z m -93.03535,-16.2313 c 0.731635,-0.73163 -1.282325,-16.41968 -2.229474,-17.36683 -0.380917,-0.38092 -5.9015,-0.85793 -12.267962,-1.06003 l -11.575386,-0.36745 0.645424,6.94452 c 0.354984,3.81948 0.943268,8.43373 1.307297,10.25388 l 0.661872,3.30935 11.435598,-0.5632 c 6.289579,-0.30976 11.699763,-0.82737 12.022631,-1.15024 z m 31.892349,-0.56868 c 4.234909,0 4.342782,-0.0809 4.334306,-3.24999 -0.0048,-1.7875 -0.292462,-5.6125 -0.639291,-8.5 l -0.630599,-5.25 H 64.602374 47.610822 l 0.669183,3.75 c 0.36805,2.0625 0.946636,6.1779 1.285746,9.14534 l 0.616564,5.39535 12.002098,-0.64535 c 6.601153,-0.35494 13.956446,-0.64535 16.345096,-0.64535 z m 41.093001,-1.24999 c 0.1375,-0.4125 0.25,-4.125 0.25,-8.25 v -7.5 H 102.36553 84.858543 l 0.590591,7.25 c 0.324825,3.98749 0.720931,7.7 0.880235,8.25 0.3385,1.16867 32.905401,1.41321 33.293141,0.25 z m 30.59215,-7.75 -0.15785,-8.5 -5.34215,-0.32914 c -2.93818,-0.18103 -9.05465,-0.0281 -13.59215,0.33976 l -8.25,0.66891 v 5.28523 c 0,2.90688 0.28378,6.70414 0.63062,8.43835 l 0.63063,3.15312 13.11937,-0.27812 13.11938,-0.27811 z m 30.65785,-0.64956 v -9.64954 l -13.21475,0.69763 c -7.26812,0.3837 -13.45562,0.94211 -13.75,1.24089 -0.7009,0.71138 -0.2626,15.18369 0.49706,16.41285 0.32215,0.52125 6.40917,0.94772 13.52671,0.94772 h 12.94098 z m 24.61038,9.03249 5.90375,-0.61706 -0.67755,-8.13294 c -0.37265,-4.47311 -0.71333,-8.69543 -0.75706,-9.38293 -0.0865,-1.35954 -15.28016,-1.77334 -22.32952,-0.60816 l -3.75,0.61984 v 8.70249 c 0,4.78637 0.3,9.00249 0.66667,9.36916 0.83726,0.83726 13.12923,0.86637 20.94371,0.0496 z m 28.23345,-9.88044 c -0.1891,-5.13662 -0.56883,-9.55066 -0.84383,-9.80897 -0.275,-0.25831 -4.91999,-0.23202 -10.3222,0.0584 l -9.8222,0.5281 0.65145,7.60997 c 1.06804,12.47647 0.29762,11.79197 12.69689,11.28087 l 7.98373,-0.32909 -0.34384,-9.33932 z m 22.63887,0.74751 c -0.35088,-5.3625 -0.81391,-10.3125 -1.02895,-11 -0.43499,-1.3907 -4.94719,-1.58585 -14.23116,-0.61548 -5.92812,0.61961 -6.04908,0.69164 -5.14669,3.0651 0.50825,1.33681 0.9241,5.75382 0.9241,9.81557 v 7.385 l 5.75,0.36082 c 3.1625,0.19845 7.68965,0.4459 10.06034,0.5499 l 4.31033,0.18908 z"
     id="path817"
     inkscape:connector-curvature="0" />
  <path
     style="opacity:1;fill:none;fill-opacity:1;fill-rule:evenodd;stroke:#2a9d8f;stroke-width:3.6419754;stroke-miterlimit:9;stroke-dasharray:none;stroke-dashoffset:0;stroke-opacity:1"
     d="m 137.33113,83.996772 c -0.31622,-0.316229 -0.57496,-1.287761 -0.57496,-2.15896 0,-1.139818 0.51462,-1.449424 1.83518,-1.104089 1.00935,0.26395 2.04513,0.819618 2.30174,1.234818 0.57379,0.928415 -2.76221,2.827981 -3.56196,2.028231 z"
     id="path917"
     inkscape:connector-curvature="0" />
  <path
     style="opacity:1;fill:none;fill-opacity:1;fill-rule:evenodd;stroke:#2a9d8f;stroke-width:3.6419754;stroke-miterlimit:9;stroke-dasharray:none;stroke-dashoffset:0;stroke-opacity:1"
     d=""
     id="path919"
     inkscape:connector-curvature="0" />
  <path
     style="opacity:1;fill:#f4a261;fill-opacity:1;fill-rule:evenodd;stroke:#f4a261;stroke-width:2.0942409;stroke-miterlimit:9;stroke-dasharray:none;stroke-dashoffset:0;stroke-opacity:1"
     d="m 136.9194,57.739965 c -0.74928,-0.749281 -0.33314,-4.215099 0.60841,-5.067197 1.26928,-1.14868 2.0259,-1.092892 2.71805,0.200411 1.20579,2.253043 -1.69549,6.497762 -3.32646,4.866786 z"
     id="path921"
     inkscape:connector-curvature="0" />
  <path
     style="opacity:1;fill:#f4a261;fill-opacity:1;fill-rule:evenodd;stroke:#f4a261;stroke-width:2.0942409;stroke-miterlimit:9;stroke-dasharray:none;stroke-dashoffset:0;stroke-opacity:1"
     d="m 102.53894,83.074611 c 0,-1.049177 1.55028,-2.996077 2.38571,-2.996077 1.04211,0 0.94648,0.66331 -0.32947,2.285414 -1.16651,1.482977 -2.05624,1.790479 -2.05624,0.710663 z"
     id="path923"
     inkscape:connector-curvature="0" />
  <path
     style="opacity:1;fill:#f4a261;fill-opacity:1;fill-rule:evenodd;stroke:#f4a261;stroke-width:2.0942409;stroke-miterlimit:9;stroke-dasharray:none;stroke-dashoffset:0;stroke-opacity:1"
     d="m 139.92109,109.83667 c -0.4189,-0.6778 1.57927,-2.53301 2.72821,-2.53301 1.09211,0 0.87492,1.97842 -0.28536,2.59939 -1.31348,0.70295 -1.97854,0.68488 -2.44285,-0.0664 z"
     id="path925"
     inkscape:connector-curvature="0" />
  <path
     style="opacity:1;fill:#f4a261;fill-opacity:1;fill-rule:evenodd;stroke:#f4a261;stroke-width:2.0942409;stroke-miterlimit:9;stroke-dasharray:none;stroke-dashoffset:0;stroke-opacity:1"
     d="m 169.27248,83.710464 c -0.41555,-0.672369 1.20906,-2.58481 2.19578,-2.58481 0.3873,0 0.70419,0.424084 0.70419,0.942409 0,1.738191 -2.10423,2.929927 -2.89997,1.642401 z"
     id="path927"
     inkscape:connector-curvature="0" />
</svg>
