<?xml version="1.0" encoding="UTF-8" standalone="no"?>
<svg
   xmlns:dc="http://purl.org/dc/elements/1.1/"
   xmlns:cc="http://creativecommons.org/ns#"
   xmlns:rdf="http://www.w3.org/1999/02/22-rdf-syntax-ns#"
   xmlns:svg="http://www.w3.org/2000/svg"
   xmlns="http://www.w3.org/2000/svg"
   viewBox="0 0 211 144"
   height="144"
   width="211"
   id="svg2"
   version="1.1">
  <metadata
     id="metadata8">
    <rdf:RDF>
      <cc:Work
         rdf:about="">
        <dc:format>image/svg+xml</dc:format>
        <dc:type
           rdf:resource="http://purl.org/dc/dcmitype/StillImage" />
        <dc:title></dc:title>
      </cc:Work>
    </rdf:RDF>
  </metadata>
  <defs
     id="defs6" />
  <path
     id="path851"
     d="m 184.38966,113.56308 c -3.79872,-2.06299 -5.54743,-7.72815 -3.39807,-11.0085 0.88724,-1.35409 2.50278,-2.46198 3.5901,-2.46198 1.08732,0 1.97695,-0.62686 1.97695,-1.39301 0,-2.84917 6.25063,-3.5206 9.77749,-1.05029 1.69976,1.19056 2.22251,2.54947 2.22251,5.7775 0,5.09603 -2.12361,8.40168 -6.59857,10.27143 -4.04188,1.68881 -4.21759,1.68567 -7.57041,-0.13515 z"
     style="fill:#000000" />
  <path
     id="path849"
     d="m 192.10409,109.63805 c 4.02885,-4.02884 2.8948,-10.54545 -1.83516,-10.54545 -2.47261,0 -5.63489,3.85536 -5.67702,6.92126 -0.0332,2.41503 2.4784,6.07874 4.16717,6.07874 0.48976,0 1.99501,-1.10455 3.34501,-2.45455 z"
     style="fill:#2a9d8f;fill-opacity:1" />
  <path
     id="path847"
     d="m 148.05864,107.49212 c -12.86693,-2.84354 -23.5,-6.2018 -23.5,-7.42203 0,-2.01772 2.42646,-1.91319 10.22089,0.4403 4.55351,1.3749 12.37549,3.23844 17.38218,4.14119 9.8934,1.78387 12.02022,2.62351 10.96603,4.32922 -0.91573,1.48167 -2.20444,1.35436 -15.0691,-1.48868 z"
     style="fill:#e76f51;fill-opacity:1" />
  <path
     id="path845"
     d="m 99.712067,98.3426 c -1.137479,-0.9625 -2.346226,-2.92818 -2.686105,-4.36818 -0.488899,-2.071352 -0.05193,-3.063412 2.092217,-4.750002 1.490601,-1.1725 3.938811,-2.13182 5.440461,-2.13182 3.94085,0 8,3.53022 8,6.957572 0,5.25846 -8.39138,8.06228 -12.846573,4.29243 z"
     style="fill:#000000" />
  <path
     id="path843"
     d="m 108.55864,93.76635 c 0,-0.55895 -0.73164,-1.824732 -1.62587,-2.812842 -1.23663,-1.36646 -2.07453,-1.55644 -3.49999,-0.79355 -2.30332,1.23269 -2.42314,4.240782 -0.25528,6.408642 1.4918,1.4918 1.76648,1.48525 3.49999,-0.0836 1.03463,-0.93629 1.88115,-2.1597 1.88115,-2.71865 z"
     style="fill:#2a9d8f;fill-opacity:1" />
  <path
     id="path841"
     d="m 19.481719,96.16952 c -5.680763,-5.680762 -2.879302,-11.076922 5.750676,-11.076922 5.474795,0 8.326247,1.96813 8.326247,5.74695 0,3.435852 -1.085303,5.245802 -4.071521,6.790042 -4.196117,2.16989 -6.747805,1.79753 -10.005402,-1.46007 z"
     style="fill:#000000" />
  <path
     id="path839"
     d="m 28.578857,94.05482 c 1.392245,-2.601432 0.347922,-5.971732 -1.837603,-5.930422 -2.27527,0.043 -5.182612,2.35898 -5.182612,4.12844 0,3.813582 5.225759,5.154962 7.020215,1.801982 z"
     style="fill:#2a9d8f;fill-opacity:1" />
  <path
     id="path837"
     d="M 61.389017,97.13595 C 51.120723,96.83711 42.413162,96.28504 42.038881,95.90913 c -0.37428,-0.37591 -0.351543,-1.21575 0.05053,-1.86632 0.508535,-0.82282 2.745663,-0.99587 7.350136,-0.56856 3.640504,0.33785 13.471785,0.66976 21.847291,0.73757 10.9113,0.0883 15.52509,0.48104 16.275523,1.38525 1.28819,1.55218 -0.910388,2.59287 -4.835503,2.28888 -1.467517,-0.11365 -11.069544,-0.45115 -21.337838,-0.75 z"
     style="fill:#000000;fill-opacity:0.42439026" />
  <path
     id="path835"
     d="m 116.55864,87.808438 c 0,-2.31278 21.48102,-21.611 26.70464,-23.99104 3.28838,-1.49828 5.28529,0.47542 2.65838,2.62749 -13.79486,11.30125 -20.36534,16.92634 -22.80011,19.51952 -2.98244,3.17648 -6.56291,4.18251 -6.56291,1.84403 z"
     style="fill:#e76f51;fill-opacity:1" />
  <path
     id="path833"
     d="m 172.16934,74.674248 c -7.41811,-12.91934 -7.76018,-13.82001 -5.44236,-14.32986 1.6488,-0.36269 3.28643,2.01023 12.48722,18.09397 1.83925,3.21517 3.09262,6.25267 2.78525,6.75 -1.50378,2.43317 -3.81594,-0.0399 -9.83011,-10.51411 z"
     style="fill:#000000;fill-opacity:0.42439026" />
  <path
     id="path831"
     d="m 35.558642,81.313268 c 0,-0.42863 6.576663,-7.62863 14.614807,-16 13.38317,-13.93798 17.235399,-16.890098 18.779587,-14.391549 0.281835,0.456019 -6.106561,7.656019 -14.196436,15.999999 -10.360961,10.6864 -15.372346,15.17088 -16.953411,15.17088 -1.234501,0 -2.244547,-0.3507 -2.244547,-0.77933 z"
     style="fill:#e76f51;fill-opacity:1" />
  <path
     id="path829"
     d="m 97.594744,73.842598 c -1.884051,-3.4375 -5.152992,-8.93059 -7.264313,-12.20685 -2.111321,-3.27627 -3.705034,-6.65127 -3.541583,-7.5 0.379908,-1.97271 2.809623,-1.99996 3.847119,-0.0431 0.437413,0.825 3.748957,6.31315 7.358986,12.19589 6.839077,11.14465 7.762777,13.80411 4.794517,13.80411 -1.13813,0 -2.991034,-2.22931 -5.194726,-6.25 z"
     style="fill:#e76f51;fill-opacity:1" />
  <path
     id="path827"
     d="m 152.55864,52.092598 c -2.46692,-2.466926 -2.596,-7.192238 -0.25,-9.151656 2.34087,-1.955131 6.8973,-3.848349 9.26187,-3.848349 4.07726,0 5.18683,6.52172 1.99909,11.75 -1.63058,2.674345 -2.6041,3.250005 -5.49626,3.250005 -2.18137,0 -4.27342,-0.75872 -5.5147,-2 z"
     style="fill:#000000" />
  <path
     id="path825"
     d="m 160.5512,48.110553 c 0.67936,-1.640121 0.96081,-3.697086 0.62545,-4.571032 -0.53451,-1.392901 -0.98049,-1.325011 -3.61388,0.550133 -3.22105,2.293585 -3.7173,3.889771 -1.80413,5.802939 1.95528,1.955275 3.47923,1.388615 4.79256,-1.78204 z"
     style="fill:#2a9d8f;fill-opacity:1" />
  <path
     id="path823"
     d="M 75.013187,44.638048 C 69.483889,39.108749 73.090493,31.66676 81.883534,30.46154 c 7.346243,-1.006915 10.40063,2.962388 7.715042,10.02602 -2.572146,6.765256 -9.888611,8.847265 -14.585389,4.150488 z"
     style="fill:#000000" />
  <path
     id="path821"
     d="m 84.558642,42.092593 c 2.350339,-2.350339 2.684246,-7.8002 0.528591,-8.627402 -0.809275,-0.310548 -3.171775,0.266075 -5.25,1.281385 -3.047952,1.489066 -3.726564,2.329424 -3.509528,4.346017 0.279046,2.592755 2.64877,5 4.922067,5 0.719878,0 2.20887,-0.9 3.30887,-2 z"
     style="fill:#2a9d8f;fill-opacity:1" />
  <path
     id="path817"
     d="M 115.55864,42.40315 C 99.918034,39.506393 96.755562,38.495673 98.348435,36.9028 c 0.792058,-0.792058 5.457495,-0.338312 16.902125,1.643848 18.74755,3.246996 18.58722,3.20442 18.06291,4.796471 -0.62703,1.903964 -3.10887,1.772571 -17.75483,-0.939969 z"
     style="fill:#000000;fill-opacity:0.42439026" />
</svg>
