<?xml version="1.0" encoding="UTF-8" standalone="no"?>
<svg
   xmlns:dc="http://purl.org/dc/elements/1.1/"
   xmlns:cc="http://creativecommons.org/ns#"
   xmlns:rdf="http://www.w3.org/1999/02/22-rdf-syntax-ns#"
   xmlns:svg="http://www.w3.org/2000/svg"
   xmlns="http://www.w3.org/2000/svg"
   xmlns:sodipodi="http://sodipodi.sourceforge.net/DTD/sodipodi-0.dtd"
   xmlns:inkscape="http://www.inkscape.org/namespaces/inkscape"
   viewBox="0 0 458 313"
   height="8.2814579cm"
   width="12.117917cm"
   id="svg2"
   version="1.1"
   sodipodi:docname="mst.svg"
   inkscape:version="0.92.2 5c3e80d, 2017-08-06">
  <sodipodi:namedview
     pagecolor="#ffffff"
     bordercolor="#666666"
     borderopacity="1"
     objecttolerance="10"
     gridtolerance="10"
     guidetolerance="10"
     inkscape:pageopacity="0"
     inkscape:pageshadow="2"
     inkscape:window-width="1229"
     inkscape:window-height="629"
     id="namedview47"
     showgrid="false"
     inkscape:zoom="0.70742356"
     inkscape:cx="45.234569"
     inkscape:cy="156.49999"
     inkscape:window-x="0"
     inkscape:window-y="673"
     inkscape:window-maximized="0"
     inkscape:current-layer="svg2" />
  <metadata
     id="metadata8">
    <rdf:RDF>
      <cc:Work
         rdf:about="">
        <dc:format>image/svg+xml</dc:format>
        <dc:type
           rdf:resource="http://purl.org/dc/dcmitype/StillImage" />
        <dc:title></dc:title>
      </cc:Work>
    </rdf:RDF>
  </metadata>
  <defs
     id="defs6" />
  <path
     id="path851"
     d="m 265.79827,269.63844 c -6.39299,-2.83742 -10.79969,-9.57624 -10.79672,-16.51056 0.002,-4.95104 2.92007,-10.44661 5.99845,-11.29729 1.375,-0.37996 4.525,-1.28479 7,-2.01072 6.10942,-1.79192 12.95074,-1.55348 16.18244,0.56401 3.29032,2.15591 4.81756,6.31365 4.81756,13.1153 0,4.21492 -0.58036,6.00191 -3.0617,9.4273 -4.92459,6.79819 -13.5038,9.65735 -20.14003,6.71196 z"
     style="fill:#000000" />
  <path
     id="path849"
     d="m 279.75254,262.51062 4.48938,-4.48938 -0.44553,-6.15936 c -0.69141,-9.55869 -4.72825,-11.72655 -15.36825,-8.25306 -2.71048,0.88485 -5.71564,2.50971 -6.67814,3.61078 -3.72328,4.25936 -1.20993,14.3102 4.43982,17.75477 5.3058,3.23485 8.43201,2.66695 13.56272,-2.46375 z"
     style="fill:#2a9d8f;fill-opacity:1" />
  <path
     id="path843"
     d="m 269.03016,224.75 c -1.02156,-2.3375 -3.04859,-9.65 -4.50453,-16.25 -1.45593,-6.6 -3.31162,-14.25 -4.12376,-17 -2.41174,-8.16643 -6.37934,-27.72744 -5.81065,-28.64759 0.89788,-1.45281 4.43889,-0.93752 5.08246,0.7396 0.336,0.87561 1.61606,6.38811 2.84457,12.25 1.22851,5.86189 4.58564,19.8279 7.46029,31.03557 4.23842,16.5247 4.9709,20.53963 3.87405,21.23469 -2.29514,1.45438 -2.90246,1.03095 -4.82243,-3.36227 z"
     style="fill:#e76f51;fill-opacity:1" />
  <path
     id="path841"
     d="m 60.143178,164.5371 c -8.354878,-2.66397 -12.172634,-9.16507 -10.023505,-17.06863 1.415944,-5.20721 2.986051,-6.83747 9.131229,-9.48106 6.089713,-2.61972 15.050437,-2.43719 20.990083,0.42759 6.091303,2.93792 7.074488,9.89328 2.648201,18.73423 -3.470389,6.93166 -13.727945,10.2633 -22.746008,7.38787 z"
     style="fill:#000000" />
  <path
     id="path839"
     d="M 73.938336,160.17273 C 78.065896,157.9591 81,152.83412 81,147.83818 81,142.45346 77.520963,140 69.885378,140 c -8.307349,0 -13.497243,2.29391 -14.916008,6.59281 -1.934437,5.8614 0.579669,12.43544 5.53063,14.46183 3.492538,1.42947 9.914345,1.00803 13.438336,-0.88191 z"
     style="fill:#2a9d8f;fill-opacity:1" />
  <path
     id="path837"
     d="m 242.84057,154.70868 c -3.5775,-1.66104 -6.74916,-4.63124 -8.44295,-7.90666 -2.92985,-5.6657 -0.99428,-16.39424 3.36273,-18.63902 3.2324,-1.66537 16.97674,-2.32205 21.32618,-1.01893 11.10749,3.32789 12.72177,18.8718 2.70094,26.00726 -3.80669,2.71061 -14.55948,3.59444 -18.9469,1.55735 z"
     style="fill:#000000" />
  <path
     id="path835"
     d="m 257.57672,150.35778 c 4.72421,-3.09542 6.7775,-8.49103 5.28637,-13.89144 -1.43865,-5.21039 -4.29171,-6.57844 -13.28441,-6.36993 -6.8578,0.159 -7.85207,0.43569 -9.61377,2.67532 -2.77419,3.52682 -2.67163,11.0601 0.20028,14.71114 4.23339,5.3819 11.70305,6.61525 17.41153,2.87491 z"
     style="fill:#2a9d8f;fill-opacity:1" />
  <path
     id="path833"
     d="M 92.370603,130.52339 C 91.575111,128.45037 97.971144,121.49779 115,105.92491 122.975,98.631772 137.6,84.914591 147.5,75.442282 165.07226,58.629168 182.34285,44 184.61947,44 c 0.6246,0 1.63876,0.606226 2.25369,1.347169 0.87614,1.055686 -8.7e-4,2.299792 -4.05339,5.75 C 179.97548,53.518726 176.65118,56.175 175.43244,57 173.1944,58.514989 171.00713,60.512301 147.5,82.506525 c -7.15,6.689831 -18.85,17.455894 -26,23.924585 -7.15,6.46869 -15.925,14.87935 -19.5,18.69036 -6.542688,6.97462 -8.586028,8.1209 -9.629397,5.40192 z"
     style="fill:#e76f51;fill-opacity:1" />
  <path
     id="path831"
     d="m 282.09461,131.05847 c -2.67411,-1.65269 -0.12447,-3.92496 12.29316,-10.95577 18.08507,-10.2397 33.02227,-17.56487 50.18187,-24.609087 18.61898,-7.643308 19.8175,-7.963615 21.92232,-5.858798 0.90014,0.900138 1.27018,1.942104 0.82233,2.315481 -0.44786,0.373377 -5.53929,2.416674 -11.31429,4.540659 -18.70979,6.881275 -56.18954,25.031265 -70.50968,34.145105 -1.21563,0.77367 -2.55732,0.94057 -3.39571,0.42241 z"
     style="fill:#e76f51;fill-opacity:1" />
  <path
     id="path829"
     d="m 240.0612,109.8212 c -2.61631,-6.32066 -9.3924,-25.429608 -12.14368,-34.245802 -1.70345,-5.458531 -4.18175,-12.377025 -5.50735,-15.37443 C 219.41605,53.430729 219.41932,53 222.46482,53 c 3.14039,0 3.31537,0.356581 10.09878,20.579631 3.12157,9.306203 7.22002,20.694299 9.10766,25.30688 1.88763,4.612579 3.29632,9.332989 3.1304,10.489789 -0.42945,2.99429 -3.56345,3.28843 -4.74046,0.4449 z"
     style="fill:#e76f51;fill-opacity:1" />
  <path
     id="path827"
     d="M 390.27505,93.029061 C 382.89614,91.275906 378.23128,84.91117 379.47322,78.29105 380.23046,74.254625 384.01064,70 386.83971,70 c 1.06184,0 4.1965,-0.731797 6.9659,-1.626215 6.68104,-2.157733 11.56603,-1.202143 15.87326,3.105084 2.91882,2.918822 3.32113,3.957681 3.32113,8.575967 0,4.804315 -0.33324,5.571845 -3.88693,8.952387 -5.01574,4.771354 -10.63445,5.970925 -18.83802,4.021838 z"
     style="fill:#000000" />
  <path
     id="path825"
     d="m 403.32878,88.290764 c 3.99035,-2.00817 6.2022,-7.594646 4.56852,-11.538715 -1.2884,-3.110452 -6.17229,-6.741845 -9.07587,-6.748311 -0.92322,-0.0021 -2.44931,0.766999 -3.39132,1.709011 -1.07675,1.076743 -2.9213,1.608627 -4.96734,1.43235 -5.79426,-0.499204 -8.35553,6.221038 -4.67851,12.275445 3.11476,5.128619 10.61786,6.356099 17.54452,2.87022 z"
     style="fill:#2a9d8f;fill-opacity:1" />
  <path
     id="path821"
     d="m 201.2187,41.744274 c -1.80472,-0.578353 -4.61722,-2.573072 -6.25,-4.432708 C 192.55585,34.563491 192,33.028419 192,29.113087 c 0,-5.097457 2.71947,-10.40695 6.41225,-12.519258 1.05174,-0.601606 2.7155,-1.857593 3.69725,-2.791082 5.15074,-4.8975266 18.17158,-4.2501308 23.35602,1.161261 4.78293,4.992307 4.49572,15.001673 -0.61698,21.501409 -4.57758,5.81946 -14.80994,8.105346 -23.62984,5.278857 z"
     style="fill:#000000" />
  <path
     id="path817"
     d="m 217.59736,36.939827 c 9.01589,-5.572126 8.36626,-20.71038 -0.95366,-22.222794 -5.61558,-0.911284 -11.83801,0.310019 -12.39304,2.432436 C 203.9845,18.167261 203.17688,19 202.45595,19 199.91129,19 197,24.097516 197,28.553071 c 0,6.070437 0.7661,7.430363 5.40184,9.588901 4.82361,2.246024 10.31981,1.81121 15.19552,-1.202145 z"
     style="fill:#2a9d8f;fill-opacity:1" />
  <g
     style="display:inline"
     id="layer1">
    <text
       id="text855"
       y="83.46199"
       x="110.44696"
       style="font-style:normal;font-variant:normal;font-weight:normal;font-stretch:normal;font-size:32px;line-height:125%;font-family:Helvetica;-inkscape-font-specification:'Helvetica, Normal';font-variant-ligatures:normal;font-variant-caps:normal;font-variant-numeric:normal;font-feature-settings:normal;text-align:center;letter-spacing:0px;word-spacing:0px;writing-mode:lr-tb;text-anchor:middle;opacity:0.73999999;fill:#000000;fill-opacity:1;stroke:none;stroke-width:1px;stroke-linecap:butt;stroke-linejoin:miter;stroke-opacity:1"
       xml:space="preserve"><tspan
         y="83.46199"
         x="110.44696"
         id="tspan853">2</tspan></text>
    <text
       id="text863"
       y="99.01136"
       x="212.22473"
       style="font-style:normal;font-variant:normal;font-weight:normal;font-stretch:normal;font-size:32px;line-height:125%;font-family:Helvetica;-inkscape-font-specification:'Helvetica, Normal';font-variant-ligatures:normal;font-variant-caps:normal;font-variant-numeric:normal;font-feature-settings:normal;text-align:center;letter-spacing:0px;word-spacing:0px;writing-mode:lr-tb;text-anchor:middle;fill:#000000;fill-opacity:1;stroke:none;stroke-width:1px;stroke-linecap:butt;stroke-linejoin:miter;stroke-opacity:1"
       xml:space="preserve"><tspan
         y="99.01136"
         x="212.22473"
         id="tspan861">1</tspan></text>
    <text
       id="text867"
       y="205.02989"
       x="247.56421"
       style="font-style:normal;font-variant:normal;font-weight:normal;font-stretch:normal;font-size:32px;line-height:125%;font-family:Helvetica;-inkscape-font-specification:'Helvetica, Normal';font-variant-ligatures:normal;font-variant-caps:normal;font-variant-numeric:normal;font-feature-settings:normal;text-align:center;letter-spacing:0px;word-spacing:0px;writing-mode:lr-tb;text-anchor:middle;fill:#000000;fill-opacity:1;stroke:none;stroke-width:1px;stroke-linecap:butt;stroke-linejoin:miter;stroke-opacity:1"
       xml:space="preserve"><tspan
         y="205.02989"
         x="247.56421"
         id="tspan865">2</tspan></text>
    <text
       id="text875"
       y="104.66568"
       x="305.52103"
       style="font-style:normal;font-variant:normal;font-weight:normal;font-stretch:normal;font-size:32px;line-height:125%;font-family:Helvetica;-inkscape-font-specification:'Helvetica, Normal';font-variant-ligatures:normal;font-variant-caps:normal;font-variant-numeric:normal;font-feature-settings:normal;text-align:center;letter-spacing:0px;word-spacing:0px;writing-mode:lr-tb;text-anchor:middle;fill:#000000;fill-opacity:1;stroke:none;stroke-width:1px;stroke-linecap:butt;stroke-linejoin:miter;stroke-opacity:1"
       xml:space="preserve"><tspan
         y="104.66568"
         x="305.52103"
         id="tspan873">1</tspan></text>
  </g>
  <text
     id="text976"
     y="161.74689"
     x="32.512344"
     style="font-style:normal;font-variant:normal;font-weight:normal;font-stretch:normal;font-size:32px;line-height:125%;font-family:Helvetica;-inkscape-font-specification:'Helvetica, Normal';font-variant-ligatures:normal;font-variant-caps:normal;font-variant-numeric:normal;font-feature-settings:normal;text-align:center;letter-spacing:0px;word-spacing:0px;writing-mode:lr-tb;text-anchor:middle;fill:#f4a261;fill-opacity:1;stroke:none;stroke-width:1px;stroke-linecap:butt;stroke-linejoin:miter;stroke-opacity:1;opacity:1;"
     xml:space="preserve"><tspan
       y="161.74689"
       x="32.512344"
       id="tspan974">A</tspan></text>
  <text
     id="text980"
     y="34.524662"
     x="175.28395"
     style="font-style:normal;font-variant:normal;font-weight:normal;font-stretch:normal;font-size:32px;line-height:125%;font-family:Helvetica;-inkscape-font-specification:'Helvetica, Normal';font-variant-ligatures:normal;font-variant-caps:normal;font-variant-numeric:normal;font-feature-settings:normal;text-align:center;letter-spacing:0px;word-spacing:0px;writing-mode:lr-tb;text-anchor:middle;fill:#f4a261;fill-opacity:1;stroke:none;stroke-width:1px;stroke-linecap:butt;stroke-linejoin:miter;stroke-opacity:1;opacity:1;"
     xml:space="preserve"><tspan
       y="34.524662"
       x="175.28395"
       id="tspan978">B</tspan></text>
  <text
     id="text984"
     y="161.74689"
     x="217.69136"
     style="font-style:normal;font-variant:normal;font-weight:normal;font-stretch:normal;font-size:32px;line-height:125%;font-family:Helvetica;-inkscape-font-specification:'Helvetica, Normal';font-variant-ligatures:normal;font-variant-caps:normal;font-variant-numeric:normal;font-feature-settings:normal;text-align:center;letter-spacing:0px;word-spacing:0px;writing-mode:lr-tb;text-anchor:middle;fill:#f4a261;fill-opacity:1;stroke:none;stroke-width:1px;stroke-linecap:butt;stroke-linejoin:miter;stroke-opacity:1;opacity:1;"
     xml:space="preserve"><tspan
       y="161.74689"
       x="217.69136"
       id="tspan982">C</tspan></text>
  <text
     id="text988"
     y="287.55554"
     x="250.2037"
     style="font-style:normal;font-variant:normal;font-weight:normal;font-stretch:normal;font-size:32px;line-height:125%;font-family:Helvetica;-inkscape-font-specification:'Helvetica, Normal';font-variant-ligatures:normal;font-variant-caps:normal;font-variant-numeric:normal;font-feature-settings:normal;text-align:center;letter-spacing:0px;word-spacing:0px;writing-mode:lr-tb;text-anchor:middle;fill:#f4a261;fill-opacity:1;stroke:none;stroke-width:1px;stroke-linecap:butt;stroke-linejoin:miter;stroke-opacity:1;opacity:1;"
     xml:space="preserve"><tspan
       y="287.55554"
       x="250.2037"
       id="tspan986">D</tspan></text>
  <text
     id="text992"
     y="105.20367"
     x="421.24692"
     style="font-style:normal;font-variant:normal;font-weight:normal;font-stretch:normal;font-size:32px;line-height:125%;font-family:Helvetica;-inkscape-font-specification:'Helvetica, Normal';font-variant-ligatures:normal;font-variant-caps:normal;font-variant-numeric:normal;font-feature-settings:normal;text-align:center;letter-spacing:0px;word-spacing:0px;writing-mode:lr-tb;text-anchor:middle;fill:#f4a261;fill-opacity:1;stroke:none;stroke-width:1px;stroke-linecap:butt;stroke-linejoin:miter;stroke-opacity:1;opacity:1;"
     xml:space="preserve"><tspan
       y="105.20367"
       x="421.24692"
       id="tspan990">E</tspan></text>
</svg>
